FlexSansGBVF-Bold.ufo
<glyph name="uni0022" format="2">
  <advance width="509"/>
  <unicode hex="0022"/>
  <outline>
    <contour>
      <point x="205" y="441" type="line"/>
      <point x="205" y="777" type="line"/>
      <point x="73" y="777" type="line"/>
      <point x="73" y="441" type="line"/>
    </contour>
    <contour>
      <point x="435" y="441" type="line"/>
      <point x="435" y="777" type="line"/>
      <point x="303" y="777" type="line"/>
      <point x="303" y="441" type="line"/>
    </contour>
  </outline>
</glyph>
<glyph name="uni0029" format="2">
  <advance width="354"/>
  <unicode hex="0029"/>
  <outline>
    <contour>
      <point x="314" y="328" type="curve" smooth="yes"/>
      <point x="314" y="531"/>
      <point x="235" y="708"/>
      <point x="130" y="799" type="curve"/>
      <point x="-10" y="799" type="line"/>
      <point x="104" y="694"/>
      <point x="174" y="540"/>
      <point x="174" y="365" type="curve" smooth="yes"/>
      <point x="174" y="290" type="line" smooth="yes"/>
      <point x="174" y="115"/>
      <point x="104" y="-39"/>
      <point x="-10" y="-144" type="curve"/>
      <point x="130" y="-144" type="line"/>
      <point x="234" y="-54"/>
      <point x="314" y="124"/>
    </contour>
  </outline>
</glyph>
<glyph name="uni002A" format="2">
  <advance width="631"/>
  <unicode hex="002A"/>
  <outline>
    <contour>
      <point x="315" y="428" type="line"/>
      <point x="432" y="252" type="line"/>
      <point x="536" y="321" type="line"/>
      <point x="398" y="485" type="line"/>
      <point x="597" y="545" type="line"/>
      <point x="558" y="659" type="line"/>
      <point x="371" y="580" type="line"/>
      <point x="380" y="785" type="line"/>
      <point x="251" y="785" type="line"/>
      <point x="260" y="580" type="line"/>
      <point x="73" y="659" type="line"/>
      <point x="34" y="545" type="line"/>
      <point x="233" y="485" type="line"/>
      <point x="95" y="321" type="line"/>
      <point x="199" y="252" type="line"/>
    </contour>
  </outline>
</glyph>
<glyph name="uni002B" format="2">
  <advance width="630"/>
  <unicode hex="002B"/>
  <outline>
    <contour>
      <point x="379" y="66" type="line"/>
      <point x="379" y="262" type="line"/>
      <point x="560" y="262" type="line"/>
      <point x="560" y="380" type="line"/>
      <point x="379" y="380" type="line"/>
      <point x="379" y="576" type="line"/>
      <point x="251" y="576" type="line"/>
      <point x="251" y="380" type="line"/>
      <point x="70" y="380" type="line"/>
      <point x="70" y="262" type="line"/>
      <point x="251" y="262" type="line"/>
      <point x="251" y="66" type="line"/>
    </contour>
  </outline>
</glyph>
<glyph name="uni002E" format="2">
  <advance width="326"/>
  <unicode hex="002E"/>
  <outline>
    <contour>
      <point x="163" y="-13" type="curve" smooth="yes"/>
      <point x="223" y="-13"/>
      <point x="251" y="21"/>
      <point x="251" y="67" type="curve" smooth="yes"/>
      <point x="251" y="87" type="line" smooth="yes"/>
      <point x="251" y="133"/>
      <point x="223" y="167"/>
      <point x="163" y="167" type="curve" smooth="yes"/>
      <point x="103" y="167"/>
      <point x="75" y="133"/>
      <point x="75" y="87" type="curve" smooth="yes"/>
      <point x="75" y="67" type="line" smooth="yes"/>
      <point x="75" y="21"/>
      <point x="103" y="-13"/>
    </contour>
  </outline>
</glyph>
<glyph name="uni0030" format="2">
  <advance width="630"/>
  <unicode hex="0030"/>
  <outline>
    <contour>
      <point x="315" y="-13" type="curve" smooth="yes"/>
      <point x="504" y="-13"/>
      <point x="594" y="127"/>
      <point x="594" y="366" type="curve" smooth="yes"/>
      <point x="594" y="606"/>
      <point x="504" y="746"/>
      <point x="315" y="746" type="curve" smooth="yes"/>
      <point x="126" y="746"/>
      <point x="36" y="606"/>
      <point x="36" y="366" type="curve" smooth="yes"/>
      <point x="36" y="127"/>
      <point x="126" y="-13"/>
    </contour>
    <contour>
      <point x="315" y="114" type="curve" smooth="yes"/>
      <point x="228" y="114"/>
      <point x="199" y="184"/>
      <point x="199" y="298" type="curve" smooth="yes"/>
      <point x="199" y="435" type="line" smooth="yes"/>
      <point x="199" y="549"/>
      <point x="228" y="619"/>
      <point x="315" y="619" type="curve" smooth="yes"/>
      <point x="402" y="619"/>
      <point x="431" y="549"/>
      <point x="431" y="435" type="curve" smooth="yes"/>
      <point x="431" y="298" type="line" smooth="yes"/>
      <point x="431" y="184"/>
      <point x="402" y="114"/>
    </contour>
  </outline>
</glyph>
<glyph name="uni0032" format="2">
  <advance width="630"/>
  <unicode hex="0032"/>
  <outline>
    <contour>
      <point x="577" y="0" type="line"/>
      <point x="577" y="126" type="line"/>
      <point x="225" y="126" type="line"/>
      <point x="369" y="241" type="line" smooth="yes"/>
      <point x="473" y="324"/>
      <point x="561" y="401"/>
      <point x="561" y="526" type="curve" smooth="yes"/>
      <point x="561" y="653"/>
      <point x="471" y="746"/>
      <point x="313" y="746" type="curve" smooth="yes"/>
      <point x="162" y="746"/>
      <point x="80" y="660"/>
      <point x="47" y="561" type="curve"/>
      <point x="178" y="510" type="line"/>
      <point x="193" y="568"/>
      <point x="228" y="616"/>
      <point x="299" y="616" type="curve" smooth="yes"/>
      <point x="352" y="616"/>
      <point x="401" y="585"/>
      <point x="401" y="526" type="curve" smooth="yes"/>
      <point x="401" y="511" type="line" smooth="yes"/>
      <point x="401" y="448"/>
      <point x="370" y="403"/>
      <point x="290" y="334" type="curve" smooth="yes"/>
      <point x="62" y="138" type="line"/>
      <point x="62" y="0" type="line"/>
    </contour>
  </outline>
</glyph>
<glyph name="uni0033" format="2">
  <advance width="628"/>
  <unicode hex="0033"/>
  <outline>
    <contour>
      <point x="205" y="316" type="line"/>
      <point x="274" y="316" type="line" smooth="yes"/>
      <point x="357" y="316"/>
      <point x="405" y="283"/>
      <point x="405" y="221" type="curve" smooth="yes"/>
      <point x="405" y="213" type="line" smooth="yes"/>
      <point x="405" y="149"/>
      <point x="362" y="109"/>
      <point x="287" y="109" type="curve" smooth="yes"/>
      <point x="207" y="109"/>
      <point x="163" y="152"/>
      <point x="130" y="212" type="curve"/>
      <point x="20" y="126" type="line"/>
      <point x="67" y="53"/>
      <point x="141" y="-13"/>
      <point x="287" y="-13" type="curve" smooth="yes"/>
      <point x="451" y="-13"/>
      <point x="562" y="72"/>
      <point x="562" y="204" type="curve" smooth="yes"/>
      <point x="562" y="306"/>
      <point x="496" y="365"/>
      <point x="410" y="381" type="curve"/>
      <point x="410" y="386" type="line"/>
      <point x="485" y="401"/>
      <point x="549" y="459"/>
      <point x="549" y="552" type="curve" smooth="yes"/>
      <point x="549" y="670"/>
      <point x="448" y="746"/>
      <point x="294" y="746" type="curve" smooth="yes"/>
      <point x="169" y="746"/>
      <point x="99" y="694"/>
      <point x="45" y="623" type="curve"/>
      <point x="140" y="535" type="line"/>
      <point x="175" y="592"/>
      <point x="228" y="624"/>
      <point x="289" y="624" type="curve" smooth="yes"/>
      <point x="353" y="624"/>
      <point x="391" y="588"/>
      <point x="391" y="532" type="curve" smooth="yes"/>
      <point x="391" y="525" type="line" smooth="yes"/>
      <point x="391" y="477"/>
      <point x="355" y="441"/>
      <point x="275" y="441" type="curve" smooth="yes"/>
      <point x="205" y="441" type="line"/>
    </contour>
  </outline>
</glyph>
<glyph name="uni0035" format="2">
  <advance width="630"/>
  <unicode hex="0035"/>
  <outline>
    <contour>
      <point x="104" y="733" type="line"/>
      <point x="76" y="319" type="line"/>
      <point x="199" y="302" type="line"/>
      <point x="220" y="326"/>
      <point x="256" y="355"/>
      <point x="314" y="355" type="curve" smooth="yes"/>
      <point x="386" y="355"/>
      <point x="429" y="312"/>
      <point x="429" y="241" type="curve" smooth="yes"/>
      <point x="429" y="232" type="line" smooth="yes"/>
      <point x="429" y="157"/>
      <point x="389" y="109"/>
      <point x="311" y="109" type="curve" smooth="yes"/>
      <point x="233" y="109"/>
      <point x="193" y="154"/>
      <point x="161" y="211" type="curve"/>
      <point x="52" y="126" type="line"/>
      <point x="96" y="53"/>
      <point x="170" y="-13"/>
      <point x="310" y="-13" type="curve" smooth="yes"/>
      <point x="487" y="-13"/>
      <point x="587" y="97"/>
      <point x="587" y="245" type="curve" smooth="yes"/>
      <point x="587" y="391"/>
      <point x="487" y="477"/>
      <point x="362" y="477" type="curve" smooth="yes"/>
      <point x="271" y="477"/>
      <point x="235" y="432"/>
      <point x="206" y="365" type="curve"/>
      <point x="198" y="365" type="line"/>
      <point x="213" y="602" type="line"/>
      <point x="545" y="602" type="line"/>
      <point x="545" y="733" type="line"/>
    </contour>
  </outline>
</glyph>
<glyph name="uni0039" format="2">
  <advance width="630"/>
  <unicode hex="0039"/>
  <outline>
    <contour>
      <point x="320" y="0" type="line"/>
      <point x="444" y="84"/>
      <point x="583" y="249"/>
      <point x="583" y="456" type="curve" smooth="yes"/>
      <point x="583" y="632"/>
      <point x="483" y="746"/>
      <point x="311" y="746" type="curve" smooth="yes"/>
      <point x="147" y="746"/>
      <point x="40" y="639"/>
      <point x="40" y="490" type="curve" smooth="yes"/>
      <point x="40" y="352"/>
      <point x="133" y="262"/>
      <point x="254" y="262" type="curve" smooth="yes"/>
      <point x="347" y="262"/>
      <point x="391" y="316"/>
      <point x="418" y="372" type="curve"/>
      <point x="426" y="369" type="line"/>
      <point x="396" y="226"/>
      <point x="291" y="126"/>
      <point x="113" y="0" type="curve"/>
    </contour>
    <contour>
      <point x="311" y="377" type="curve" smooth="yes"/>
      <point x="239" y="377"/>
      <point x="196" y="418"/>
      <point x="196" y="495" type="curve" smooth="yes"/>
      <point x="196" y="511" type="line" smooth="yes"/>
      <point x="196" y="588"/>
      <point x="239" y="629"/>
      <point x="311" y="629" type="curve" smooth="yes"/>
      <point x="384" y="629"/>
      <point x="427" y="588"/>
      <point x="427" y="511" type="curve" smooth="yes"/>
      <point x="427" y="495" type="line" smooth="yes"/>
      <point x="427" y="418"/>
      <point x="384" y="377"/>
    </contour>
  </outline>
</glyph>
<glyph name="uni003B" format="2">
  <advance width="346"/>
  <unicode hex="003B"/>
  <outline>
    <contour>
      <point x="173" y="169" type="curve" smooth="yes"/>
      <point x="113" y="169"/>
      <point x="85" y="135"/>
      <point x="85" y="89" type="curve" smooth="yes"/>
      <point x="85" y="69" type="line" smooth="yes"/>
      <point x="85" y="30"/>
      <point x="106" y="-1"/>
      <point x="152" y="-9" type="curve"/>
      <point x="135" y="-62"/>
      <point x="101" y="-103"/>
      <point x="54" y="-147" type="curve"/>
      <point x="154" y="-147" type="line"/>
      <point x="218" y="-98"/>
      <point x="261" y="-12"/>
      <point x="261" y="69" type="curve" smooth="yes"/>
      <point x="261" y="89" type="line" smooth="yes"/>
      <point x="261" y="135"/>
      <point x="233" y="169"/>
    </contour>
    <contour>
      <point x="173" y="383" type="curve" smooth="yes"/>
      <point x="233" y="383"/>
      <point x="261" y="417"/>
      <point x="261" y="463" type="curve" smooth="yes"/>
      <point x="261" y="483" type="line" smooth="yes"/>
      <point x="261" y="529"/>
      <point x="233" y="563"/>
      <point x="173" y="563" type="curve" smooth="yes"/>
      <point x="113" y="563"/>
      <point x="85" y="529"/>
      <point x="85" y="483" type="curve" smooth="yes"/>
      <point x="85" y="463" type="line" smooth="yes"/>
      <point x="85" y="417"/>
      <point x="113" y="383"/>
    </contour>
  </outline>
</glyph>
<glyph name="uni0040" format="2">
  <advance width="947"/>
  <unicode hex="0040"/>
  <outline>
    <contour>
      <point x="703" y="-125" type="line"/>
      <point x="703" y="-37" type="line"/>
      <point x="483" y="-37" type="line" smooth="yes"/>
      <point x="285" y="-37"/>
      <point x="157" y="94"/>
      <point x="157" y="287" type="curve" smooth="yes"/>
      <point x="157" y="329" type="line" smooth="yes"/>
      <point x="157" y="522"/>
      <point x="286" y="659"/>
      <point x="484" y="659" type="curve" smooth="yes"/>
      <point x="664" y="659"/>
      <point x="793" y="550"/>
      <point x="793" y="368" type="curve" smooth="yes"/>
      <point x="793" y="337" type="line" smooth="yes"/>
      <point x="793" y="227"/>
      <point x="760" y="172"/>
      <point x="709" y="172" type="curve" smooth="yes"/>
      <point x="677" y="172"/>
      <point x="661" y="194"/>
      <point x="661" y="233" type="curve" smooth="yes"/>
      <point x="661" y="521" type="line"/>
      <point x="550" y="521" type="line"/>
      <point x="550" y="448" type="line"/>
      <point x="545" y="448" type="line"/>
      <point x="532" y="493"/>
      <point x="494" y="529"/>
      <point x="436" y="529" type="curve" smooth="yes"/>
      <point x="342" y="529"/>
      <point x="271" y="454"/>
      <point x="271" y="311" type="curve" smooth="yes"/>
      <point x="271" y="166"/>
      <point x="342" y="91"/>
      <point x="436" y="91" type="curve" smooth="yes"/>
      <point x="504" y="91"/>
      <point x="543" y="130"/>
      <point x="557" y="187" type="curve"/>
      <point x="562" y="187" type="line"/>
      <point x="566" y="128"/>
      <point x="615" y="84"/>
      <point x="691" y="84" type="curve" smooth="yes"/>
      <point x="813" y="84"/>
      <point x="886" y="187"/>
      <point x="886" y="352" type="curve" smooth="yes"/>
      <point x="886" y="597"/>
      <point x="721" y="746"/>
      <point x="484" y="746" type="curve" smooth="yes"/>
      <point x="227" y="746"/>
      <point x="64" y="564"/>
      <point x="64" y="308" type="curve" smooth="yes"/>
      <point x="64" y="50"/>
      <point x="220" y="-125"/>
      <point x="483" y="-125" type="curve" smooth="yes"/>
    </contour>
    <contour>
      <point x="476" y="182" type="curve" smooth="yes"/>
      <point x="420" y="182"/>
      <point x="387" y="219"/>
      <point x="387" y="274" type="curve" smooth="yes"/>
      <point x="387" y="346" type="line" smooth="yes"/>
      <point x="387" y="401"/>
      <point x="420" y="438"/>
      <point x="476" y="438" type="curve" smooth="yes"/>
      <point x="517" y="438"/>
      <point x="550" y="411"/>
      <point x="550" y="376" type="curve" smooth="yes"/>
      <point x="550" y="253" type="line" smooth="yes"/>
      <point x="550" y="217"/>
      <point x="515" y="182"/>
    </contour>
  </outline>
</glyph>
<glyph name="uni0042" format="2">
  <advance width="698"/>
  <unicode hex="0042"/>
  <outline>
    <contour>
      <point x="466" y="0" type="line" smooth="yes"/>
      <point x="574" y="0"/>
      <point x="655" y="93"/>
      <point x="655" y="209" type="curve" smooth="yes"/>
      <point x="655" y="335"/>
      <point x="560" y="381"/>
      <point x="493" y="381" type="curve"/>
      <point x="493" y="387" type="line"/>
      <point x="564" y="392"/>
      <point x="627" y="433"/>
      <point x="627" y="545" type="curve" smooth="yes"/>
      <point x="627" y="658"/>
      <point x="555" y="733"/>
      <point x="434" y="733" type="curve" smooth="yes"/>
      <point x="83" y="733" type="line"/>
      <point x="83" y="0" type="line"/>
    </contour>
    <contour>
      <point x="235" y="306" type="line"/>
      <point x="423" y="306" type="line" smooth="yes"/>
      <point x="469" y="306"/>
      <point x="497" y="281"/>
      <point x="497" y="235" type="curve" smooth="yes"/>
      <point x="497" y="201" type="line" smooth="yes"/>
      <point x="497" y="155"/>
      <point x="469" y="128"/>
      <point x="423" y="128" type="curve" smooth="yes"/>
      <point x="235" y="128" type="line"/>
    </contour>
    <contour>
      <point x="235" y="605" type="line"/>
      <point x="399" y="605" type="line" smooth="yes"/>
      <point x="444" y="605"/>
      <point x="471" y="577"/>
      <point x="471" y="533" type="curve" smooth="yes"/>
      <point x="471" y="502" type="line" smooth="yes"/>
      <point x="471" y="456"/>
      <point x="444" y="430"/>
      <point x="399" y="430" type="curve" smooth="yes"/>
      <point x="235" y="430" type="line"/>
    </contour>
  </outline>
</glyph>
<glyph name="uni0046" format="2">
  <advance width="611"/>
  <unicode hex="0046"/>
  <outline>
    <contour>
      <point x="235" y="304" type="line"/>
      <point x="517" y="304" type="line"/>
      <point x="517" y="438" type="line"/>
      <point x="235" y="438" type="line"/>
      <point x="235" y="598" type="line"/>
      <point x="563" y="598" type="line"/>
      <point x="563" y="733" type="line"/>
      <point x="83" y="733" type="line"/>
      <point x="83" y="0" type="line"/>
      <point x="235" y="0" type="line"/>
    </contour>
  </outline>
</glyph>
<glyph name="uni004F" format="2">
  <advance width="749"/>
  <unicode hex="004F"/>
  <outline>
    <contour>
      <point x="375" y="-13" type="curve" smooth="yes"/>
      <point x="568" y="-13"/>
      <point x="695" y="118"/>
      <point x="695" y="366" type="curve" smooth="yes"/>
      <point x="695" y="615"/>
      <point x="568" y="746"/>
      <point x="375" y="746" type="curve" smooth="yes"/>
      <point x="181" y="746"/>
      <point x="54" y="615"/>
      <point x="54" y="366" type="curve" smooth="yes"/>
      <point x="54" y="118"/>
      <point x="181" y="-13"/>
    </contour>
    <contour>
      <point x="375" y="122" type="curve" smooth="yes"/>
      <point x="276" y="122"/>
      <point x="215" y="191"/>
      <point x="215" y="311" type="curve" smooth="yes"/>
      <point x="215" y="422" type="line" smooth="yes"/>
      <point x="215" y="542"/>
      <point x="276" y="611"/>
      <point x="375" y="611" type="curve" smooth="yes"/>
      <point x="472" y="611"/>
      <point x="534" y="542"/>
      <point x="534" y="422" type="curve" smooth="yes"/>
      <point x="534" y="311" type="line" smooth="yes"/>
      <point x="534" y="191"/>
      <point x="472" y="122"/>
    </contour>
  </outline>
</glyph>
<glyph name="uni0051" format="2">
  <advance width="749"/>
  <unicode hex="0051"/>
  <outline>
    <contour>
      <point x="566" y="-191" type="line"/>
      <point x="566" y="-67" type="line"/>
      <point x="453" y="-67" type="line"/>
      <point x="453" y="-5" type="line"/>
      <point x="602" y="26"/>
      <point x="695" y="153"/>
      <point x="695" y="366" type="curve" smooth="yes"/>
      <point x="695" y="615"/>
      <point x="568" y="746"/>
      <point x="375" y="746" type="curve" smooth="yes"/>
      <point x="181" y="746"/>
      <point x="54" y="615"/>
      <point x="54" y="366" type="curve" smooth="yes"/>
      <point x="54" y="147"/>
      <point x="153" y="19"/>
      <point x="311" y="-8" type="curve"/>
      <point x="311" y="-44" type="line" smooth="yes"/>
      <point x="311" y="-139"/>
      <point x="358" y="-191"/>
      <point x="465" y="-191" type="curve" smooth="yes"/>
    </contour>
    <contour>
      <point x="375" y="122" type="curve" smooth="yes"/>
      <point x="276" y="122"/>
      <point x="215" y="191"/>
      <point x="215" y="311" type="curve" smooth="yes"/>
      <point x="215" y="422" type="line" smooth="yes"/>
      <point x="215" y="542"/>
      <point x="276" y="611"/>
      <point x="375" y="611" type="curve" smooth="yes"/>
      <point x="472" y="611"/>
      <point x="534" y="542"/>
      <point x="534" y="422" type="curve" smooth="yes"/>
      <point x="534" y="311" type="line" smooth="yes"/>
      <point x="534" y="191"/>
      <point x="472" y="122"/>
    </contour>
  </outline>
</glyph>
<glyph name="uni0053" format="2">
  <advance width="650"/>
  <unicode hex="0053"/>
  <outline>
    <contour>
      <point x="316" y="-13" type="curve" smooth="yes"/>
      <point x="496" y="-13"/>
      <point x="599" y="84"/>
      <point x="599" y="224" type="curve" smooth="yes"/>
      <point x="599" y="348"/>
      <point x="527" y="414"/>
      <point x="378" y="440" type="curve" smooth="yes"/>
      <point x="307" y="452" type="line" smooth="yes"/>
      <point x="242" y="462"/>
      <point x="214" y="483"/>
      <point x="214" y="535" type="curve" smooth="yes"/>
      <point x="214" y="584"/>
      <point x="251" y="612"/>
      <point x="325" y="612" type="curve" smooth="yes"/>
      <point x="401" y="612"/>
      <point x="449" y="583"/>
      <point x="485" y="541" type="curve"/>
      <point x="586" y="641" type="line"/>
      <point x="527" y="708"/>
      <point x="444" y="746"/>
      <point x="334" y="746" type="curve" smooth="yes"/>
      <point x="165" y="746"/>
      <point x="62" y="656"/>
      <point x="62" y="526" type="curve" smooth="yes"/>
      <point x="62" y="404"/>
      <point x="133" y="330"/>
      <point x="285" y="309" type="curve" smooth="yes"/>
      <point x="356" y="299" type="line" smooth="yes"/>
      <point x="427" y="289"/>
      <point x="447" y="258"/>
      <point x="447" y="215" type="curve" smooth="yes"/>
      <point x="447" y="158"/>
      <point x="407" y="121"/>
      <point x="326" y="121" type="curve" smooth="yes"/>
      <point x="253" y="121"/>
      <point x="190" y="150"/>
      <point x="141" y="207" type="curve"/>
      <point x="40" y="107" type="line"/>
      <point x="103" y="37"/>
      <point x="190" y="-13"/>
    </contour>
  </outline>
</glyph>
<glyph name="uni0054" format="2">
  <advance width="612"/>
  <unicode hex="0054"/>
  <outline>
    <contour>
      <point x="585" y="733" type="line"/>
      <point x="27" y="733" type="line"/>
      <point x="27" y="598" type="line"/>
      <point x="230" y="598" type="line"/>
      <point x="230" y="0" type="line"/>
      <point x="382" y="0" type="line"/>
      <point x="382" y="598" type="line"/>
      <point x="585" y="598" type="line"/>
    </contour>
  </outline>
</glyph>
<glyph name="uni0058" format="2">
  <advance width="700"/>
  <unicode hex="0058"/>
  <outline>
    <contour>
      <point x="340" y="274" type="line"/>
      <point x="344" y="274" type="line"/>
      <point x="506" y="0" type="line"/>
      <point x="682" y="0" type="line"/>
      <point x="444" y="376" type="line"/>
      <point x="670" y="733" type="line"/>
      <point x="506" y="733" type="line"/>
      <point x="356" y="480" type="line"/>
      <point x="353" y="480" type="line"/>
      <point x="205" y="733" type="line"/>
      <point x="28" y="733" type="line"/>
      <point x="254" y="378" type="line"/>
      <point x="18" y="0" type="line"/>
      <point x="182" y="0" type="line"/>
    </contour>
  </outline>
</glyph>
<glyph name="uni005B" format="2">
  <advance width="350"/>
  <unicode hex="005B"/>
  <outline>
    <contour>
      <point x="295" y="-145" type="line"/>
      <point x="295" y="-41" type="line"/>
      <point x="219" y="-41" type="line"/>
      <point x="219" y="694" type="line"/>
      <point x="295" y="694" type="line"/>
      <point x="295" y="798" type="line"/>
      <point x="82" y="798" type="line"/>
      <point x="82" y="-145" type="line"/>
    </contour>
  </outline>
</glyph>
<glyph name="uni005D" format="2">
  <advance width="350"/>
  <unicode hex="005D"/>
  <outline>
    <contour>
      <point x="268" y="798" type="line"/>
      <point x="55" y="798" type="line"/>
      <point x="55" y="694" type="line"/>
      <point x="131" y="694" type="line"/>
      <point x="131" y="-41" type="line"/>
      <point x="55" y="-41" type="line"/>
      <point x="55" y="-145" type="line"/>
      <point x="268" y="-145" type="line"/>
    </contour>
  </outline>
</glyph>
<glyph name="uni0069" format="2">
  <advance width="296"/>
  <unicode hex="0069"/>
  <outline>
    <contour>
      <point x="222" y="0" type="line"/>
      <point x="222" y="550" type="line"/>
      <point x="74" y="550" type="line"/>
      <point x="74" y="0" type="line"/>
    </contour>
    <contour>
      <point x="148" y="617" type="curve" smooth="yes"/>
      <point x="208" y="617"/>
      <point x="234" y="648"/>
      <point x="234" y="690" type="curve" smooth="yes"/>
      <point x="234" y="712" type="line" smooth="yes"/>
      <point x="234" y="754"/>
      <point x="208" y="785"/>
      <point x="148" y="785" type="curve" smooth="yes"/>
      <point x="88" y="785"/>
      <point x="62" y="754"/>
      <point x="62" y="712" type="curve" smooth="yes"/>
      <point x="62" y="690" type="line" smooth="yes"/>
      <point x="62" y="648"/>
      <point x="88" y="617"/>
    </contour>
  </outline>
</glyph>
<glyph name="uni006A" format="2">
  <advance width="296"/>
  <unicode hex="006A"/>
  <outline>
    <contour>
      <point x="70" y="-210" type="line" smooth="yes"/>
      <point x="176" y="-210"/>
      <point x="222" y="-156"/>
      <point x="222" y="-62" type="curve" smooth="yes"/>
      <point x="222" y="550" type="line"/>
      <point x="74" y="550" type="line"/>
      <point x="74" y="-95" type="line"/>
      <point x="-8" y="-95" type="line"/>
      <point x="-8" y="-210" type="line"/>
    </contour>
    <contour>
      <point x="148" y="617" type="curve" smooth="yes"/>
      <point x="208" y="617"/>
      <point x="234" y="648"/>
      <point x="234" y="690" type="curve" smooth="yes"/>
      <point x="234" y="712" type="line" smooth="yes"/>
      <point x="234" y="754"/>
      <point x="208" y="785"/>
      <point x="148" y="785" type="curve" smooth="yes"/>
      <point x="88" y="785"/>
      <point x="62" y="754"/>
      <point x="62" y="712" type="curve" smooth="yes"/>
      <point x="62" y="690" type="line" smooth="yes"/>
      <point x="62" y="648"/>
      <point x="88" y="617"/>
    </contour>
  </outline>
</glyph>
<glyph name="uni006B" format="2">
  <advance width="600"/>
  <unicode hex="006B"/>
  <outline>
    <contour>
      <point x="222" y="0" type="line"/>
      <point x="222" y="159" type="line"/>
      <point x="292" y="238" type="line"/>
      <point x="419" y="0" type="line"/>
      <point x="595" y="0" type="line"/>
      <point x="391" y="339" type="line"/>
      <point x="577" y="550" type="line"/>
      <point x="413" y="550" type="line"/>
      <point x="297" y="415" type="line"/>
      <point x="227" y="314" type="line"/>
      <point x="222" y="314" type="line"/>
      <point x="222" y="777" type="line"/>
      <point x="74" y="777" type="line"/>
      <point x="74" y="0" type="line"/>
    </contour>
  </outline>
</glyph>
<glyph name="uni007A" format="2">
  <advance width="537"/>
  <unicode hex="007A"/>
  <outline>
    <contour>
      <point x="497" y="115" type="line"/>
      <point x="211" y="115" type="line"/>
      <point x="490" y="435" type="line"/>
      <point x="490" y="550" type="line"/>
      <point x="49" y="550" type="line"/>
      <point x="49" y="435" type="line"/>
      <point x="318" y="435" type="line"/>
      <point x="40" y="117" type="line"/>
      <point x="40" y="0" type="line"/>
      <point x="497" y="0" type="line"/>
    </contour>
  </outline>
</glyph>
<glyph name="uni007C" format="2">
  <advance width="422"/>
  <unicode hex="007C"/>
  <outline>
    <contour>
      <point x="274" y="-145" type="line"/>
      <point x="274" y="798" type="line"/>
      <point x="148" y="798" type="line"/>
      <point x="148" y="-145" type="line"/>
    </contour>
  </outline>
</glyph>
<glyph name="uni007D" format="2">
  <advance width="391"/>
  <unicode hex="007D"/>
  <outline>
    <contour>
      <point x="166" y="-142" type="line" smooth="yes"/>
      <point x="223" y="-142"/>
      <point x="266" y="-104"/>
      <point x="266" y="-38" type="curve" smooth="yes"/>
      <point x="266" y="179" type="line" smooth="yes"/>
      <point x="266" y="240"/>
      <point x="309" y="273"/>
      <point x="368" y="273" type="curve"/>
      <point x="368" y="386" type="line"/>
      <point x="309" y="386"/>
      <point x="266" y="419"/>
      <point x="266" y="480" type="curve" smooth="yes"/>
      <point x="266" y="697" type="line" smooth="yes"/>
      <point x="266" y="763"/>
      <point x="223" y="801"/>
      <point x="166" y="801" type="curve" smooth="yes"/>
      <point x="54" y="801" type="line"/>
      <point x="54" y="697" type="line"/>
      <point x="129" y="697" type="line"/>
      <point x="129" y="464" type="line" smooth="yes"/>
      <point x="129" y="396"/>
      <point x="179" y="341"/>
      <point x="238" y="330" type="curve"/>
      <point x="238" y="326" type="line"/>
      <point x="179" y="315"/>
      <point x="129" y="260"/>
      <point x="129" y="192" type="curve" smooth="yes"/>
      <point x="129" y="-38" type="line"/>
      <point x="54" y="-38" type="line"/>
      <point x="54" y="-142" type="line"/>
    </contour>
  </outline>
</glyph>
<glyph name="uni00A5" format="2">
  <advance width="678"/>
  <unicode hex="00A5"/>
  <outline>
    <contour>
      <point x="413" y="0" type="line"/>
      <point x="413" y="142" type="line"/>
      <point x="590" y="142" type="line"/>
      <point x="590" y="232" type="line"/>
      <point x="413" y="232" type="line"/>
      <point x="413" y="308" type="line"/>
      <point x="590" y="308" type="line"/>
      <point x="590" y="398" type="line"/>
      <point x="471" y="398" type="line"/>
      <point x="656" y="733" type="line"/>
      <point x="493" y="733" type="line"/>
      <point x="345" y="438" type="line"/>
      <point x="343" y="438" type="line"/>
      <point x="194" y="733" type="line"/>
      <point x="22" y="733" type="line"/>
      <point x="202" y="398" type="line"/>
      <point x="83" y="398" type="line"/>
      <point x="83" y="308" type="line"/>
      <point x="260" y="308" type="line"/>
      <point x="260" y="232" type="line"/>
      <point x="83" y="232" type="line"/>
      <point x="83" y="142" type="line"/>
      <point x="260" y="142" type="line"/>
      <point x="260" y="0" type="line"/>
    </contour>
  </outline>
</glyph>
<glyph name="uni00A8" format="2">
  <advance width="630"/>
  <unicode hex="00A8"/>
  <outline>
    <contour>
      <point x="205" y="634" type="curve" smooth="yes"/>
      <point x="265" y="634"/>
      <point x="285" y="662"/>
      <point x="285" y="697" type="curve" smooth="yes"/>
      <point x="285" y="722" type="line" smooth="yes"/>
      <point x="285" y="757"/>
      <point x="265" y="785"/>
      <point x="205" y="785" type="curve" smooth="yes"/>
      <point x="145" y="785"/>
      <point x="125" y="757"/>
      <point x="125" y="722" type="curve" smooth="yes"/>
      <point x="125" y="697" type="line" smooth="yes"/>
      <point x="125" y="662"/>
      <point x="145" y="634"/>
    </contour>
    <contour>
      <point x="425" y="634" type="curve" smooth="yes"/>
      <point x="485" y="634"/>
      <point x="505" y="662"/>
      <point x="505" y="697" type="curve" smooth="yes"/>
      <point x="505" y="722" type="line" smooth="yes"/>
      <point x="505" y="757"/>
      <point x="485" y="785"/>
      <point x="425" y="785" type="curve" smooth="yes"/>
      <point x="365" y="785"/>
      <point x="345" y="757"/>
      <point x="345" y="722" type="curve" smooth="yes"/>
      <point x="345" y="697" type="line" smooth="yes"/>
      <point x="345" y="662"/>
      <point x="365" y="634"/>
    </contour>
  </outline>
</glyph>
<glyph name="uni00A9" format="2">
  <advance width="831"/>
  <unicode hex="00A9"/>
  <outline>
    <contour>
      <point x="416" y="-13" type="curve" smooth="yes"/>
      <point x="628" y="-13"/>
      <point x="780" y="132"/>
      <point x="780" y="366" type="curve" smooth="yes"/>
      <point x="780" y="601"/>
      <point x="628" y="746"/>
      <point x="416" y="746" type="curve" smooth="yes"/>
      <point x="203" y="746"/>
      <point x="51" y="601"/>
      <point x="51" y="366" type="curve" smooth="yes"/>
      <point x="51" y="132"/>
      <point x="203" y="-13"/>
    </contour>
    <contour>
      <point x="423" y="143" type="curve" smooth="yes"/>
      <point x="534" y="143"/>
      <point x="589" y="197"/>
      <point x="619" y="260" type="curve"/>
      <point x="519" y="310" type="line"/>
      <point x="500" y="273"/>
      <point x="470" y="246"/>
      <point x="423" y="246" type="curve" smooth="yes"/>
      <point x="375" y="246"/>
      <point x="345" y="276"/>
      <point x="345" y="324" type="curve" smooth="yes"/>
      <point x="345" y="408" type="line" smooth="yes"/>
      <point x="345" y="457"/>
      <point x="375" y="487"/>
      <point x="423" y="487" type="curve" smooth="yes"/>
      <point x="471" y="487"/>
      <point x="493" y="462"/>
      <point x="511" y="423" type="curve"/>
      <point x="610" y="474" type="line"/>
      <point x="582" y="543"/>
      <point x="523" y="590"/>
      <point x="423" y="590" type="curve" smooth="yes"/>
      <point x="289" y="590"/>
      <point x="208" y="502"/>
      <point x="208" y="366" type="curve" smooth="yes"/>
      <point x="208" y="231"/>
      <point x="289" y="143"/>
    </contour>
    <contour>
      <point x="416" y="51" type="curve" smooth="yes"/>
      <point x="247" y="51"/>
      <point x="125" y="173"/>
      <point x="125" y="331" type="curve" smooth="yes"/>
      <point x="125" y="402" type="line" smooth="yes"/>
      <point x="125" y="560"/>
      <point x="247" y="682"/>
      <point x="416" y="682" type="curve" smooth="yes"/>
      <point x="584" y="682"/>
      <point x="706" y="560"/>
      <point x="706" y="402" type="curve" smooth="yes"/>
      <point x="706" y="331" type="line" smooth="yes"/>
      <point x="706" y="173"/>
      <point x="584" y="51"/>
    </contour>
  </outline>
</glyph>
<glyph name="uni00AE" format="2">
  <advance width="488"/>
  <unicode hex="00AE"/>
  <outline>
    <contour>
      <point x="244" y="313" type="curve" smooth="yes"/>
      <point x="362" y="313"/>
      <point x="455" y="405"/>
      <point x="455" y="529" type="curve" smooth="yes"/>
      <point x="455" y="654"/>
      <point x="362" y="746"/>
      <point x="244" y="746" type="curve" smooth="yes"/>
      <point x="126" y="746"/>
      <point x="33" y="654"/>
      <point x="33" y="529" type="curve" smooth="yes"/>
      <point x="33" y="405"/>
      <point x="126" y="313"/>
    </contour>
    <contour>
      <point x="244" y="359" type="curve" smooth="yes"/>
      <point x="159" y="359"/>
      <point x="87" y="416"/>
      <point x="87" y="512" type="curve" smooth="yes"/>
      <point x="87" y="547" type="line" smooth="yes"/>
      <point x="87" y="643"/>
      <point x="159" y="700"/>
      <point x="244" y="700" type="curve" smooth="yes"/>
      <point x="329" y="700"/>
      <point x="401" y="643"/>
      <point x="401" y="547" type="curve" smooth="yes"/>
      <point x="401" y="512" type="line" smooth="yes"/>
      <point x="401" y="416"/>
      <point x="329" y="359"/>
    </contour>
    <contour>
      <point x="217" y="420" type="line"/>
      <point x="217" y="485" type="line"/>
      <point x="246" y="485" type="line"/>
      <point x="279" y="420" type="line"/>
      <point x="348" y="420" type="line"/>
      <point x="303" y="497" type="line"/>
      <point x="328" y="507"/>
      <point x="342" y="530"/>
      <point x="342" y="566" type="curve" smooth="yes"/>
      <point x="342" y="607"/>
      <point x="317" y="638"/>
      <point x="259" y="638" type="curve" smooth="yes"/>
      <point x="153" y="638" type="line"/>
      <point x="153" y="420" type="line"/>
    </contour>
    <contour>
      <point x="217" y="532" type="line"/>
      <point x="217" y="590" type="line"/>
      <point x="246" y="590" type="line" smooth="yes"/>
      <point x="266" y="590"/>
      <point x="277" y="583"/>
      <point x="277" y="565" type="curve" smooth="yes"/>
      <point x="277" y="558" type="line" smooth="yes"/>
      <point x="277" y="540"/>
      <point x="266" y="532"/>
      <point x="246" y="532" type="curve" smooth="yes"/>
    </contour>
  </outline>
</glyph>
<glyph name="uni00B7.hwid" format="2">
  <advance width="500"/>
  <unicode hex="00B7"/>
  <anchor x="500" y="61" name="BSB"/>
  <anchor x="500" y="581" name="TSB"/>
  <outline>
    <contour>
      <point x="250" y="231" type="curve" smooth="yes"/>
      <point x="310" y="231"/>
      <point x="338" y="265"/>
      <point x="338" y="311" type="curve" smooth="yes"/>
      <point x="338" y="331" type="line" smooth="yes"/>
      <point x="338" y="377"/>
      <point x="310" y="411"/>
      <point x="250" y="411" type="curve" smooth="yes"/>
      <point x="190" y="411"/>
      <point x="162" y="377"/>
      <point x="162" y="331" type="curve" smooth="yes"/>
      <point x="162" y="311" type="line" smooth="yes"/>
      <point x="162" y="265"/>
      <point x="190" y="231"/>
    </contour>
  </outline>
</glyph>
<glyph name="uni00D7" format="2">
  <advance width="630"/>
  <unicode hex="00D7"/>
  <outline>
    <contour>
      <point x="315" y="233" type="line"/>
      <point x="463" y="77" type="line"/>
      <point x="545" y="159" type="line"/>
      <point x="397" y="314" type="line"/>
      <point x="545" y="469" type="line"/>
      <point x="463" y="551" type="line"/>
      <point x="315" y="395" type="line"/>
      <point x="167" y="551" type="line"/>
      <point x="85" y="469" type="line"/>
      <point x="233" y="314" type="line"/>
      <point x="85" y="159" type="line"/>
      <point x="167" y="77" type="line"/>
    </contour>
  </outline>
</glyph>
<glyph name="uni00ED" format="2">
  <advance width="296"/>
  <unicode hex="00ED"/>
  <outline>
    <contour>
      <point x="222" y="0" type="line"/>
      <point x="222" y="550" type="line"/>
      <point x="74" y="550" type="line"/>
      <point x="74" y="0" type="line"/>
    </contour>
    <contour>
      <point x="300" y="792" type="line"/>
      <point x="178" y="853" type="line"/>
      <point x="75" y="653" type="line"/>
      <point x="164" y="609" type="line"/>
    </contour>
  </outline>
</glyph>
<glyph name="uni00FA" format="2">
  <advance width="623"/>
  <unicode hex="00FA"/>
  <outline>
    <contour>
      <point x="243" y="-13" type="curve" smooth="yes"/>
      <point x="329" y="-13"/>
      <point x="375" y="34"/>
      <point x="396" y="92" type="curve"/>
      <point x="401" y="92" type="line"/>
      <point x="401" y="0" type="line"/>
      <point x="549" y="0" type="line"/>
      <point x="549" y="550" type="line"/>
      <point x="401" y="550" type="line"/>
      <point x="401" y="191" type="line" smooth="yes"/>
      <point x="401" y="134"/>
      <point x="352" y="107"/>
      <point x="299" y="107" type="curve" smooth="yes"/>
      <point x="240" y="107"/>
      <point x="217" y="144"/>
      <point x="217" y="217" type="curve" smooth="yes"/>
      <point x="217" y="550" type="line"/>
      <point x="69" y="550" type="line"/>
      <point x="69" y="205" type="line" smooth="yes"/>
      <point x="69" y="67"/>
      <point x="130" y="-13"/>
    </contour>
    <contour>
      <point x="461" y="792" type="line"/>
      <point x="339" y="853" type="line"/>
      <point x="236" y="653" type="line"/>
      <point x="325" y="609" type="line"/>
    </contour>
  </outline>
</glyph>
<glyph name="uni00FC" format="2">
  <advance width="623"/>
  <unicode hex="00FC"/>
  <outline>
    <contour>
      <point x="243" y="-13" type="curve" smooth="yes"/>
      <point x="329" y="-13"/>
      <point x="375" y="34"/>
      <point x="396" y="92" type="curve"/>
      <point x="401" y="92" type="line"/>
      <point x="401" y="0" type="line"/>
      <point x="549" y="0" type="line"/>
      <point x="549" y="550" type="line"/>
      <point x="401" y="550" type="line"/>
      <point x="401" y="191" type="line" smooth="yes"/>
      <point x="401" y="134"/>
      <point x="352" y="107"/>
      <point x="299" y="107" type="curve" smooth="yes"/>
      <point x="240" y="107"/>
      <point x="217" y="144"/>
      <point x="217" y="217" type="curve" smooth="yes"/>
      <point x="217" y="550" type="line"/>
      <point x="69" y="550" type="line"/>
      <point x="69" y="205" type="line" smooth="yes"/>
      <point x="69" y="67"/>
      <point x="130" y="-13"/>
    </contour>
    <contour>
      <point x="199" y="635" type="curve" smooth="yes"/>
      <point x="259" y="635"/>
      <point x="279" y="663"/>
      <point x="279" y="698" type="curve" smooth="yes"/>
      <point x="279" y="723" type="line" smooth="yes"/>
      <point x="279" y="758"/>
      <point x="259" y="786"/>
      <point x="199" y="786" type="curve" smooth="yes"/>
      <point x="139" y="786"/>
      <point x="119" y="758"/>
      <point x="119" y="723" type="curve" smooth="yes"/>
      <point x="119" y="698" type="line" smooth="yes"/>
      <point x="119" y="663"/>
      <point x="139" y="635"/>
    </contour>
    <contour>
      <point x="419" y="635" type="curve" smooth="yes"/>
      <point x="479" y="635"/>
      <point x="499" y="663"/>
      <point x="499" y="698" type="curve" smooth="yes"/>
      <point x="499" y="723" type="line" smooth="yes"/>
      <point x="499" y="758"/>
      <point x="479" y="786"/>
      <point x="419" y="786" type="curve" smooth="yes"/>
      <point x="359" y="786"/>
      <point x="339" y="758"/>
      <point x="339" y="723" type="curve" smooth="yes"/>
      <point x="339" y="698" type="line" smooth="yes"/>
      <point x="339" y="663"/>
      <point x="359" y="635"/>
    </contour>
  </outline>
</glyph>
<glyph name="uni012B" format="2">
  <advance width="300"/>
  <unicode hex="012B"/>
  <outline>
    <contour>
      <point x="224" y="0" type="line"/>
      <point x="224" y="550" type="line"/>
      <point x="76" y="550" type="line"/>
      <point x="76" y="0" type="line"/>
    </contour>
    <contour>
      <point x="310" y="655" type="line"/>
      <point x="310" y="763" type="line"/>
      <point x="-11" y="763" type="line"/>
      <point x="-11" y="655" type="line"/>
    </contour>
  </outline>
</glyph>
<glyph name="uni0144" format="2">
  <advance width="623"/>
  <unicode hex="0144"/>
  <outline>
    <contour>
      <point x="222" y="0" type="line"/>
      <point x="222" y="359" type="line" smooth="yes"/>
      <point x="222" y="416"/>
      <point x="271" y="443"/>
      <point x="324" y="443" type="curve" smooth="yes"/>
      <point x="383" y="443"/>
      <point x="406" y="406"/>
      <point x="406" y="333" type="curve" smooth="yes"/>
      <point x="406" y="0" type="line"/>
      <point x="554" y="0" type="line"/>
      <point x="554" y="345" type="line" smooth="yes"/>
      <point x="554" y="483"/>
      <point x="493" y="563"/>
      <point x="380" y="563" type="curve" smooth="yes"/>
      <point x="294" y="563"/>
      <point x="248" y="516"/>
      <point x="227" y="458" type="curve"/>
      <point x="222" y="458" type="line"/>
      <point x="222" y="550" type="line"/>
      <point x="74" y="550" type="line"/>
      <point x="74" y="0" type="line"/>
    </contour>
    <contour>
      <point x="461" y="792" type="line"/>
      <point x="339" y="853" type="line"/>
      <point x="236" y="653" type="line"/>
      <point x="325" y="609" type="line"/>
    </contour>
  </outline>
</glyph>
<glyph name="uni0148" format="2">
  <advance width="623"/>
  <unicode hex="0148"/>
  <outline>
    <contour>
      <point x="222" y="0" type="line"/>
      <point x="222" y="359" type="line" smooth="yes"/>
      <point x="222" y="416"/>
      <point x="271" y="443"/>
      <point x="324" y="443" type="curve" smooth="yes"/>
      <point x="383" y="443"/>
      <point x="406" y="406"/>
      <point x="406" y="333" type="curve" smooth="yes"/>
      <point x="406" y="0" type="line"/>
      <point x="554" y="0" type="line"/>
      <point x="554" y="345" type="line" smooth="yes"/>
      <point x="554" y="483"/>
      <point x="493" y="563"/>
      <point x="380" y="563" type="curve" smooth="yes"/>
      <point x="294" y="563"/>
      <point x="248" y="516"/>
      <point x="227" y="458" type="curve"/>
      <point x="222" y="458" type="line"/>
      <point x="222" y="550" type="line"/>
      <point x="74" y="550" type="line"/>
      <point x="74" y="0" type="line"/>
    </contour>
    <contour>
      <point x="374" y="616" type="line"/>
      <point x="513" y="783" type="line"/>
      <point x="436" y="844" type="line"/>
      <point x="309" y="723" type="line"/>
      <point x="182" y="844" type="line"/>
      <point x="105" y="783" type="line"/>
      <point x="244" y="616" type="line"/>
    </contour>
  </outline>
</glyph>
<glyph name="uni0261" format="2">
  <advance width="638"/>
  <unicode hex="0261"/>
  <outline>
    <contour>
      <point x="562" y="550" type="line"/>
      <point x="414" y="550" type="line"/>
      <point x="414" y="458" type="line"/>
      <point x="409" y="458" type="line"/>
      <point x="391" y="520"/>
      <point x="332" y="563"/>
      <point x="260" y="563" type="curve" smooth="yes"/>
      <point x="121" y="563"/>
      <point x="47" y="461"/>
      <point x="47" y="281" type="curve" smooth="yes"/>
      <point x="47" y="102"/>
      <point x="121" y="0"/>
      <point x="260" y="0" type="curve" smooth="yes"/>
      <point x="332" y="0"/>
      <point x="391" y="42"/>
      <point x="409" y="105" type="curve"/>
      <point x="414" y="105" type="line"/>
      <point x="414" y="18" type="line" smooth="yes"/>
      <point x="414" y="-59"/>
      <point x="375" y="-107"/>
      <point x="292" y="-107" type="curve" smooth="yes"/>
      <point x="238" y="-107"/>
      <point x="194" y="-87"/>
      <point x="160" y="-50" type="curve"/>
      <point x="81" y="-144" type="line"/>
      <point x="123" y="-189"/>
      <point x="190" y="-223"/>
      <point x="295" y="-223" type="curve" smooth="yes"/>
      <point x="472" y="-223"/>
      <point x="562" y="-128"/>
      <point x="562" y="32" type="curve" smooth="yes"/>
    </contour>
    <contour>
      <point x="309" y="120" type="curve" smooth="yes"/>
      <point x="246" y="120"/>
      <point x="201" y="169"/>
      <point x="201" y="242" type="curve" smooth="yes"/>
      <point x="201" y="321" type="line" smooth="yes"/>
      <point x="201" y="394"/>
      <point x="246" y="443"/>
      <point x="309" y="443" type="curve" smooth="yes"/>
      <point x="370" y="443"/>
      <point x="414" y="410"/>
      <point x="414" y="359" type="curve" smooth="yes"/>
      <point x="414" y="205" type="line" smooth="yes"/>
      <point x="414" y="152"/>
      <point x="370" y="120"/>
    </contour>
  </outline>
</glyph>
<glyph name="uni02C9" format="2">
  <advance width="630"/>
  <unicode hex="02C9"/>
  <outline>
    <contour>
      <point x="156" y="657" type="line"/>
      <point x="474" y="657" type="line"/>
      <point x="474" y="760" type="line"/>
      <point x="156" y="760" type="line"/>
    </contour>
  </outline>
</glyph>
<glyph name="uni02DC" format="2">
  <advance width="630"/>
  <unicode hex="02DC"/>
  <unicode hex="0303"/>
  <outline>
    <contour>
      <point x="396" y="635" type="curve" smooth="yes"/>
      <point x="450" y="635"/>
      <point x="488" y="665"/>
      <point x="513" y="702" type="curve"/>
      <point x="461" y="770" type="line"/>
      <point x="439" y="752"/>
      <point x="423" y="744"/>
      <point x="399" y="744" type="curve" smooth="yes"/>
      <point x="373" y="744"/>
      <point x="348" y="754"/>
      <point x="318" y="767" type="curve" smooth="yes"/>
      <point x="292" y="778"/>
      <point x="268" y="789"/>
      <point x="235" y="789" type="curve" smooth="yes"/>
      <point x="181" y="789"/>
      <point x="143" y="759"/>
      <point x="118" y="722" type="curve"/>
      <point x="170" y="654" type="line"/>
      <point x="192" y="672"/>
      <point x="208" y="680"/>
      <point x="232" y="680" type="curve" smooth="yes"/>
      <point x="258" y="680"/>
      <point x="283" y="670"/>
      <point x="313" y="657" type="curve" smooth="yes"/>
      <point x="339" y="646"/>
      <point x="363" y="635"/>
    </contour>
  </outline>
</glyph>
<glyph name="uni0301" format="2">
  <advance width="630"/>
  <unicode hex="0301"/>
  <outline>
    <contour>
      <point x="428" y="792" type="line"/>
      <point x="306" y="853" type="line"/>
      <point x="203" y="653" type="line"/>
      <point x="292" y="609" type="line"/>
    </contour>
  </outline>
</glyph>
<glyph name="uni0391" format="2">
  <advance width="719"/>
  <unicode hex="0391"/>
  <outline>
    <contour>
      <point x="178" y="0" type="line"/>
      <point x="232" y="179" type="line"/>
      <point x="483" y="179" type="line"/>
      <point x="538" y="0" type="line"/>
      <point x="696" y="0" type="line"/>
      <point x="455" y="733" type="line"/>
      <point x="267" y="733" type="line"/>
      <point x="24" y="0" type="line"/>
    </contour>
    <contour>
      <point x="354" y="595" type="line"/>
      <point x="359" y="595" type="line"/>
      <point x="446" y="308" type="line"/>
      <point x="268" y="308" type="line"/>
    </contour>
  </outline>
</glyph>
<glyph name="uni0392" format="2">
  <advance width="700"/>
  <unicode hex="0392"/>
  <outline>
    <contour>
      <point x="467" y="0" type="line" smooth="yes"/>
      <point x="575" y="0"/>
      <point x="656" y="93"/>
      <point x="656" y="209" type="curve" smooth="yes"/>
      <point x="656" y="335"/>
      <point x="561" y="381"/>
      <point x="494" y="381" type="curve"/>
      <point x="494" y="387" type="line"/>
      <point x="565" y="392"/>
      <point x="628" y="433"/>
      <point x="628" y="545" type="curve" smooth="yes"/>
      <point x="628" y="658"/>
      <point x="556" y="733"/>
      <point x="435" y="733" type="curve" smooth="yes"/>
      <point x="84" y="733" type="line"/>
      <point x="84" y="0" type="line"/>
    </contour>
    <contour>
      <point x="236" y="306" type="line"/>
      <point x="424" y="306" type="line" smooth="yes"/>
      <point x="470" y="306"/>
      <point x="498" y="281"/>
      <point x="498" y="235" type="curve" smooth="yes"/>
      <point x="498" y="201" type="line" smooth="yes"/>
      <point x="498" y="155"/>
      <point x="470" y="128"/>
      <point x="424" y="128" type="curve" smooth="yes"/>
      <point x="236" y="128" type="line"/>
    </contour>
    <contour>
      <point x="236" y="605" type="line"/>
      <point x="400" y="605" type="line" smooth="yes"/>
      <point x="445" y="605"/>
      <point x="472" y="577"/>
      <point x="472" y="533" type="curve" smooth="yes"/>
      <point x="472" y="502" type="line" smooth="yes"/>
      <point x="472" y="456"/>
      <point x="445" y="430"/>
      <point x="400" y="430" type="curve" smooth="yes"/>
      <point x="236" y="430" type="line"/>
    </contour>
  </outline>
</glyph>
<glyph name="uni0396" format="2">
  <advance width="634"/>
  <unicode hex="0396"/>
  <outline>
    <contour>
      <point x="217" y="135" type="line"/>
      <point x="584" y="598" type="line"/>
      <point x="584" y="733" type="line"/>
      <point x="59" y="733" type="line"/>
      <point x="59" y="598" type="line"/>
      <point x="407" y="598" type="line"/>
      <point x="41" y="135" type="line"/>
      <point x="41" y="0" type="line"/>
      <point x="593" y="0" type="line"/>
      <point x="593" y="135" type="line"/>
    </contour>
  </outline>
</glyph>
<glyph name="uni0398" format="2">
  <advance width="760"/>
  <unicode hex="0398"/>
  <outline>
    <contour>
      <point x="380" y="-13" type="curve" smooth="yes"/>
      <point x="576" y="-13"/>
      <point x="703" y="117"/>
      <point x="703" y="367" type="curve" smooth="yes"/>
      <point x="703" y="616"/>
      <point x="576" y="746"/>
      <point x="380" y="746" type="curve" smooth="yes"/>
      <point x="183" y="746"/>
      <point x="56" y="616"/>
      <point x="56" y="367" type="curve" smooth="yes"/>
      <point x="56" y="117"/>
      <point x="183" y="-13"/>
    </contour>
    <contour>
      <point x="380" y="122" type="curve" smooth="yes"/>
      <point x="274" y="122"/>
      <point x="217" y="188"/>
      <point x="217" y="315" type="curve" smooth="yes"/>
      <point x="217" y="419" type="line" smooth="yes"/>
      <point x="217" y="545"/>
      <point x="274" y="611"/>
      <point x="380" y="611" type="curve" smooth="yes"/>
      <point x="485" y="611"/>
      <point x="542" y="545"/>
      <point x="542" y="419" type="curve" smooth="yes"/>
      <point x="542" y="315" type="line" smooth="yes"/>
      <point x="542" y="188"/>
      <point x="486" y="122"/>
    </contour>
    <contour>
      <point x="480" y="305" type="line"/>
      <point x="480" y="439" type="line"/>
      <point x="279" y="439" type="line"/>
      <point x="279" y="305" type="line"/>
    </contour>
  </outline>
</glyph>
<glyph name="uni039B" format="2">
  <advance width="705"/>
  <unicode hex="039B"/>
  <outline>
    <contour>
      <point x="263" y="733" type="line"/>
      <point x="25" y="0" type="line"/>
      <point x="179" y="0" type="line"/>
      <point x="288" y="352" type="line"/>
      <point x="348" y="589" type="line"/>
      <point x="351" y="589" type="line"/>
      <point x="412" y="352" type="line"/>
      <point x="522" y="0" type="line"/>
      <point x="680" y="0" type="line"/>
      <point x="442" y="733" type="line"/>
    </contour>
  </outline>
</glyph>
<glyph name="uni039E" format="2">
  <advance width="635"/>
  <unicode hex="039E"/>
  <outline>
    <contour>
      <point x="58" y="598" type="line"/>
      <point x="578" y="598" type="line"/>
      <point x="578" y="733" type="line"/>
      <point x="58" y="733" type="line"/>
    </contour>
    <contour>
      <point x="122" y="304" type="line"/>
      <point x="514" y="304" type="line"/>
      <point x="514" y="438" type="line"/>
      <point x="122" y="438" type="line"/>
    </contour>
    <contour>
      <point x="58" y="0" type="line"/>
      <point x="578" y="0" type="line"/>
      <point x="578" y="135" type="line"/>
      <point x="58" y="135" type="line"/>
    </contour>
  </outline>
</glyph>
<glyph name="uni03A3" format="2">
  <advance width="642"/>
  <unicode hex="03A3"/>
  <outline>
    <contour>
      <point x="587" y="0" type="line"/>
      <point x="587" y="134" type="line"/>
      <point x="225" y="134" type="line"/>
      <point x="471" y="373" type="line"/>
      <point x="245" y="599" type="line"/>
      <point x="587" y="599" type="line"/>
      <point x="587" y="733" type="line"/>
      <point x="56" y="733" type="line"/>
      <point x="56" y="598" type="line"/>
      <point x="286" y="367" type="line"/>
      <point x="46" y="135" type="line"/>
      <point x="46" y="0" type="line"/>
    </contour>
  </outline>
</glyph>
<glyph name="uni03A6" format="2">
  <advance width="890"/>
  <unicode hex="03A6"/>
  <outline>
    <contour>
      <point x="371" y="-53" type="line"/>
      <point x="519" y="-53" type="line"/>
      <point x="519" y="30" type="line"/>
      <point x="530" y="30" type="line" smooth="yes"/>
      <point x="724" y="30"/>
      <point x="845" y="161"/>
      <point x="845" y="366" type="curve" smooth="yes"/>
      <point x="845" y="569"/>
      <point x="724" y="700"/>
      <point x="530" y="700" type="curve" smooth="yes"/>
      <point x="519" y="700" type="line"/>
      <point x="519" y="770" type="line"/>
      <point x="371" y="770" type="line"/>
      <point x="371" y="700" type="line"/>
      <point x="361" y="700" type="line" smooth="yes"/>
      <point x="167" y="700"/>
      <point x="45" y="569"/>
      <point x="45" y="364" type="curve" smooth="yes"/>
      <point x="45" y="161"/>
      <point x="167" y="30"/>
      <point x="361" y="30" type="curve" smooth="yes"/>
      <point x="371" y="30" type="line"/>
    </contour>
    <contour>
      <point x="371" y="155" type="line"/>
      <point x="361" y="155" type="line" smooth="yes"/>
      <point x="275" y="155"/>
      <point x="201" y="220"/>
      <point x="201" y="333" type="curve" smooth="yes"/>
      <point x="201" y="395" type="line" smooth="yes"/>
      <point x="201" y="510"/>
      <point x="275" y="575"/>
      <point x="361" y="575" type="curve" smooth="yes"/>
      <point x="371" y="575" type="line"/>
    </contour>
    <contour>
      <point x="519" y="155" type="line"/>
      <point x="519" y="575" type="line"/>
      <point x="529" y="575" type="line" smooth="yes"/>
      <point x="615" y="575"/>
      <point x="689" y="510"/>
      <point x="689" y="395" type="curve" smooth="yes"/>
      <point x="689" y="333" type="line" smooth="yes"/>
      <point x="689" y="220"/>
      <point x="615" y="155"/>
      <point x="529" y="155" type="curve" smooth="yes"/>
    </contour>
  </outline>
</glyph>
<glyph name="uni03A8" format="2">
  <advance width="882"/>
  <unicode hex="03A8"/>
  <outline>
    <contour>
      <point x="364" y="0" type="line"/>
      <point x="518" y="0" type="line"/>
      <point x="518" y="188" type="line"/>
      <point x="720" y="190"/>
      <point x="809" y="306"/>
      <point x="809" y="492" type="curve" smooth="yes"/>
      <point x="809" y="733" type="line"/>
      <point x="657" y="733" type="line"/>
      <point x="657" y="492" type="line" smooth="yes"/>
      <point x="657" y="357"/>
      <point x="611" y="313"/>
      <point x="518" y="313" type="curve"/>
      <point x="518" y="733" type="line"/>
      <point x="364" y="733" type="line"/>
      <point x="364" y="313" type="line"/>
      <point x="270" y="313"/>
      <point x="226" y="357"/>
      <point x="226" y="492" type="curve" smooth="yes"/>
      <point x="226" y="733" type="line"/>
      <point x="74" y="733" type="line"/>
      <point x="74" y="492" type="line" smooth="yes"/>
      <point x="74" y="306"/>
      <point x="163" y="188"/>
      <point x="364" y="188" type="curve"/>
    </contour>
  </outline>
</glyph>
<glyph name="uni03B2" format="2">
  <advance width="639"/>
  <unicode hex="03B2"/>
  <outline>
    <contour>
      <point x="77" y="-210" type="line"/>
      <point x="225" y="-210" type="line"/>
      <point x="225" y="92" type="line"/>
      <point x="230" y="92" type="line"/>
      <point x="245" y="33"/>
      <point x="308" y="-13"/>
      <point x="384" y="-13" type="curve" smooth="yes"/>
      <point x="517" y="-13"/>
      <point x="590" y="87"/>
      <point x="590" y="228" type="curve" smooth="yes"/>
      <point x="590" y="330"/>
      <point x="532" y="387"/>
      <point x="433" y="399" type="curve"/>
      <point x="433" y="404" type="line"/>
      <point x="513" y="430"/>
      <point x="557" y="490"/>
      <point x="557" y="585" type="curve" smooth="yes"/>
      <point x="557" y="695"/>
      <point x="485" y="787"/>
      <point x="317" y="787" type="curve" smooth="yes"/>
      <point x="158" y="787"/>
      <point x="77" y="686"/>
      <point x="77" y="499" type="curve" smooth="yes"/>
    </contour>
    <contour>
      <point x="291" y="336" type="line"/>
      <point x="332" y="336" type="line" smooth="yes"/>
      <point x="401" y="336"/>
      <point x="441" y="301"/>
      <point x="441" y="246" type="curve" smooth="yes"/>
      <point x="441" y="210" type="line" smooth="yes"/>
      <point x="441" y="141"/>
      <point x="401" y="104"/>
      <point x="332" y="104" type="curve" smooth="yes"/>
      <point x="266" y="104"/>
      <point x="225" y="135"/>
      <point x="225" y="194" type="curve" smooth="yes"/>
      <point x="225" y="555" type="line" smooth="yes"/>
      <point x="225" y="630"/>
      <point x="261" y="670"/>
      <point x="317" y="670" type="curve" smooth="yes"/>
      <point x="380" y="670"/>
      <point x="408" y="631"/>
      <point x="408" y="568" type="curve" smooth="yes"/>
      <point x="408" y="537" type="line" smooth="yes"/>
      <point x="408" y="486"/>
      <point x="373" y="453"/>
      <point x="326" y="453" type="curve" smooth="yes"/>
      <point x="291" y="453" type="line"/>
    </contour>
  </outline>
</glyph>
<glyph name="uni03B3" format="2">
  <advance width="567"/>
  <unicode hex="03B3"/>
  <outline>
    <contour>
      <point x="207" y="-210" type="line"/>
      <point x="355" y="-210" type="line"/>
      <point x="355" y="0" type="line"/>
      <point x="555" y="549" type="line"/>
      <point x="415" y="549" type="line"/>
      <point x="334" y="306" type="line"/>
      <point x="289" y="150" type="line"/>
      <point x="281" y="150" type="line"/>
      <point x="245" y="306" type="line"/>
      <point x="208" y="437" type="line" smooth="yes"/>
      <point x="184" y="522"/>
      <point x="146" y="549"/>
      <point x="65" y="549" type="curve" smooth="yes"/>
      <point x="10" y="549" type="line"/>
      <point x="10" y="434" type="line"/>
      <point x="65" y="434" type="line"/>
      <point x="207" y="0" type="line"/>
    </contour>
  </outline>
</glyph>
<glyph name="uni03B6" format="2">
  <advance width="460"/>
  <unicode hex="03B6"/>
  <outline>
    <contour>
      <point x="61" y="665" type="line"/>
      <point x="223" y="665" type="line"/>
      <point x="313" y="675" type="line"/>
      <point x="311" y="670" type="line"/>
      <point x="177" y="506" type="line" smooth="yes"/>
      <point x="66" y="370"/>
      <point x="38" y="308"/>
      <point x="38" y="216" type="curve" smooth="yes"/>
      <point x="38" y="119"/>
      <point x="86" y="52"/>
      <point x="223" y="11" type="curve" smooth="yes"/>
      <point x="303" y="-13" type="line"/>
      <point x="253" y="-136" type="line"/>
      <point x="373" y="-181" type="line"/>
      <point x="430" y="-43" type="line" smooth="yes"/>
      <point x="439" y="-22"/>
      <point x="442" y="-4"/>
      <point x="442" y="14" type="curve" smooth="yes"/>
      <point x="442" y="64"/>
      <point x="413" y="98"/>
      <point x="353" y="115" type="curve" smooth="yes"/>
      <point x="267" y="139" type="line" smooth="yes"/>
      <point x="213" y="154"/>
      <point x="192" y="189"/>
      <point x="192" y="235" type="curve" smooth="yes"/>
      <point x="192" y="249" type="line" smooth="yes"/>
      <point x="192" y="296"/>
      <point x="214" y="344"/>
      <point x="271" y="420" type="curve" smooth="yes"/>
      <point x="454" y="664" type="line"/>
      <point x="454" y="780" type="line"/>
      <point x="61" y="780" type="line"/>
    </contour>
  </outline>
</glyph>
<glyph name="uni03B7" format="2">
  <advance width="640"/>
  <unicode hex="03B7"/>
  <outline>
    <contour>
      <point x="240" y="0" type="line"/>
      <point x="240" y="356" type="line" smooth="yes"/>
      <point x="240" y="417"/>
      <point x="289" y="443"/>
      <point x="344" y="443" type="curve" smooth="yes"/>
      <point x="404" y="443"/>
      <point x="424" y="408"/>
      <point x="424" y="332" type="curve" smooth="yes"/>
      <point x="424" y="-210" type="line"/>
      <point x="572" y="-210" type="line"/>
      <point x="572" y="344" type="line" smooth="yes"/>
      <point x="572" y="483"/>
      <point x="513" y="563"/>
      <point x="403" y="563" type="curve" smooth="yes"/>
      <point x="316" y="563"/>
      <point x="265" y="515"/>
      <point x="244" y="452" type="curve"/>
      <point x="238" y="452" type="line"/>
      <point x="238" y="452" type="line"/>
      <point x="229" y="519"/>
      <point x="192" y="549"/>
      <point x="123" y="549" type="curve" smooth="yes"/>
      <point x="37" y="549" type="line"/>
      <point x="37" y="434" type="line"/>
      <point x="92" y="434" type="line"/>
      <point x="92" y="0" type="line"/>
    </contour>
  </outline>
</glyph>
<glyph name="uni03B9" format="2">
  <advance width="345"/>
  <unicode hex="03B9"/>
  <outline>
    <contour>
      <point x="328" y="115" type="line"/>
      <point x="223" y="115" type="line"/>
      <point x="223" y="549" type="line"/>
      <point x="75" y="549" type="line"/>
      <point x="75" y="161" type="line" smooth="yes"/>
      <point x="75" y="56"/>
      <point x="128" y="0"/>
      <point x="232" y="0" type="curve" smooth="yes"/>
      <point x="328" y="0" type="line"/>
    </contour>
  </outline>
</glyph>
<glyph name="uni03BB" format="2">
  <advance width="565"/>
  <unicode hex="03BB"/>
  <outline>
    <contour>
      <point x="202" y="550" type="line"/>
      <point x="5" y="-1" type="line"/>
      <point x="145" y="-1" type="line"/>
      <point x="226" y="238" type="line"/>
      <point x="260" y="380" type="line"/>
      <point x="271" y="380" type="line"/>
      <point x="303" y="235" type="line"/>
      <point x="347" y="96" type="line" smooth="yes"/>
      <point x="371" y="19"/>
      <point x="405" y="-1"/>
      <point x="485" y="-1" type="curve" smooth="yes"/>
      <point x="552" y="-1" type="line"/>
      <point x="552" y="114" type="line"/>
      <point x="483" y="114" type="line"/>
      <point x="303" y="673" type="line" smooth="yes"/>
      <point x="278" y="750"/>
      <point x="248" y="776"/>
      <point x="168" y="776" type="curve" smooth="yes"/>
      <point x="74" y="776" type="line"/>
      <point x="74" y="661" type="line"/>
      <point x="165" y="661" type="line"/>
    </contour>
  </outline>
</glyph>
<glyph name="uni03BD" format="2">
  <advance width="567"/>
  <unicode hex="03BD"/>
  <outline>
    <contour>
      <point x="555" y="549" type="line"/>
      <point x="415" y="549" type="line"/>
      <point x="334" y="288" type="line"/>
      <point x="289" y="122" type="line"/>
      <point x="281" y="122" type="line"/>
      <point x="247" y="288" type="line"/>
      <point x="208" y="435" type="line" smooth="yes"/>
      <point x="185" y="521"/>
      <point x="149" y="549"/>
      <point x="68" y="549" type="curve" smooth="yes"/>
      <point x="11" y="549" type="line"/>
      <point x="11" y="434" type="line"/>
      <point x="67" y="434" type="line"/>
      <point x="194" y="0" type="line"/>
      <point x="369" y="0" type="line"/>
    </contour>
  </outline>
</glyph>
<glyph name="uni03C0" format="2">
  <advance width="688"/>
  <unicode hex="03C0"/>
  <outline>
    <contour>
      <point x="549" y="434" type="line"/>
      <point x="652" y="434" type="line"/>
      <point x="652" y="549" type="line"/>
      <point x="24" y="549" type="line"/>
      <point x="24" y="434" type="line"/>
      <point x="111" y="434" type="line"/>
      <point x="111" y="0" type="line"/>
      <point x="259" y="0" type="line"/>
      <point x="259" y="434" type="line"/>
      <point x="401" y="434" type="line"/>
      <point x="401" y="153" type="line" smooth="yes"/>
      <point x="401" y="50"/>
      <point x="454" y="0"/>
      <point x="548" y="0" type="curve" smooth="yes"/>
      <point x="621" y="0" type="line"/>
      <point x="621" y="115" type="line"/>
      <point x="549" y="115" type="line"/>
    </contour>
  </outline>
</glyph>
<glyph name="uni03C1" format="2">
  <advance width="606"/>
  <unicode hex="03C1"/>
  <outline>
    <contour>
      <point x="54" y="-210" type="line"/>
      <point x="202" y="-210" type="line"/>
      <point x="202" y="91" type="line"/>
      <point x="207" y="91" type="line"/>
      <point x="222" y="32"/>
      <point x="288" y="-14"/>
      <point x="357" y="-14" type="curve" smooth="yes"/>
      <point x="486" y="-14"/>
      <point x="558" y="84"/>
      <point x="558" y="275" type="curve" smooth="yes"/>
      <point x="558" y="467"/>
      <point x="485" y="563"/>
      <point x="303" y="563" type="curve" smooth="yes"/>
      <point x="132" y="563"/>
      <point x="54" y="467"/>
      <point x="54" y="275" type="curve" smooth="yes"/>
    </contour>
    <contour>
      <point x="303" y="104" type="curve" smooth="yes"/>
      <point x="245" y="104"/>
      <point x="202" y="135"/>
      <point x="202" y="193" type="curve" smooth="yes"/>
      <point x="202" y="331" type="line" smooth="yes"/>
      <point x="202" y="405"/>
      <point x="238" y="445"/>
      <point x="303" y="445" type="curve" smooth="yes"/>
      <point x="368" y="445"/>
      <point x="404" y="405"/>
      <point x="404" y="331" type="curve" smooth="yes"/>
      <point x="404" y="227" type="line" smooth="yes"/>
      <point x="404" y="145"/>
      <point x="361" y="104"/>
    </contour>
  </outline>
</glyph>
<glyph name="uni03C3" format="2">
  <advance width="615"/>
  <unicode hex="03C3"/>
  <outline>
    <contour>
      <point x="590" y="434" type="line"/>
      <point x="590" y="549" type="line"/>
      <point x="294" y="549" type="line" smooth="yes"/>
      <point x="137" y="549"/>
      <point x="40" y="445"/>
      <point x="40" y="269" type="curve" smooth="yes"/>
      <point x="40" y="98"/>
      <point x="137" y="-13"/>
      <point x="294" y="-13" type="curve" smooth="yes"/>
      <point x="452" y="-13"/>
      <point x="549" y="98"/>
      <point x="549" y="259" type="curve" smooth="yes"/>
      <point x="549" y="345"/>
      <point x="520" y="392"/>
      <point x="466" y="426" type="curve"/>
      <point x="466" y="434" type="line"/>
    </contour>
    <contour>
      <point x="345" y="434" type="line"/>
      <point x="378" y="411"/>
      <point x="395" y="375"/>
      <point x="395" y="325" type="curve" smooth="yes"/>
      <point x="395" y="219" type="line" smooth="yes"/>
      <point x="395" y="144"/>
      <point x="359" y="104"/>
      <point x="294" y="104" type="curve" smooth="yes"/>
      <point x="229" y="104"/>
      <point x="194" y="144"/>
      <point x="194" y="219" type="curve" smooth="yes"/>
      <point x="194" y="325" type="line" smooth="yes"/>
      <point x="194" y="398"/>
      <point x="229" y="434"/>
      <point x="294" y="434" type="curve" smooth="yes"/>
    </contour>
  </outline>
</glyph>
<glyph name="uni03C9" format="2">
  <advance width="808"/>
  <unicode hex="03C9"/>
  <outline>
    <contour>
      <point x="478" y="387" type="line"/>
      <point x="330" y="387" type="line"/>
      <point x="330" y="206" type="line" smooth="yes"/>
      <point x="330" y="129"/>
      <point x="313" y="104"/>
      <point x="267" y="104" type="curve" smooth="yes"/>
      <point x="221" y="104"/>
      <point x="203" y="129"/>
      <point x="203" y="206" type="curve" smooth="yes"/>
      <point x="203" y="314" type="line" smooth="yes"/>
      <point x="203" y="374"/>
      <point x="227" y="434"/>
      <point x="279" y="474" type="curve"/>
      <point x="185" y="563" type="line"/>
      <point x="95" y="515"/>
      <point x="49" y="419"/>
      <point x="49" y="261" type="curve" smooth="yes"/>
      <point x="49" y="76"/>
      <point x="128" y="-13"/>
      <point x="246" y="-13" type="curve" smooth="yes"/>
      <point x="334" y="-13"/>
      <point x="385" y="36"/>
      <point x="402" y="131" type="curve"/>
      <point x="406" y="131" type="line"/>
      <point x="423" y="36"/>
      <point x="475" y="-13"/>
      <point x="563" y="-13" type="curve" smooth="yes"/>
      <point x="680" y="-13"/>
      <point x="759" y="76"/>
      <point x="759" y="261" type="curve" smooth="yes"/>
      <point x="759" y="425"/>
      <point x="715" y="515"/>
      <point x="623" y="563" type="curve"/>
      <point x="530" y="472" type="line"/>
      <point x="580" y="430"/>
      <point x="605" y="374"/>
      <point x="605" y="314" type="curve" smooth="yes"/>
      <point x="605" y="206" type="line" smooth="yes"/>
      <point x="605" y="129"/>
      <point x="588" y="104"/>
      <point x="542" y="104" type="curve" smooth="yes"/>
      <point x="496" y="104"/>
      <point x="478" y="129"/>
      <point x="478" y="206" type="curve" smooth="yes"/>
    </contour>
  </outline>
</glyph>
<glyph name="uni0401" format="2">
  <advance width="637"/>
  <unicode hex="0401"/>
  <outline>
    <contour>
      <point x="577" y="135" type="line"/>
      <point x="237" y="135" type="line"/>
      <point x="237" y="304" type="line"/>
      <point x="531" y="304" type="line"/>
      <point x="531" y="438" type="line"/>
      <point x="237" y="438" type="line"/>
      <point x="237" y="598" type="line"/>
      <point x="577" y="598" type="line"/>
      <point x="577" y="733" type="line"/>
      <point x="85" y="733" type="line"/>
      <point x="85" y="0" type="line"/>
      <point x="577" y="0" type="line"/>
    </contour>
    <contour>
      <point x="216" y="797" type="curve" smooth="yes"/>
      <point x="275" y="797"/>
      <point x="296" y="826"/>
      <point x="296" y="859" type="curve" smooth="yes"/>
      <point x="296" y="885" type="line" smooth="yes"/>
      <point x="296" y="918"/>
      <point x="275" y="948"/>
      <point x="216" y="948" type="curve" smooth="yes"/>
      <point x="157" y="948"/>
      <point x="136" y="918"/>
      <point x="136" y="885" type="curve" smooth="yes"/>
      <point x="136" y="859" type="line" smooth="yes"/>
      <point x="136" y="826"/>
      <point x="157" y="797"/>
    </contour>
    <contour>
      <point x="446" y="797" type="curve" smooth="yes"/>
      <point x="505" y="797"/>
      <point x="526" y="826"/>
      <point x="526" y="859" type="curve" smooth="yes"/>
      <point x="526" y="885" type="line" smooth="yes"/>
      <point x="526" y="918"/>
      <point x="505" y="948"/>
      <point x="446" y="948" type="curve" smooth="yes"/>
      <point x="387" y="948"/>
      <point x="366" y="918"/>
      <point x="366" y="885" type="curve" smooth="yes"/>
      <point x="366" y="859" type="line" smooth="yes"/>
      <point x="366" y="826"/>
      <point x="387" y="797"/>
    </contour>
  </outline>
</glyph>
<glyph name="uni0413" format="2">
  <advance width="540"/>
  <unicode hex="0413"/>
  <outline>
    <contour>
      <point x="84" y="0" type="line"/>
      <point x="236" y="0" type="line"/>
      <point x="236" y="598" type="line"/>
      <point x="510" y="598" type="line"/>
      <point x="510" y="733" type="line"/>
      <point x="84" y="733" type="line"/>
    </contour>
  </outline>
</glyph>
<glyph name="uni0419" format="2">
  <advance width="760"/>
  <unicode hex="0419"/>
  <outline>
    <contour>
      <point x="84" y="0" type="line"/>
      <point x="220" y="0" type="line"/>
      <point x="465" y="379" type="line"/>
      <point x="542" y="523" type="line"/>
      <point x="545" y="523" type="line"/>
      <point x="528" y="364" type="line"/>
      <point x="528" y="0" type="line"/>
      <point x="676" y="0" type="line"/>
      <point x="676" y="733" type="line"/>
      <point x="540" y="733" type="line"/>
      <point x="295" y="354" type="line"/>
      <point x="219" y="209" type="line"/>
      <point x="216" y="209" type="line"/>
      <point x="232" y="369" type="line"/>
      <point x="232" y="733" type="line"/>
      <point x="84" y="733" type="line"/>
    </contour>
    <contour>
      <point x="385" y="777" type="curve" smooth="yes"/>
      <point x="478" y="777"/>
      <point x="531" y="819"/>
      <point x="563" y="895" type="curve" smooth="yes"/>
      <point x="585" y="948" type="line"/>
      <point x="468" y="993" type="line"/>
      <point x="435" y="882" type="line"/>
      <point x="426" y="878"/>
      <point x="403" y="875"/>
      <point x="385" y="875" type="curve" smooth="yes"/>
      <point x="367" y="875"/>
      <point x="344" y="878"/>
      <point x="336" y="882" type="curve"/>
      <point x="302" y="993" type="line"/>
      <point x="186" y="948" type="line"/>
      <point x="208" y="895" type="line" smooth="yes"/>
      <point x="239" y="819"/>
      <point x="293" y="777"/>
    </contour>
  </outline>
</glyph>
<glyph name="uni041B" format="2">
  <advance width="776"/>
  <unicode hex="041B"/>
  <outline>
    <contour>
      <point x="22" y="-6" type="line"/>
      <point x="81" y="-6" type="line" smooth="yes"/>
      <point x="154" y="-6"/>
      <point x="195" y="11"/>
      <point x="238" y="54" type="curve" smooth="yes"/>
      <point x="293" y="108"/>
      <point x="330" y="220"/>
      <point x="330" y="478" type="curve" smooth="yes"/>
      <point x="330" y="598" type="line"/>
      <point x="540" y="598" type="line"/>
      <point x="540" y="0" type="line"/>
      <point x="692" y="0" type="line"/>
      <point x="692" y="733" type="line"/>
      <point x="182" y="733" type="line"/>
      <point x="182" y="500" type="line" smooth="yes"/>
      <point x="182" y="277"/>
      <point x="157" y="183"/>
      <point x="113" y="135" type="curve"/>
      <point x="22" y="135" type="line"/>
    </contour>
  </outline>
</glyph>
<glyph name="uni041D" format="2">
  <advance width="758"/>
  <unicode hex="041D"/>
  <outline>
    <contour>
      <point x="675" y="0" type="line"/>
      <point x="675" y="733" type="line"/>
      <point x="523" y="733" type="line"/>
      <point x="523" y="438" type="line"/>
      <point x="235" y="438" type="line"/>
      <point x="235" y="733" type="line"/>
      <point x="83" y="733" type="line"/>
      <point x="83" y="0" type="line"/>
      <point x="235" y="0" type="line"/>
      <point x="235" y="304" type="line"/>
      <point x="523" y="304" type="line"/>
      <point x="523" y="0" type="line"/>
    </contour>
  </outline>
</glyph>
<glyph name="uni0421" format="2">
  <advance width="684"/>
  <unicode hex="0421"/>
  <outline>
    <contour>
      <point x="378" y="-13" type="curve" smooth="yes"/>
      <point x="510" y="-13"/>
      <point x="598" y="51"/>
      <point x="651" y="162" type="curve"/>
      <point x="527" y="233" type="line"/>
      <point x="504" y="172"/>
      <point x="457" y="122"/>
      <point x="378" y="122" type="curve" smooth="yes"/>
      <point x="282" y="122"/>
      <point x="218" y="188"/>
      <point x="218" y="308" type="curve" smooth="yes"/>
      <point x="218" y="424" type="line" smooth="yes"/>
      <point x="218" y="544"/>
      <point x="282" y="611"/>
      <point x="378" y="611" type="curve" smooth="yes"/>
      <point x="457" y="611"/>
      <point x="498" y="569"/>
      <point x="518" y="507" type="curve"/>
      <point x="649" y="574" type="line"/>
      <point x="596" y="691"/>
      <point x="510" y="746"/>
      <point x="378" y="746" type="curve" smooth="yes"/>
      <point x="182" y="746"/>
      <point x="57" y="609"/>
      <point x="57" y="361" type="curve" smooth="yes"/>
      <point x="57" y="114"/>
      <point x="182" y="-13"/>
    </contour>
  </outline>
</glyph>
<glyph name="uni0423" format="2">
  <advance width="663"/>
  <unicode hex="0423"/>
  <outline>
    <contour>
      <point x="124" y="0" type="line"/>
      <point x="229" y="0" type="line" smooth="yes"/>
      <point x="316" y="0"/>
      <point x="359" y="27"/>
      <point x="390" y="103" type="curve" smooth="yes"/>
      <point x="647" y="733" type="line"/>
      <point x="498" y="733" type="line"/>
      <point x="407" y="506" type="line"/>
      <point x="349" y="353" type="line"/>
      <point x="346" y="353" type="line"/>
      <point x="276" y="505" type="line"/>
      <point x="173" y="733" type="line"/>
      <point x="13" y="733" type="line"/>
      <point x="275" y="182" type="line"/>
      <point x="259" y="135" type="line"/>
      <point x="124" y="135" type="line"/>
    </contour>
  </outline>
</glyph>
<glyph name="uni0429" format="2">
  <advance width="1148"/>
  <unicode hex="0429"/>
  <outline>
    <contour>
      <point x="975" y="-157" type="line"/>
      <point x="1118" y="-157" type="line"/>
      <point x="1118" y="135" type="line"/>
      <point x="999" y="135" type="line"/>
      <point x="999" y="733" type="line"/>
      <point x="847" y="733" type="line"/>
      <point x="847" y="135" type="line"/>
      <point x="619" y="135" type="line"/>
      <point x="619" y="733" type="line"/>
      <point x="467" y="733" type="line"/>
      <point x="467" y="135" type="line"/>
      <point x="239" y="135" type="line"/>
      <point x="239" y="733" type="line"/>
      <point x="87" y="733" type="line"/>
      <point x="87" y="0" type="line"/>
      <point x="975" y="0" type="line"/>
    </contour>
  </outline>
</glyph>
<glyph name="uni042A" format="2">
  <advance width="796"/>
  <unicode hex="042A"/>
  <outline>
    <contour>
      <point x="188" y="0" type="line"/>
      <point x="545" y="0" type="line" smooth="yes"/>
      <point x="681" y="0"/>
      <point x="759" y="96"/>
      <point x="759" y="234" type="curve" smooth="yes"/>
      <point x="759" y="373"/>
      <point x="681" y="468"/>
      <point x="545" y="468" type="curve" smooth="yes"/>
      <point x="340" y="468" type="line"/>
      <point x="340" y="733" type="line"/>
      <point x="25" y="733" type="line"/>
      <point x="25" y="598" type="line"/>
      <point x="188" y="598" type="line"/>
    </contour>
    <contour>
      <point x="340" y="132" type="line"/>
      <point x="340" y="336" type="line"/>
      <point x="526" y="336" type="line" smooth="yes"/>
      <point x="573" y="336"/>
      <point x="602" y="309"/>
      <point x="602" y="256" type="curve" smooth="yes"/>
      <point x="602" y="212" type="line" smooth="yes"/>
      <point x="602" y="158"/>
      <point x="573" y="132"/>
      <point x="526" y="132" type="curve" smooth="yes"/>
    </contour>
  </outline>
</glyph>
<glyph name="uni042D" format="2">
  <advance width="705"/>
  <unicode hex="042D"/>
  <outline>
    <contour>
      <point x="242" y="305" type="line"/>
      <point x="488" y="305" type="line"/>
      <point x="488" y="297" type="line" smooth="yes"/>
      <point x="488" y="180"/>
      <point x="423" y="122"/>
      <point x="320" y="122" type="curve" smooth="yes"/>
      <point x="230" y="122"/>
      <point x="180" y="170"/>
      <point x="157" y="231" type="curve"/>
      <point x="33" y="155" type="line"/>
      <point x="85" y="50"/>
      <point x="173" y="-13"/>
      <point x="320" y="-13" type="curve" smooth="yes"/>
      <point x="523" y="-13"/>
      <point x="649" y="124"/>
      <point x="649" y="372" type="curve" smooth="yes"/>
      <point x="649" y="620"/>
      <point x="523" y="746"/>
      <point x="320" y="746" type="curve" smooth="yes"/>
      <point x="179" y="746"/>
      <point x="98" y="689"/>
      <point x="37" y="582" type="curve"/>
      <point x="166" y="513" type="line"/>
      <point x="191" y="571"/>
      <point x="230" y="611"/>
      <point x="320" y="611" type="curve" smooth="yes"/>
      <point x="423" y="611"/>
      <point x="488" y="554"/>
      <point x="488" y="439" type="curve"/>
      <point x="487" y="439" type="line"/>
      <point x="242" y="439" type="line"/>
    </contour>
  </outline>
</glyph>
<glyph name="uni042E" format="2">
  <advance width="1067"/>
  <unicode hex="042E"/>
  <outline>
    <contour>
      <point x="693" y="-13" type="curve" smooth="yes"/>
      <point x="883" y="-13"/>
      <point x="1011" y="117"/>
      <point x="1011" y="366" type="curve" smooth="yes"/>
      <point x="1011" y="624"/>
      <point x="883" y="746"/>
      <point x="693" y="746" type="curve" smooth="yes"/>
      <point x="525" y="746"/>
      <point x="400" y="649"/>
      <point x="379" y="438" type="curve"/>
      <point x="238" y="438" type="line"/>
      <point x="238" y="733" type="line"/>
      <point x="86" y="733" type="line"/>
      <point x="86" y="0" type="line"/>
      <point x="238" y="0" type="line"/>
      <point x="238" y="304" type="line"/>
      <point x="377" y="304" type="line"/>
      <point x="400" y="95"/>
      <point x="519" y="-13"/>
    </contour>
    <contour>
      <point x="693" y="122" type="curve" smooth="yes"/>
      <point x="594" y="122"/>
      <point x="536" y="188"/>
      <point x="536" y="313" type="curve" smooth="yes"/>
      <point x="536" y="417" type="line" smooth="yes"/>
      <point x="536" y="544"/>
      <point x="594" y="611"/>
      <point x="693" y="611" type="curve" smooth="yes"/>
      <point x="793" y="611"/>
      <point x="850" y="544"/>
      <point x="850" y="417" type="curve" smooth="yes"/>
      <point x="850" y="313" type="line" smooth="yes"/>
      <point x="850" y="188"/>
      <point x="793" y="122"/>
    </contour>
  </outline>
</glyph>
<glyph name="uni042F" format="2">
  <advance width="712"/>
  <unicode hex="042F"/>
  <outline>
    <contour>
      <point x="46" y="0" type="line"/>
      <point x="124" y="0" type="line" smooth="yes"/>
      <point x="180" y="0"/>
      <point x="210" y="14"/>
      <point x="250" y="77" type="curve" smooth="yes"/>
      <point x="373" y="269" type="line"/>
      <point x="477" y="269" type="line"/>
      <point x="477" y="0" type="line"/>
      <point x="629" y="0" type="line"/>
      <point x="629" y="733" type="line"/>
      <point x="285" y="733" type="line" smooth="yes"/>
      <point x="154" y="733"/>
      <point x="68" y="638"/>
      <point x="68" y="499" type="curve" smooth="yes"/>
      <point x="68" y="378"/>
      <point x="141" y="300"/>
      <point x="244" y="290" type="curve"/>
      <point x="244" y="290" type="line"/>
      <point x="244" y="284" type="line"/>
      <point x="207" y="278"/>
      <point x="192" y="262"/>
      <point x="175" y="235" type="curve" smooth="yes"/>
      <point x="111" y="135" type="line"/>
      <point x="46" y="135" type="line"/>
    </contour>
    <contour>
      <point x="301" y="397" type="line" smooth="yes"/>
      <point x="254" y="397"/>
      <point x="225" y="423"/>
      <point x="225" y="478" type="curve" smooth="yes"/>
      <point x="225" y="521" type="line" smooth="yes"/>
      <point x="225" y="575"/>
      <point x="254" y="601"/>
      <point x="301" y="601" type="curve" smooth="yes"/>
      <point x="477" y="601" type="line"/>
      <point x="477" y="397" type="line"/>
    </contour>
  </outline>
</glyph>
<glyph name="uni0430" format="2">
  <advance width="597"/>
  <unicode hex="0430"/>
  <outline>
    <contour>
      <point x="211" y="-13" type="curve" smooth="yes"/>
      <point x="294" y="-13"/>
      <point x="355" y="25"/>
      <point x="373" y="96" type="curve"/>
      <point x="379" y="96" type="line"/>
      <point x="379" y="96" type="line"/>
      <point x="387" y="38"/>
      <point x="426" y="0"/>
      <point x="482" y="0" type="curve" smooth="yes"/>
      <point x="564" y="0" type="line"/>
      <point x="564" y="115" type="line"/>
      <point x="512" y="115" type="line"/>
      <point x="512" y="363" type="line" smooth="yes"/>
      <point x="512" y="491"/>
      <point x="432" y="563"/>
      <point x="279" y="563" type="curve" smooth="yes"/>
      <point x="166" y="563"/>
      <point x="103" y="522"/>
      <point x="60" y="458" type="curve"/>
      <point x="148" y="380" type="line"/>
      <point x="172" y="416"/>
      <point x="206" y="447"/>
      <point x="269" y="447" type="curve" smooth="yes"/>
      <point x="336" y="447"/>
      <point x="364" y="412"/>
      <point x="364" y="356" type="curve" smooth="yes"/>
      <point x="364" y="319" type="line"/>
      <point x="275" y="319" type="line" smooth="yes"/>
      <point x="126" y="319"/>
      <point x="38" y="264"/>
      <point x="38" y="148" type="curve" smooth="yes"/>
      <point x="38" y="53"/>
      <point x="100" y="-13"/>
    </contour>
    <contour>
      <point x="264" y="90" type="curve" smooth="yes"/>
      <point x="215" y="90"/>
      <point x="187" y="110"/>
      <point x="187" y="153" type="curve" smooth="yes"/>
      <point x="187" y="169" type="line" smooth="yes"/>
      <point x="187" y="212"/>
      <point x="221" y="235"/>
      <point x="285" y="235" type="curve" smooth="yes"/>
      <point x="364" y="235" type="line"/>
      <point x="364" y="166" type="line" smooth="yes"/>
      <point x="364" y="114"/>
      <point x="319" y="90"/>
    </contour>
  </outline>
</glyph>
<glyph name="uni0431" format="2">
  <advance width="595"/>
  <unicode hex="0431"/>
  <outline>
    <contour>
      <point x="300" y="-13" type="curve" smooth="yes"/>
      <point x="458" y="-13"/>
      <point x="554" y="97"/>
      <point x="554" y="276" type="curve" smooth="yes"/>
      <point x="554" y="431"/>
      <point x="464" y="529"/>
      <point x="353" y="529" type="curve" smooth="yes"/>
      <point x="271" y="529"/>
      <point x="228" y="492"/>
      <point x="205" y="427" type="curve"/>
      <point x="200" y="427" type="line"/>
      <point x="204" y="575"/>
      <point x="238" y="619"/>
      <point x="341" y="629" type="curve" smooth="yes"/>
      <point x="521" y="647" type="line"/>
      <point x="521" y="789" type="line"/>
      <point x="342" y="771" type="line" smooth="yes"/>
      <point x="138" y="750"/>
      <point x="46" y="620"/>
      <point x="46" y="341" type="curve" smooth="yes"/>
      <point x="46" y="95"/>
      <point x="142" y="-13"/>
    </contour>
    <contour>
      <point x="300" y="104" type="curve" smooth="yes"/>
      <point x="235" y="104"/>
      <point x="200" y="144"/>
      <point x="200" y="221" type="curve" smooth="yes"/>
      <point x="200" y="301" type="line" smooth="yes"/>
      <point x="200" y="372"/>
      <point x="235" y="412"/>
      <point x="300" y="412" type="curve" smooth="yes"/>
      <point x="365" y="412"/>
      <point x="401" y="372"/>
      <point x="401" y="301" type="curve" smooth="yes"/>
      <point x="401" y="221" type="line" smooth="yes"/>
      <point x="401" y="144"/>
      <point x="365" y="104"/>
    </contour>
  </outline>
</glyph>
<glyph name="uni0432" format="2">
  <advance width="605"/>
  <unicode hex="0432"/>
  <outline>
    <contour>
      <point x="78" y="0" type="line"/>
      <point x="390" y="0" type="line" smooth="yes"/>
      <point x="495" y="0"/>
      <point x="560" y="62"/>
      <point x="560" y="160" type="curve" smooth="yes"/>
      <point x="560" y="234"/>
      <point x="513" y="277"/>
      <point x="423" y="286" type="curve"/>
      <point x="423" y="291" type="line"/>
      <point x="499" y="301"/>
      <point x="539" y="340"/>
      <point x="539" y="411" type="curve" smooth="yes"/>
      <point x="539" y="494"/>
      <point x="485" y="549"/>
      <point x="388" y="549" type="curve" smooth="yes"/>
      <point x="78" y="549" type="line"/>
    </contour>
    <contour>
      <point x="222" y="105" type="line"/>
      <point x="222" y="233" type="line"/>
      <point x="365" y="233" type="line" smooth="yes"/>
      <point x="393" y="233"/>
      <point x="411" y="216"/>
      <point x="411" y="183" type="curve" smooth="yes"/>
      <point x="411" y="152" type="line" smooth="yes"/>
      <point x="411" y="121"/>
      <point x="393" y="105"/>
      <point x="365" y="105" type="curve" smooth="yes"/>
    </contour>
    <contour>
      <point x="222" y="321" type="line"/>
      <point x="222" y="444" type="line"/>
      <point x="346" y="444" type="line" smooth="yes"/>
      <point x="373" y="444"/>
      <point x="390" y="427"/>
      <point x="390" y="398" type="curve" smooth="yes"/>
      <point x="390" y="371" type="line" smooth="yes"/>
      <point x="390" y="338"/>
      <point x="373" y="321"/>
      <point x="346" y="321" type="curve" smooth="yes"/>
    </contour>
  </outline>
</glyph>
<glyph name="uni0433" format="2">
  <advance width="466"/>
  <unicode hex="0433"/>
  <outline>
    <contour>
      <point x="72" y="0" type="line"/>
      <point x="220" y="0" type="line"/>
      <point x="220" y="434" type="line"/>
      <point x="445" y="434" type="line"/>
      <point x="445" y="549" type="line"/>
      <point x="72" y="549" type="line"/>
    </contour>
  </outline>
</glyph>
<glyph name="uni0436" format="2">
  <advance width="909"/>
  <unicode hex="0436"/>
  <outline>
    <contour>
      <point x="42" y="0" type="line"/>
      <point x="112" y="0" type="line" smooth="yes"/>
      <point x="171" y="0"/>
      <point x="201" y="22"/>
      <point x="230" y="79" type="curve" smooth="yes"/>
      <point x="303" y="222" type="line"/>
      <point x="380" y="222" type="line"/>
      <point x="380" y="0" type="line"/>
      <point x="528" y="0" type="line"/>
      <point x="528" y="222" type="line"/>
      <point x="608" y="222" type="line"/>
      <point x="680" y="79" type="line" smooth="yes"/>
      <point x="709" y="21"/>
      <point x="738" y="0"/>
      <point x="797" y="0" type="curve" smooth="yes"/>
      <point x="867" y="0" type="line"/>
      <point x="867" y="115" type="line"/>
      <point x="811" y="115" type="line"/>
      <point x="752" y="234" type="line" smooth="yes"/>
      <point x="739" y="261"/>
      <point x="717" y="276"/>
      <point x="692" y="281" type="curve"/>
      <point x="692" y="286" type="line"/>
      <point x="717" y="292"/>
      <point x="739" y="311"/>
      <point x="751" y="336" type="curve" smooth="yes"/>
      <point x="798" y="434" type="line"/>
      <point x="855" y="434" type="line"/>
      <point x="855" y="549" type="line"/>
      <point x="791" y="549" type="line" smooth="yes"/>
      <point x="732" y="549"/>
      <point x="702" y="527"/>
      <point x="675" y="472" type="curve" smooth="yes"/>
      <point x="608" y="337" type="line"/>
      <point x="528" y="337" type="line"/>
      <point x="528" y="549" type="line"/>
      <point x="380" y="549" type="line"/>
      <point x="380" y="337" type="line"/>
      <point x="303" y="337" type="line"/>
      <point x="235" y="472" type="line" smooth="yes"/>
      <point x="207" y="527"/>
      <point x="177" y="549"/>
      <point x="119" y="549" type="curve" smooth="yes"/>
      <point x="55" y="549" type="line"/>
      <point x="55" y="434" type="line"/>
      <point x="111" y="434" type="line"/>
      <point x="159" y="336" type="line" smooth="yes"/>
      <point x="171" y="311"/>
      <point x="192" y="292"/>
      <point x="217" y="286" type="curve"/>
      <point x="217" y="281" type="line"/>
      <point x="192" y="276"/>
      <point x="172" y="262"/>
      <point x="158" y="234" type="curve" smooth="yes"/>
      <point x="99" y="115" type="line"/>
      <point x="42" y="115" type="line"/>
    </contour>
  </outline>
</glyph>
<glyph name="uni0439" format="2">
  <advance width="643"/>
  <unicode hex="0439"/>
  <outline>
    <contour>
      <point x="76" y="0" type="line"/>
      <point x="207" y="0" type="line"/>
      <point x="363" y="231" type="line"/>
      <point x="430" y="357" type="line"/>
      <point x="433" y="357" type="line"/>
      <point x="421" y="221" type="line"/>
      <point x="421" y="0" type="line"/>
      <point x="566" y="0" type="line"/>
      <point x="566" y="549" type="line"/>
      <point x="435" y="549" type="line"/>
      <point x="278" y="311" type="line"/>
      <point x="212" y="192" type="line"/>
      <point x="209" y="192" type="line"/>
      <point x="221" y="328" type="line"/>
      <point x="221" y="549" type="line"/>
      <point x="76" y="549" type="line"/>
    </contour>
    <contour>
      <point x="325" y="608" type="curve" smooth="yes"/>
      <point x="417" y="608"/>
      <point x="470" y="649"/>
      <point x="501" y="723" type="curve" smooth="yes"/>
      <point x="523" y="776" type="line"/>
      <point x="409" y="821" type="line"/>
      <point x="376" y="713" type="line"/>
      <point x="365" y="709"/>
      <point x="343" y="706"/>
      <point x="325" y="706" type="curve" smooth="yes"/>
      <point x="307" y="706"/>
      <point x="286" y="709"/>
      <point x="275" y="713" type="curve"/>
      <point x="241" y="821" type="line"/>
      <point x="127" y="776" type="line"/>
      <point x="149" y="723" type="line" smooth="yes"/>
      <point x="180" y="649"/>
      <point x="233" y="608"/>
    </contour>
  </outline>
</glyph>
<glyph name="uni043A" format="2">
  <advance width="621"/>
  <unicode hex="043A"/>
  <outline>
    <contour>
      <point x="76" y="0" type="line"/>
      <point x="224" y="0" type="line"/>
      <point x="224" y="222" type="line"/>
      <point x="307" y="222" type="line"/>
      <point x="387" y="78" type="line" smooth="yes"/>
      <point x="418" y="22"/>
      <point x="449" y="0"/>
      <point x="507" y="0" type="curve" smooth="yes"/>
      <point x="579" y="0" type="line"/>
      <point x="579" y="115" type="line"/>
      <point x="519" y="115" type="line"/>
      <point x="454" y="232" type="line" smooth="yes"/>
      <point x="437" y="263"/>
      <point x="423" y="276"/>
      <point x="394" y="281" type="curve"/>
      <point x="394" y="286" type="line"/>
      <point x="425" y="292"/>
      <point x="437" y="305"/>
      <point x="456" y="341" type="curve" smooth="yes"/>
      <point x="505" y="434" type="line"/>
      <point x="565" y="434" type="line"/>
      <point x="565" y="549" type="line"/>
      <point x="501" y="549" type="line" smooth="yes"/>
      <point x="442" y="549"/>
      <point x="411" y="527"/>
      <point x="381" y="473" type="curve" smooth="yes"/>
      <point x="307" y="337" type="line"/>
      <point x="224" y="337" type="line"/>
      <point x="224" y="549" type="line"/>
      <point x="76" y="549" type="line"/>
    </contour>
  </outline>
</glyph>
<glyph name="uni0441" format="2">
  <advance width="543"/>
  <unicode hex="0441"/>
  <outline>
    <contour>
      <point x="296" y="-13" type="curve" smooth="yes"/>
      <point x="403" y="-13"/>
      <point x="481" y="35"/>
      <point x="518" y="137" type="curve"/>
      <point x="404" y="188" type="line"/>
      <point x="386" y="142"/>
      <point x="358" y="104"/>
      <point x="296" y="104" type="curve" smooth="yes"/>
      <point x="228" y="104"/>
      <point x="194" y="151"/>
      <point x="194" y="224" type="curve" smooth="yes"/>
      <point x="194" y="326" type="line" smooth="yes"/>
      <point x="194" y="398"/>
      <point x="228" y="446"/>
      <point x="296" y="446" type="curve" smooth="yes"/>
      <point x="352" y="446"/>
      <point x="384" y="412"/>
      <point x="395" y="368" type="curve"/>
      <point x="514" y="421" type="line"/>
      <point x="482" y="509"/>
      <point x="406" y="563"/>
      <point x="296" y="563" type="curve" smooth="yes"/>
      <point x="131" y="563"/>
      <point x="40" y="452"/>
      <point x="40" y="275" type="curve" smooth="yes"/>
      <point x="40" y="100"/>
      <point x="131" y="-13"/>
    </contour>
  </outline>
</glyph>
<glyph name="uni0442" format="2">
  <advance width="517"/>
  <unicode hex="0442"/>
  <outline>
    <contour>
      <point x="184" y="0" type="line"/>
      <point x="332" y="0" type="line"/>
      <point x="332" y="434" type="line"/>
      <point x="496" y="434" type="line"/>
      <point x="496" y="549" type="line"/>
      <point x="21" y="549" type="line"/>
      <point x="21" y="434" type="line"/>
      <point x="184" y="434" type="line"/>
    </contour>
  </outline>
</glyph>
<glyph name="uni0445" format="2">
  <advance width="588"/>
  <unicode hex="0445"/>
  <outline>
    <contour>
      <point x="176" y="0" type="line"/>
      <point x="283" y="184" type="line"/>
      <point x="288" y="184" type="line"/>
      <point x="397" y="0" type="line"/>
      <point x="565" y="0" type="line"/>
      <point x="381" y="275" type="line"/>
      <point x="564" y="550" type="line"/>
      <point x="408" y="550" type="line"/>
      <point x="304" y="373" type="line"/>
      <point x="299" y="373" type="line"/>
      <point x="193" y="550" type="line"/>
      <point x="25" y="550" type="line"/>
      <point x="205" y="279" type="line"/>
      <point x="22" y="0" type="line"/>
    </contour>
  </outline>
</glyph>
<glyph name="uni0446" format="2">
  <advance width="665"/>
  <unicode hex="0446"/>
  <outline>
    <contour>
      <point x="514" y="-147" type="line"/>
      <point x="648" y="-147" type="line"/>
      <point x="648" y="115" type="line"/>
      <point x="554" y="115" type="line"/>
      <point x="554" y="549" type="line"/>
      <point x="406" y="549" type="line"/>
      <point x="406" y="115" type="line"/>
      <point x="226" y="115" type="line"/>
      <point x="226" y="549" type="line"/>
      <point x="78" y="549" type="line"/>
      <point x="78" y="0" type="line"/>
      <point x="514" y="0" type="line"/>
    </contour>
  </outline>
</glyph>
<glyph name="uni0447" format="2">
  <advance width="607"/>
  <unicode hex="0447"/>
  <outline>
    <contour>
      <point x="383" y="0" type="line"/>
      <point x="531" y="0" type="line"/>
      <point x="531" y="549" type="line"/>
      <point x="383" y="549" type="line"/>
      <point x="383" y="342" type="line" smooth="yes"/>
      <point x="383" y="308"/>
      <point x="353" y="284"/>
      <point x="290" y="284" type="curve" smooth="yes"/>
      <point x="228" y="284"/>
      <point x="203" y="307"/>
      <point x="203" y="364" type="curve" smooth="yes"/>
      <point x="203" y="549" type="line"/>
      <point x="55" y="549" type="line"/>
      <point x="55" y="357" type="line" smooth="yes"/>
      <point x="55" y="228"/>
      <point x="107" y="164"/>
      <point x="230" y="164" type="curve" smooth="yes"/>
      <point x="306" y="164"/>
      <point x="355" y="192"/>
      <point x="378" y="238" type="curve"/>
      <point x="383" y="238" type="line"/>
    </contour>
  </outline>
</glyph>
<glyph name="uni0448" format="2">
  <advance width="886"/>
  <unicode hex="0448"/>
  <outline>
    <contour>
      <point x="76" y="0" type="line"/>
      <point x="811" y="0" type="line"/>
      <point x="811" y="549" type="line"/>
      <point x="663" y="549" type="line"/>
      <point x="663" y="115" type="line"/>
      <point x="517" y="115" type="line"/>
      <point x="517" y="549" type="line"/>
      <point x="369" y="549" type="line"/>
      <point x="369" y="115" type="line"/>
      <point x="224" y="115" type="line"/>
      <point x="224" y="549" type="line"/>
      <point x="76" y="549" type="line"/>
    </contour>
  </outline>
</glyph>
<glyph name="uni0449" format="2">
  <advance width="924"/>
  <unicode hex="0449"/>
  <outline>
    <contour>
      <point x="773" y="-147" type="line"/>
      <point x="907" y="-147" type="line"/>
      <point x="907" y="115" type="line"/>
      <point x="812" y="115" type="line"/>
      <point x="812" y="549" type="line"/>
      <point x="664" y="549" type="line"/>
      <point x="664" y="115" type="line"/>
      <point x="518" y="115" type="line"/>
      <point x="518" y="549" type="line"/>
      <point x="370" y="549" type="line"/>
      <point x="370" y="115" type="line"/>
      <point x="225" y="115" type="line"/>
      <point x="225" y="549" type="line"/>
      <point x="77" y="549" type="line"/>
      <point x="77" y="0" type="line"/>
      <point x="773" y="0" type="line"/>
    </contour>
  </outline>
</glyph>
<glyph name="uni044F" format="2">
  <advance width="614"/>
  <unicode hex="044F"/>
  <outline>
    <contour>
      <point x="47" y="0" type="line"/>
      <point x="121" y="0" type="line" smooth="yes"/>
      <point x="180" y="0"/>
      <point x="207" y="20"/>
      <point x="237" y="78" type="curve" smooth="yes"/>
      <point x="298" y="196" type="line"/>
      <point x="391" y="196" type="line"/>
      <point x="391" y="0" type="line"/>
      <point x="539" y="0" type="line"/>
      <point x="539" y="549" type="line"/>
      <point x="243" y="549" type="line" smooth="yes"/>
      <point x="136" y="549"/>
      <point x="56" y="483"/>
      <point x="56" y="369" type="curve" smooth="yes"/>
      <point x="56" y="279"/>
      <point x="113" y="232"/>
      <point x="191" y="222" type="curve"/>
      <point x="191" y="216" type="line"/>
      <point x="166" y="214"/>
      <point x="147" y="201"/>
      <point x="133" y="175" type="curve" smooth="yes"/>
      <point x="102" y="115" type="line"/>
      <point x="47" y="115" type="line"/>
    </contour>
    <contour>
      <point x="272" y="301" type="line" smooth="yes"/>
      <point x="231" y="301"/>
      <point x="205" y="324"/>
      <point x="205" y="363" type="curve" smooth="yes"/>
      <point x="205" y="380" type="line" smooth="yes"/>
      <point x="205" y="425"/>
      <point x="231" y="444"/>
      <point x="272" y="444" type="curve" smooth="yes"/>
      <point x="391" y="444" type="line"/>
      <point x="391" y="301" type="line"/>
    </contour>
  </outline>
</glyph>
<glyph name="uni0451" format="2">
  <advance width="590"/>
  <unicode hex="0451"/>
  <outline>
    <contour>
      <point x="302" y="-13" type="curve" smooth="yes"/>
      <point x="403" y="-13"/>
      <point x="484" y="24"/>
      <point x="531" y="83" type="curve"/>
      <point x="456" y="173" type="line"/>
      <point x="422" y="135"/>
      <point x="384" y="103"/>
      <point x="318" y="103" type="curve" smooth="yes"/>
      <point x="234" y="103"/>
      <point x="193" y="152"/>
      <point x="193" y="228" type="curve" smooth="yes"/>
      <point x="193" y="238" type="line"/>
      <point x="550" y="238" type="line"/>
      <point x="550" y="283" type="line" smooth="yes"/>
      <point x="550" y="433"/>
      <point x="475" y="563"/>
      <point x="297" y="563" type="curve" smooth="yes"/>
      <point x="133" y="563"/>
      <point x="40" y="449"/>
      <point x="40" y="275" type="curve" smooth="yes"/>
      <point x="40" y="100"/>
      <point x="136" y="-13"/>
    </contour>
    <contour>
      <point x="193" y="334" type="line" smooth="yes"/>
      <point x="193" y="406"/>
      <point x="235" y="454"/>
      <point x="299" y="454" type="curve" smooth="yes"/>
      <point x="363" y="454"/>
      <point x="397" y="407"/>
      <point x="397" y="335" type="curve" smooth="yes"/>
      <point x="397" y="325" type="line"/>
      <point x="193" y="325" type="line"/>
    </contour>
    <contour>
      <point x="187" y="626" type="curve" smooth="yes"/>
      <point x="246" y="626"/>
      <point x="267" y="655"/>
      <point x="267" y="688" type="curve" smooth="yes"/>
      <point x="267" y="714" type="line" smooth="yes"/>
      <point x="267" y="747"/>
      <point x="246" y="777"/>
      <point x="187" y="777" type="curve" smooth="yes"/>
      <point x="128" y="777"/>
      <point x="107" y="747"/>
      <point x="107" y="714" type="curve" smooth="yes"/>
      <point x="107" y="688" type="line" smooth="yes"/>
      <point x="107" y="655"/>
      <point x="128" y="626"/>
    </contour>
    <contour>
      <point x="417" y="626" type="curve" smooth="yes"/>
      <point x="476" y="626"/>
      <point x="497" y="655"/>
      <point x="497" y="688" type="curve" smooth="yes"/>
      <point x="497" y="714" type="line" smooth="yes"/>
      <point x="497" y="747"/>
      <point x="476" y="777"/>
      <point x="417" y="777" type="curve" smooth="yes"/>
      <point x="358" y="777"/>
      <point x="337" y="747"/>
      <point x="337" y="714" type="curve" smooth="yes"/>
      <point x="337" y="688" type="line" smooth="yes"/>
      <point x="337" y="655"/>
      <point x="358" y="626"/>
    </contour>
  </outline>
</glyph>
<glyph name="uni1E3F" format="2">
  <advance width="937"/>
  <unicode hex="1E3F"/>
  <outline>
    <contour>
      <point x="222" y="0" type="line"/>
      <point x="222" y="359" type="line" smooth="yes"/>
      <point x="222" y="416"/>
      <point x="270" y="443"/>
      <point x="317" y="443" type="curve" smooth="yes"/>
      <point x="371" y="443"/>
      <point x="397" y="407"/>
      <point x="397" y="333" type="curve" smooth="yes"/>
      <point x="397" y="0" type="line"/>
      <point x="545" y="0" type="line"/>
      <point x="545" y="359" type="line" smooth="yes"/>
      <point x="545" y="416"/>
      <point x="591" y="443"/>
      <point x="641" y="443" type="curve" smooth="yes"/>
      <point x="695" y="443"/>
      <point x="720" y="407"/>
      <point x="720" y="333" type="curve" smooth="yes"/>
      <point x="720" y="0" type="line"/>
      <point x="868" y="0" type="line"/>
      <point x="868" y="345" type="line" smooth="yes"/>
      <point x="868" y="483"/>
      <point x="809" y="563"/>
      <point x="702" y="563" type="curve" smooth="yes"/>
      <point x="617" y="563"/>
      <point x="554" y="514"/>
      <point x="534" y="452" type="curve"/>
      <point x="531" y="452" type="line"/>
      <point x="506" y="525"/>
      <point x="451" y="563"/>
      <point x="375" y="563" type="curve" smooth="yes"/>
      <point x="293" y="563"/>
      <point x="248" y="516"/>
      <point x="227" y="458" type="curve"/>
      <point x="222" y="458" type="line"/>
      <point x="222" y="550" type="line"/>
      <point x="74" y="550" type="line"/>
      <point x="74" y="0" type="line"/>
    </contour>
    <contour>
      <point x="666" y="792" type="line"/>
      <point x="544" y="853" type="line"/>
      <point x="441" y="653" type="line"/>
      <point x="530" y="609" type="line"/>
    </contour>
  </outline>
</glyph>
<glyph name="uni2018" format="2">
  <advance width="1000"/>
  <unicode hex="2018"/>
  <anchor x="490" y="380" name="BSB"/>
  <anchor x="500" y="0" name="LSB"/>
  <anchor x="1000" y="0" name="RSB"/>
  <anchor x="510" y="880" name="TSB"/>
  <outline>
    <contour>
      <point x="897" y="537" type="curve" smooth="yes"/>
      <point x="958" y="537"/>
      <point x="982" y="568"/>
      <point x="982" y="611" type="curve" smooth="yes"/>
      <point x="982" y="633" type="line" smooth="yes"/>
      <point x="982" y="668"/>
      <point x="964" y="699"/>
      <point x="920" y="707" type="curve"/>
      <point x="936" y="757"/>
      <point x="969" y="797"/>
      <point x="1014" y="837" type="curve"/>
      <point x="918" y="837" type="line"/>
      <point x="858" y="789"/>
      <point x="812" y="711"/>
      <point x="812" y="633" type="curve" smooth="yes"/>
      <point x="812" y="611" type="line" smooth="yes"/>
      <point x="812" y="568"/>
      <point x="836" y="537"/>
    </contour>
  </outline>
</glyph>
<glyph name="uni00B7.latn" format="2">
  <advance width="376"/>
  <unicode hex="2022"/>
  <outline>
    <contour>
      <point x="188" y="231" type="curve" smooth="yes"/>
      <point x="248" y="231"/>
      <point x="276" y="265"/>
      <point x="276" y="311" type="curve" smooth="yes"/>
      <point x="276" y="331" type="line" smooth="yes"/>
      <point x="276" y="377"/>
      <point x="248" y="411"/>
      <point x="188" y="411" type="curve" smooth="yes"/>
      <point x="128" y="411"/>
      <point x="100" y="377"/>
      <point x="100" y="331" type="curve" smooth="yes"/>
      <point x="100" y="311" type="line" smooth="yes"/>
      <point x="100" y="265"/>
      <point x="128" y="231"/>
    </contour>
  </outline>
</glyph>
<glyph name="uni2025" format="2">
  <advance width="1000"/>
  <unicode hex="2025"/>
  <outline>
    <contour>
      <point x="747" y="288" type="curve" smooth="yes"/>
      <point x="807" y="288"/>
      <point x="835" y="322"/>
      <point x="835" y="368" type="curve" smooth="yes"/>
      <point x="835" y="388" type="line" smooth="yes"/>
      <point x="835" y="434"/>
      <point x="807" y="468"/>
      <point x="747" y="468" type="curve" smooth="yes"/>
      <point x="687" y="468"/>
      <point x="659" y="434"/>
      <point x="659" y="388" type="curve" smooth="yes"/>
      <point x="659" y="368" type="line" smooth="yes"/>
      <point x="659" y="322"/>
      <point x="687" y="288"/>
    </contour>
    <contour>
      <point x="253" y="288" type="curve" smooth="yes"/>
      <point x="313" y="288"/>
      <point x="341" y="322"/>
      <point x="341" y="368" type="curve" smooth="yes"/>
      <point x="341" y="388" type="line" smooth="yes"/>
      <point x="341" y="434"/>
      <point x="313" y="468"/>
      <point x="253" y="468" type="curve" smooth="yes"/>
      <point x="193" y="468"/>
      <point x="165" y="434"/>
      <point x="165" y="388" type="curve" smooth="yes"/>
      <point x="165" y="368" type="line" smooth="yes"/>
      <point x="165" y="322"/>
      <point x="193" y="288"/>
    </contour>
  </outline>
</glyph>
<glyph name="uni2026" format="2">
  <advance width="1000"/>
  <unicode hex="2026"/>
  <outline>
    <contour>
      <point x="167" y="288" type="curve" smooth="yes"/>
      <point x="227" y="288"/>
      <point x="255" y="322"/>
      <point x="255" y="368" type="curve" smooth="yes"/>
      <point x="255" y="388" type="line" smooth="yes"/>
      <point x="255" y="434"/>
      <point x="227" y="468"/>
      <point x="167" y="468" type="curve" smooth="yes"/>
      <point x="107" y="468"/>
      <point x="79" y="434"/>
      <point x="79" y="388" type="curve" smooth="yes"/>
      <point x="79" y="368" type="line" smooth="yes"/>
      <point x="79" y="322"/>
      <point x="107" y="288"/>
    </contour>
    <contour>
      <point x="500" y="288" type="curve" smooth="yes"/>
      <point x="560" y="288"/>
      <point x="588" y="322"/>
      <point x="588" y="368" type="curve" smooth="yes"/>
      <point x="588" y="388" type="line" smooth="yes"/>
      <point x="588" y="434"/>
      <point x="560" y="468"/>
      <point x="500" y="468" type="curve" smooth="yes"/>
      <point x="440" y="468"/>
      <point x="412" y="434"/>
      <point x="412" y="388" type="curve" smooth="yes"/>
      <point x="412" y="368" type="line" smooth="yes"/>
      <point x="412" y="322"/>
      <point x="440" y="288"/>
    </contour>
    <contour>
      <point x="833" y="288" type="curve" smooth="yes"/>
      <point x="893" y="288"/>
      <point x="921" y="322"/>
      <point x="921" y="368" type="curve" smooth="yes"/>
      <point x="921" y="388" type="line" smooth="yes"/>
      <point x="921" y="434"/>
      <point x="893" y="468"/>
      <point x="833" y="468" type="curve" smooth="yes"/>
      <point x="773" y="468"/>
      <point x="745" y="434"/>
      <point x="745" y="388" type="curve" smooth="yes"/>
      <point x="745" y="368" type="line" smooth="yes"/>
      <point x="745" y="322"/>
      <point x="773" y="288"/>
    </contour>
  </outline>
</glyph>
<glyph name="uni2030" format="2">
  <advance width="1000"/>
  <unicode hex="2030"/>
  <outline>
    <contour>
      <point x="230" y="0" type="line"/>
      <point x="587" y="733" type="line"/>
      <point x="494" y="733" type="line"/>
      <point x="138" y="0" type="line"/>
    </contour>
    <contour>
      <point x="183" y="350" type="curve" smooth="yes"/>
      <point x="266" y="350"/>
      <point x="309" y="407"/>
      <point x="309" y="548" type="curve" smooth="yes"/>
      <point x="309" y="689"/>
      <point x="266" y="746"/>
      <point x="183" y="746" type="curve" smooth="yes"/>
      <point x="100" y="746"/>
      <point x="56" y="689"/>
      <point x="56" y="548" type="curve" smooth="yes"/>
      <point x="56" y="407"/>
      <point x="100" y="350"/>
    </contour>
    <contour>
      <point x="183" y="436" type="curve" smooth="yes"/>
      <point x="158" y="436"/>
      <point x="149" y="457"/>
      <point x="149" y="477" type="curve" smooth="yes"/>
      <point x="149" y="619" type="line" smooth="yes"/>
      <point x="149" y="639"/>
      <point x="158" y="660"/>
      <point x="183" y="660" type="curve" smooth="yes"/>
      <point x="207" y="660"/>
      <point x="216" y="639"/>
      <point x="216" y="619" type="curve" smooth="yes"/>
      <point x="216" y="477" type="line" smooth="yes"/>
      <point x="216" y="457"/>
      <point x="207" y="436"/>
    </contour>
    <contour>
      <point x="534" y="-13" type="curve" smooth="yes"/>
      <point x="617" y="-13"/>
      <point x="660" y="44"/>
      <point x="660" y="185" type="curve" smooth="yes"/>
      <point x="660" y="326"/>
      <point x="617" y="383"/>
      <point x="534" y="383" type="curve" smooth="yes"/>
      <point x="451" y="383"/>
      <point x="407" y="326"/>
      <point x="407" y="185" type="curve" smooth="yes"/>
      <point x="407" y="44"/>
      <point x="451" y="-13"/>
    </contour>
    <contour>
      <point x="534" y="73" type="curve" smooth="yes"/>
      <point x="509" y="73"/>
      <point x="500" y="94"/>
      <point x="500" y="114" type="curve" smooth="yes"/>
      <point x="500" y="256" type="line" smooth="yes"/>
      <point x="500" y="276"/>
      <point x="509" y="297"/>
      <point x="534" y="297" type="curve" smooth="yes"/>
      <point x="558" y="297"/>
      <point x="567" y="276"/>
      <point x="567" y="256" type="curve" smooth="yes"/>
      <point x="567" y="114" type="line" smooth="yes"/>
      <point x="567" y="94"/>
      <point x="558" y="73"/>
    </contour>
    <contour>
      <point x="821" y="-13" type="curve" smooth="yes"/>
      <point x="904" y="-13"/>
      <point x="947" y="44"/>
      <point x="947" y="185" type="curve" smooth="yes"/>
      <point x="947" y="326"/>
      <point x="904" y="383"/>
      <point x="821" y="383" type="curve" smooth="yes"/>
      <point x="738" y="383"/>
      <point x="694" y="326"/>
      <point x="694" y="185" type="curve" smooth="yes"/>
      <point x="694" y="44"/>
      <point x="738" y="-13"/>
    </contour>
    <contour>
      <point x="821" y="73" type="curve" smooth="yes"/>
      <point x="796" y="73"/>
      <point x="787" y="94"/>
      <point x="787" y="114" type="curve" smooth="yes"/>
      <point x="787" y="256" type="line" smooth="yes"/>
      <point x="787" y="276"/>
      <point x="796" y="297"/>
      <point x="821" y="297" type="curve" smooth="yes"/>
      <point x="845" y="297"/>
      <point x="854" y="276"/>
      <point x="854" y="256" type="curve" smooth="yes"/>
      <point x="854" y="114" type="line" smooth="yes"/>
      <point x="854" y="94"/>
      <point x="845" y="73"/>
    </contour>
  </outline>
</glyph>
<glyph name="uni2035" format="2">
  <advance width="1000"/>
  <unicode hex="2035"/>
  <outline>
    <contour>
      <point x="453" y="764" type="line"/>
      <point x="345" y="764" type="line"/>
      <point x="503" y="411" type="line"/>
      <point x="570" y="411" type="line"/>
    </contour>
  </outline>
</glyph>
<glyph name="uni205D" format="2">
  <advance width="1000"/>
  <unicode hex="205D"/>
  <outline>
    <contour>
      <point x="410" y="713" type="curve" smooth="yes"/>
      <point x="410" y="653"/>
      <point x="444" y="625"/>
      <point x="490" y="625" type="curve" smooth="yes"/>
      <point x="510" y="625" type="line" smooth="yes"/>
      <point x="556" y="625"/>
      <point x="590" y="653"/>
      <point x="590" y="713" type="curve" smooth="yes"/>
      <point x="590" y="773"/>
      <point x="556" y="801"/>
      <point x="510" y="801" type="curve" smooth="yes"/>
      <point x="490" y="801" type="line" smooth="yes"/>
      <point x="444" y="801"/>
      <point x="410" y="773"/>
    </contour>
    <contour>
      <point x="410" y="380" type="curve" smooth="yes"/>
      <point x="410" y="320"/>
      <point x="444" y="292"/>
      <point x="490" y="292" type="curve" smooth="yes"/>
      <point x="510" y="292" type="line" smooth="yes"/>
      <point x="556" y="292"/>
      <point x="590" y="320"/>
      <point x="590" y="380" type="curve" smooth="yes"/>
      <point x="590" y="440"/>
      <point x="556" y="468"/>
      <point x="510" y="468" type="curve" smooth="yes"/>
      <point x="490" y="468" type="line" smooth="yes"/>
      <point x="444" y="468"/>
      <point x="410" y="440"/>
    </contour>
    <contour>
      <point x="410" y="47" type="curve" smooth="yes"/>
      <point x="410" y="-13"/>
      <point x="444" y="-41"/>
      <point x="490" y="-41" type="curve" smooth="yes"/>
      <point x="510" y="-41" type="line" smooth="yes"/>
      <point x="556" y="-41"/>
      <point x="590" y="-13"/>
      <point x="590" y="47" type="curve" smooth="yes"/>
      <point x="590" y="107"/>
      <point x="556" y="135"/>
      <point x="510" y="135" type="curve" smooth="yes"/>
      <point x="490" y="135" type="line" smooth="yes"/>
      <point x="444" y="135"/>
      <point x="410" y="107"/>
    </contour>
  </outline>
</glyph>
<glyph name="uni2109" format="2">
  <advance width="1000"/>
  <unicode hex="2109"/>
  <outline>
    <contour>
      <point x="211" y="441" type="curve" smooth="yes"/>
      <point x="296" y="441"/>
      <point x="361" y="506"/>
      <point x="361" y="593" type="curve" smooth="yes"/>
      <point x="361" y="680"/>
      <point x="296" y="745"/>
      <point x="211" y="745" type="curve" smooth="yes"/>
      <point x="126" y="745"/>
      <point x="61" y="680"/>
      <point x="61" y="593" type="curve" smooth="yes"/>
      <point x="61" y="506"/>
      <point x="126" y="441"/>
    </contour>
    <contour>
      <point x="211" y="523" type="curve" smooth="yes"/>
      <point x="173" y="523"/>
      <point x="148" y="553"/>
      <point x="148" y="593" type="curve" smooth="yes"/>
      <point x="148" y="633"/>
      <point x="173" y="663"/>
      <point x="211" y="663" type="curve" smooth="yes"/>
      <point x="249" y="663"/>
      <point x="274" y="633"/>
      <point x="274" y="593" type="curve" smooth="yes"/>
      <point x="274" y="553"/>
      <point x="249" y="523"/>
    </contour>
    <contour>
      <point x="615" y="304" type="line"/>
      <point x="897" y="304" type="line"/>
      <point x="897" y="438" type="line"/>
      <point x="615" y="438" type="line"/>
      <point x="615" y="598" type="line"/>
      <point x="943" y="598" type="line"/>
      <point x="943" y="733" type="line"/>
      <point x="463" y="733" type="line"/>
      <point x="463" y="0" type="line"/>
      <point x="615" y="0" type="line"/>
    </contour>
  </outline>
</glyph>
<glyph name="uni2116" format="2">
  <advance width="1000"/>
  <unicode hex="2116"/>
  <outline>
    <contour>
      <point x="205" y="0" type="line"/>
      <point x="205" y="504" type="line"/>
      <point x="207" y="504" type="line"/>
      <point x="268" y="337" type="line"/>
      <point x="433" y="0" type="line"/>
      <point x="586" y="0" type="line"/>
      <point x="586" y="733" type="line"/>
      <point x="454" y="733" type="line"/>
      <point x="454" y="229" type="line"/>
      <point x="451" y="229" type="line"/>
      <point x="391" y="386" type="line"/>
      <point x="226" y="733" type="line"/>
      <point x="73" y="733" type="line"/>
      <point x="73" y="0" type="line"/>
    </contour>
    <contour>
      <point x="963" y="229" type="line"/>
      <point x="963" y="312" type="line"/>
      <point x="647" y="312" type="line"/>
      <point x="647" y="229" type="line"/>
    </contour>
    <contour>
      <point x="804" y="376" type="curve" smooth="yes"/>
      <point x="908" y="376"/>
      <point x="970" y="445"/>
      <point x="970" y="561" type="curve" smooth="yes"/>
      <point x="970" y="678"/>
      <point x="908" y="746"/>
      <point x="804" y="746" type="curve" smooth="yes"/>
      <point x="702" y="746"/>
      <point x="640" y="678"/>
      <point x="640" y="561" type="curve" smooth="yes"/>
      <point x="640" y="445"/>
      <point x="702" y="376"/>
    </contour>
    <contour>
      <point x="804" y="459" type="curve" smooth="yes"/>
      <point x="772" y="459"/>
      <point x="751" y="485"/>
      <point x="751" y="532" type="curve" smooth="yes"/>
      <point x="751" y="589" type="line" smooth="yes"/>
      <point x="751" y="637"/>
      <point x="772" y="662"/>
      <point x="804" y="662" type="curve" smooth="yes"/>
      <point x="836" y="662"/>
      <point x="859" y="637"/>
      <point x="859" y="589" type="curve" smooth="yes"/>
      <point x="859" y="532" type="line" smooth="yes"/>
      <point x="859" y="485"/>
      <point x="836" y="459"/>
    </contour>
  </outline>
</glyph>
<glyph name="uni2121" format="2">
  <advance width="1000"/>
  <unicode hex="2121"/>
  <outline>
    <contour>
      <point x="365" y="613" type="line"/>
      <point x="365" y="733" type="line"/>
      <point x="48" y="733" type="line"/>
      <point x="48" y="613" type="line"/>
      <point x="144" y="613" type="line"/>
      <point x="144" y="0" type="line"/>
      <point x="264" y="0" type="line"/>
      <point x="264" y="613" type="line"/>
    </contour>
    <contour>
      <point x="643" y="0" type="line"/>
      <point x="643" y="111" type="line"/>
      <point x="490" y="111" type="line"/>
      <point x="490" y="222" type="line"/>
      <point x="616" y="222" type="line"/>
      <point x="616" y="333" type="line"/>
      <point x="490" y="333" type="line"/>
      <point x="490" y="438" type="line"/>
      <point x="643" y="438" type="line"/>
      <point x="643" y="549" type="line"/>
      <point x="372" y="549" type="line"/>
      <point x="372" y="0" type="line"/>
    </contour>
    <contour>
      <point x="952" y="0" type="line"/>
      <point x="952" y="112" type="line"/>
      <point x="806" y="112" type="line"/>
      <point x="806" y="549" type="line"/>
      <point x="686" y="549" type="line"/>
      <point x="686" y="0" type="line"/>
    </contour>
  </outline>
</glyph>
<glyph name="uni2161" format="2">
  <advance width="1000"/>
  <unicode hex="2161"/>
  <outline>
    <contour>
      <point x="99" y="0" type="line"/>
      <point x="448" y="0" type="line"/>
      <point x="448" y="118" type="line"/>
      <point x="346" y="118" type="line"/>
      <point x="346" y="615" type="line"/>
      <point x="448" y="615" type="line"/>
      <point x="448" y="733" type="line"/>
      <point x="99" y="733" type="line"/>
      <point x="99" y="615" type="line"/>
      <point x="200" y="615" type="line"/>
      <point x="200" y="118" type="line"/>
      <point x="99" y="118" type="line"/>
    </contour>
    <contour>
      <point x="552" y="0" type="line"/>
      <point x="901" y="0" type="line"/>
      <point x="901" y="118" type="line"/>
      <point x="800" y="118" type="line"/>
      <point x="800" y="615" type="line"/>
      <point x="901" y="615" type="line"/>
      <point x="901" y="733" type="line"/>
      <point x="552" y="733" type="line"/>
      <point x="552" y="615" type="line"/>
      <point x="654" y="615" type="line"/>
      <point x="654" y="118" type="line"/>
      <point x="552" y="118" type="line"/>
    </contour>
  </outline>
</glyph>
<glyph name="uni2163" format="2">
  <advance width="1000"/>
  <unicode hex="2163"/>
  <outline>
    <contour>
      <point x="779" y="0" type="line"/>
      <point x="981" y="733" type="line"/>
      <point x="825" y="733" type="line"/>
      <point x="738" y="384" type="line"/>
      <point x="699" y="170" type="line"/>
      <point x="696" y="170" type="line"/>
      <point x="652" y="384" type="line"/>
      <point x="566" y="733" type="line"/>
      <point x="411" y="733" type="line"/>
      <point x="607" y="0" type="line"/>
    </contour>
    <contour>
      <point x="384" y="0" type="line"/>
      <point x="384" y="118" type="line"/>
      <point x="285" y="118" type="line"/>
      <point x="285" y="615" type="line"/>
      <point x="384" y="615" type="line"/>
      <point x="384" y="733" type="line"/>
      <point x="43" y="733" type="line"/>
      <point x="43" y="615" type="line"/>
      <point x="141" y="615" type="line"/>
      <point x="141" y="118" type="line"/>
      <point x="43" y="118" type="line"/>
      <point x="43" y="0" type="line"/>
    </contour>
  </outline>
</glyph>
<glyph name="uni2165" format="2">
  <advance width="1000"/>
  <unicode hex="2165"/>
  <outline>
    <contour>
      <point x="387" y="0" type="line"/>
      <point x="589" y="733" type="line"/>
      <point x="433" y="733" type="line"/>
      <point x="346" y="384" type="line"/>
      <point x="307" y="170" type="line"/>
      <point x="304" y="170" type="line"/>
      <point x="260" y="384" type="line"/>
      <point x="174" y="733" type="line"/>
      <point x="19" y="733" type="line"/>
      <point x="215" y="0" type="line"/>
    </contour>
    <contour>
      <point x="957" y="0" type="line"/>
      <point x="957" y="118" type="line"/>
      <point x="858" y="118" type="line"/>
      <point x="858" y="615" type="line"/>
      <point x="957" y="615" type="line"/>
      <point x="957" y="733" type="line"/>
      <point x="616" y="733" type="line"/>
      <point x="616" y="615" type="line"/>
      <point x="714" y="615" type="line"/>
      <point x="714" y="118" type="line"/>
      <point x="616" y="118" type="line"/>
      <point x="616" y="0" type="line"/>
    </contour>
  </outline>
</glyph>
<glyph name="uni2166" format="2">
  <advance width="1000"/>
  <unicode hex="2166"/>
  <outline>
    <contour>
      <point x="327" y="0" type="line"/>
      <point x="452" y="733" type="line"/>
      <point x="308" y="733" type="line"/>
      <point x="257" y="381" type="line"/>
      <point x="238" y="151" type="line"/>
      <point x="234" y="151" type="line"/>
      <point x="210" y="381" type="line"/>
      <point x="159" y="733" type="line"/>
      <point x="15" y="733" type="line"/>
      <point x="148" y="0" type="line"/>
    </contour>
    <contour>
      <point x="705" y="0" type="line"/>
      <point x="705" y="113" type="line"/>
      <point x="649" y="113" type="line"/>
      <point x="649" y="620" type="line"/>
      <point x="705" y="620" type="line"/>
      <point x="705" y="733" type="line"/>
      <point x="465" y="733" type="line"/>
      <point x="465" y="620" type="line"/>
      <point x="521" y="620" type="line"/>
      <point x="521" y="113" type="line"/>
      <point x="465" y="113" type="line"/>
      <point x="465" y="0" type="line"/>
    </contour>
    <contour>
      <point x="972" y="0" type="line"/>
      <point x="972" y="113" type="line"/>
      <point x="915" y="113" type="line"/>
      <point x="915" y="620" type="line"/>
      <point x="972" y="620" type="line"/>
      <point x="972" y="733" type="line"/>
      <point x="730" y="733" type="line"/>
      <point x="730" y="620" type="line"/>
      <point x="787" y="620" type="line"/>
      <point x="787" y="113" type="line"/>
      <point x="730" y="113" type="line"/>
      <point x="730" y="0" type="line"/>
    </contour>
  </outline>
</glyph>
<glyph name="uni2167" format="2">
  <advance width="1000"/>
  <unicode hex="2167"/>
  <outline>
    <contour>
      <point x="245" y="0" type="line"/>
      <point x="327" y="733" type="line"/>
      <point x="213" y="733" type="line"/>
      <point x="186" y="371" type="line"/>
      <point x="173" y="171" type="line"/>
      <point x="169" y="171" type="line"/>
      <point x="155" y="371" type="line"/>
      <point x="124" y="733" type="line"/>
      <point x="10" y="733" type="line"/>
      <point x="98" y="0" type="line"/>
    </contour>
    <contour>
      <point x="537" y="0" type="line"/>
      <point x="537" y="103" type="line"/>
      <point x="489" y="103" type="line"/>
      <point x="489" y="630" type="line"/>
      <point x="537" y="630" type="line"/>
      <point x="537" y="733" type="line"/>
      <point x="336" y="733" type="line"/>
      <point x="336" y="630" type="line"/>
      <point x="384" y="630" type="line"/>
      <point x="384" y="103" type="line"/>
      <point x="336" y="103" type="line"/>
      <point x="336" y="0" type="line"/>
    </contour>
    <contour>
      <point x="760" y="0" type="line"/>
      <point x="760" y="103" type="line"/>
      <point x="711" y="103" type="line"/>
      <point x="711" y="630" type="line"/>
      <point x="760" y="630" type="line"/>
      <point x="760" y="733" type="line"/>
      <point x="557" y="733" type="line"/>
      <point x="557" y="630" type="line"/>
      <point x="606" y="630" type="line"/>
      <point x="606" y="103" type="line"/>
      <point x="557" y="103" type="line"/>
      <point x="557" y="0" type="line"/>
    </contour>
    <contour>
      <point x="983" y="0" type="line"/>
      <point x="983" y="103" type="line"/>
      <point x="934" y="103" type="line"/>
      <point x="934" y="630" type="line"/>
      <point x="983" y="630" type="line"/>
      <point x="983" y="733" type="line"/>
      <point x="780" y="733" type="line"/>
      <point x="780" y="630" type="line"/>
      <point x="829" y="630" type="line"/>
      <point x="829" y="103" type="line"/>
      <point x="780" y="103" type="line"/>
      <point x="780" y="0" type="line"/>
    </contour>
  </outline>
</glyph>
<glyph name="uni2168" format="2">
  <advance width="1000"/>
  <unicode hex="2168"/>
  <outline>
    <contour>
      <point x="553" y="0" type="line"/>
      <point x="679" y="274" type="line"/>
      <point x="682" y="274" type="line"/>
      <point x="812" y="0" type="line"/>
      <point x="981" y="0" type="line"/>
      <point x="785" y="376" type="line"/>
      <point x="970" y="733" type="line"/>
      <point x="810" y="733" type="line"/>
      <point x="691" y="480" type="line"/>
      <point x="688" y="480" type="line"/>
      <point x="571" y="733" type="line"/>
      <point x="400" y="733" type="line"/>
      <point x="585" y="378" type="line"/>
      <point x="392" y="0" type="line"/>
    </contour>
    <contour>
      <point x="384" y="0" type="line"/>
      <point x="384" y="118" type="line"/>
      <point x="285" y="118" type="line"/>
      <point x="285" y="615" type="line"/>
      <point x="384" y="615" type="line"/>
      <point x="384" y="733" type="line"/>
      <point x="43" y="733" type="line"/>
      <point x="43" y="615" type="line"/>
      <point x="141" y="615" type="line"/>
      <point x="141" y="118" type="line"/>
      <point x="43" y="118" type="line"/>
      <point x="43" y="0" type="line"/>
    </contour>
  </outline>
</glyph>
<glyph name="uni216A" format="2">
  <advance width="1000"/>
  <unicode hex="216A"/>
  <outline>
    <contour>
      <point x="180" y="0" type="line"/>
      <point x="306" y="274" type="line"/>
      <point x="309" y="274" type="line"/>
      <point x="439" y="0" type="line"/>
      <point x="608" y="0" type="line"/>
      <point x="412" y="376" type="line"/>
      <point x="597" y="733" type="line"/>
      <point x="437" y="733" type="line"/>
      <point x="318" y="480" type="line"/>
      <point x="315" y="480" type="line"/>
      <point x="198" y="733" type="line"/>
      <point x="27" y="733" type="line"/>
      <point x="212" y="378" type="line"/>
      <point x="19" y="0" type="line"/>
    </contour>
    <contour>
      <point x="957" y="0" type="line"/>
      <point x="957" y="118" type="line"/>
      <point x="858" y="118" type="line"/>
      <point x="858" y="615" type="line"/>
      <point x="957" y="615" type="line"/>
      <point x="957" y="733" type="line"/>
      <point x="616" y="733" type="line"/>
      <point x="616" y="615" type="line"/>
      <point x="714" y="615" type="line"/>
      <point x="714" y="118" type="line"/>
      <point x="616" y="118" type="line"/>
      <point x="616" y="0" type="line"/>
    </contour>
  </outline>
</glyph>
<glyph name="uni2173" format="2">
  <advance width="1000"/>
  <unicode hex="2173"/>
  <outline>
    <contour>
      <point x="717" y="0" type="line"/>
      <point x="898" y="550" type="line"/>
      <point x="759" y="550" type="line"/>
      <point x="689" y="322" type="line"/>
      <point x="638" y="124" type="line"/>
      <point x="629" y="124" type="line"/>
      <point x="577" y="322" type="line"/>
      <point x="506" y="550" type="line"/>
      <point x="360" y="550" type="line"/>
      <point x="542" y="0" type="line"/>
    </contour>
    <contour>
      <point x="300" y="0" type="line"/>
      <point x="300" y="550" type="line"/>
      <point x="152" y="550" type="line"/>
      <point x="152" y="0" type="line"/>
    </contour>
    <contour>
      <point x="225" y="617" type="curve" smooth="yes"/>
      <point x="285" y="617"/>
      <point x="311" y="648"/>
      <point x="311" y="690" type="curve" smooth="yes"/>
      <point x="311" y="712" type="line" smooth="yes"/>
      <point x="311" y="754"/>
      <point x="285" y="785"/>
      <point x="225" y="785" type="curve" smooth="yes"/>
      <point x="165" y="785"/>
      <point x="139" y="754"/>
      <point x="139" y="712" type="curve" smooth="yes"/>
      <point x="139" y="690" type="line" smooth="yes"/>
      <point x="139" y="648"/>
      <point x="165" y="617"/>
    </contour>
  </outline>
</glyph>
<glyph name="uni2174" format="2">
  <advance width="1000"/>
  <unicode hex="2174"/>
  <outline>
    <contour>
      <point x="588" y="0" type="line"/>
      <point x="778" y="550" type="line"/>
      <point x="638" y="550" type="line"/>
      <point x="565" y="322" type="line"/>
      <point x="509" y="124" type="line"/>
      <point x="500" y="124" type="line"/>
      <point x="443" y="322" type="line"/>
      <point x="369" y="550" type="line"/>
      <point x="223" y="550" type="line"/>
      <point x="413" y="0" type="line"/>
    </contour>
  </outline>
</glyph>
<glyph name="uni2177" format="2">
  <advance width="1000"/>
  <unicode hex="2177"/>
  <outline>
    <contour>
      <point x="312" y="0" type="line"/>
      <point x="441" y="550" type="line"/>
      <point x="315" y="550" type="line"/>
      <point x="267" y="322" type="line"/>
      <point x="236" y="124" type="line"/>
      <point x="227" y="124" type="line"/>
      <point x="194" y="322" type="line"/>
      <point x="145" y="550" type="line"/>
      <point x="15" y="550" type="line"/>
      <point x="145" y="0" type="line"/>
    </contour>
    <contour>
      <point x="579" y="0" type="line"/>
      <point x="579" y="550" type="line"/>
      <point x="459" y="550" type="line"/>
      <point x="459" y="0" type="line"/>
    </contour>
    <contour>
      <point x="771" y="0" type="line"/>
      <point x="771" y="550" type="line"/>
      <point x="651" y="550" type="line"/>
      <point x="651" y="0" type="line"/>
    </contour>
    <contour>
      <point x="963" y="0" type="line"/>
      <point x="963" y="550" type="line"/>
      <point x="843" y="550" type="line"/>
      <point x="843" y="0" type="line"/>
    </contour>
    <contour>
      <point x="519" y="617" type="curve" smooth="yes"/>
      <point x="576" y="617"/>
      <point x="590" y="648"/>
      <point x="590" y="690" type="curve" smooth="yes"/>
      <point x="590" y="712" type="line" smooth="yes"/>
      <point x="590" y="754"/>
      <point x="576" y="785"/>
      <point x="519" y="785" type="curve" smooth="yes"/>
      <point x="463" y="785"/>
      <point x="447" y="754"/>
      <point x="447" y="712" type="curve" smooth="yes"/>
      <point x="447" y="690" type="line" smooth="yes"/>
      <point x="447" y="648"/>
      <point x="463" y="617"/>
    </contour>
    <contour>
      <point x="711" y="617" type="curve" smooth="yes"/>
      <point x="768" y="617"/>
      <point x="782" y="648"/>
      <point x="782" y="690" type="curve" smooth="yes"/>
      <point x="782" y="712" type="line" smooth="yes"/>
      <point x="782" y="754"/>
      <point x="768" y="785"/>
      <point x="711" y="785" type="curve" smooth="yes"/>
      <point x="655" y="785"/>
      <point x="639" y="754"/>
      <point x="639" y="712" type="curve" smooth="yes"/>
      <point x="639" y="690" type="line" smooth="yes"/>
      <point x="639" y="648"/>
      <point x="655" y="617"/>
    </contour>
    <contour>
      <point x="903" y="617" type="curve" smooth="yes"/>
      <point x="960" y="617"/>
      <point x="974" y="648"/>
      <point x="974" y="690" type="curve" smooth="yes"/>
      <point x="974" y="712" type="line" smooth="yes"/>
      <point x="974" y="754"/>
      <point x="960" y="785"/>
      <point x="903" y="785" type="curve" smooth="yes"/>
      <point x="847" y="785"/>
      <point x="831" y="754"/>
      <point x="831" y="712" type="curve" smooth="yes"/>
      <point x="831" y="690" type="line" smooth="yes"/>
      <point x="831" y="648"/>
      <point x="847" y="617"/>
    </contour>
  </outline>
</glyph>
<glyph name="uni2178" format="2">
  <advance width="1000"/>
  <unicode hex="2178"/>
  <outline>
    <contour>
      <point x="509" y="0" type="line"/>
      <point x="616" y="184" type="line"/>
      <point x="621" y="184" type="line"/>
      <point x="731" y="0" type="line"/>
      <point x="898" y="0" type="line"/>
      <point x="713" y="275" type="line"/>
      <point x="897" y="550" type="line"/>
      <point x="741" y="550" type="line"/>
      <point x="637" y="374" type="line"/>
      <point x="632" y="374" type="line"/>
      <point x="525" y="550" type="line"/>
      <point x="358" y="550" type="line"/>
      <point x="540" y="279" type="line"/>
      <point x="355" y="0" type="line"/>
    </contour>
    <contour>
      <point x="300" y="0" type="line"/>
      <point x="300" y="550" type="line"/>
      <point x="152" y="550" type="line"/>
      <point x="152" y="0" type="line"/>
    </contour>
    <contour>
      <point x="226" y="617" type="curve" smooth="yes"/>
      <point x="286" y="617"/>
      <point x="312" y="648"/>
      <point x="312" y="690" type="curve" smooth="yes"/>
      <point x="312" y="712" type="line" smooth="yes"/>
      <point x="312" y="754"/>
      <point x="286" y="785"/>
      <point x="226" y="785" type="curve" smooth="yes"/>
      <point x="166" y="785"/>
      <point x="140" y="754"/>
      <point x="140" y="712" type="curve" smooth="yes"/>
      <point x="140" y="690" type="line" smooth="yes"/>
      <point x="140" y="648"/>
      <point x="166" y="617"/>
    </contour>
  </outline>
</glyph>
<glyph name="uni2191" format="2">
  <advance width="1000"/>
  <unicode hex="2191"/>
  <outline>
    <contour>
      <point x="500" y="754" type="line"/>
      <point x="251" y="505" type="line"/>
      <point x="331" y="425" type="line"/>
      <point x="401" y="495" type="line"/>
      <point x="439" y="539" type="line"/>
      <point x="443" y="538" type="line"/>
      <point x="439" y="458" type="line"/>
      <point x="439" y="10" type="line"/>
      <point x="561" y="10" type="line"/>
      <point x="561" y="458" type="line"/>
      <point x="557" y="538" type="line"/>
      <point x="561" y="539" type="line"/>
      <point x="599" y="495" type="line"/>
      <point x="669" y="425" type="line"/>
      <point x="749" y="505" type="line"/>
    </contour>
  </outline>
</glyph>
<glyph name="uni2193" format="2">
  <advance width="1000"/>
  <unicode hex="2193"/>
  <outline>
    <contour>
      <point x="669" y="329" type="line"/>
      <point x="599" y="259" type="line"/>
      <point x="561" y="215" type="line"/>
      <point x="557" y="216" type="line"/>
      <point x="561" y="296" type="line"/>
      <point x="561" y="744" type="line"/>
      <point x="439" y="744" type="line"/>
      <point x="439" y="296" type="line"/>
      <point x="443" y="216" type="line"/>
      <point x="439" y="215" type="line"/>
      <point x="401" y="259" type="line"/>
      <point x="331" y="329" type="line"/>
      <point x="251" y="249" type="line"/>
      <point x="500" y="0" type="line"/>
      <point x="749" y="249" type="line"/>
    </contour>
  </outline>
</glyph>
<glyph name="uni2195" format="2">
  <advance width="1000"/>
  <unicode hex="2195"/>
  <outline>
    <contour>
      <point x="750" y="252" type="line"/>
      <point x="673" y="332" type="line"/>
      <point x="604" y="264" type="line"/>
      <point x="561" y="213" type="line"/>
      <point x="557" y="214" type="line"/>
      <point x="561" y="305" type="line"/>
      <point x="561" y="455" type="line"/>
      <point x="557" y="546" type="line"/>
      <point x="561" y="547" type="line"/>
      <point x="604" y="496" type="line"/>
      <point x="673" y="428" type="line"/>
      <point x="750" y="508" type="line"/>
      <point x="500" y="759" type="line"/>
      <point x="250" y="508" type="line"/>
      <point x="327" y="428" type="line"/>
      <point x="396" y="496" type="line"/>
      <point x="439" y="547" type="line"/>
      <point x="443" y="546" type="line"/>
      <point x="439" y="455" type="line"/>
      <point x="439" y="305" type="line"/>
      <point x="443" y="214" type="line"/>
      <point x="439" y="213" type="line"/>
      <point x="396" y="264" type="line"/>
      <point x="327" y="332" type="line"/>
      <point x="250" y="252" type="line"/>
      <point x="500" y="1" type="line"/>
    </contour>
  </outline>
</glyph>
<glyph name="uni2196" format="2">
  <advance width="1000"/>
  <unicode hex="2196"/>
  <outline>
    <contour>
      <point x="799" y="183" type="line"/>
      <point x="486" y="496" type="line"/>
      <point x="427" y="550" type="line"/>
      <point x="429" y="553" type="line"/>
      <point x="487" y="549" type="line"/>
      <point x="582" y="549" type="line"/>
      <point x="582" y="662" type="line"/>
      <point x="234" y="662" type="line"/>
      <point x="234" y="314" type="line"/>
      <point x="347" y="314" type="line"/>
      <point x="347" y="409" type="line"/>
      <point x="343" y="467" type="line"/>
      <point x="346" y="469" type="line"/>
      <point x="400" y="410" type="line"/>
      <point x="713" y="97" type="line"/>
    </contour>
  </outline>
</glyph>
<glyph name="uni2199" format="2">
  <advance width="1000"/>
  <unicode hex="2199"/>
  <outline>
    <contour>
      <point x="582" y="102" type="line"/>
      <point x="582" y="215" type="line"/>
      <point x="487" y="215" type="line"/>
      <point x="429" y="211" type="line"/>
      <point x="427" y="214" type="line"/>
      <point x="486" y="268" type="line"/>
      <point x="799" y="581" type="line"/>
      <point x="713" y="667" type="line"/>
      <point x="400" y="354" type="line"/>
      <point x="346" y="295" type="line"/>
      <point x="343" y="297" type="line"/>
      <point x="347" y="355" type="line"/>
      <point x="347" y="450" type="line"/>
      <point x="234" y="450" type="line"/>
      <point x="234" y="102" type="line"/>
    </contour>
  </outline>
</glyph>
<glyph name="uni21AA" format="2">
  <advance width="1000"/>
  <unicode hex="21AA"/>
  <outline>
    <contour>
      <point x="870" y="325" type="line"/>
      <point x="619" y="576" type="line"/>
      <point x="539" y="496" type="line"/>
      <point x="607" y="429" type="line"/>
      <point x="655" y="387" type="line"/>
      <point x="654" y="382" type="line"/>
      <point x="563" y="387" type="line"/>
      <point x="370" y="387" type="line" smooth="yes"/>
      <point x="315" y="387"/>
      <point x="267" y="413"/>
      <point x="267" y="477" type="curve" smooth="yes"/>
      <point x="267" y="542"/>
      <point x="315" y="567"/>
      <point x="370" y="567" type="curve"/>
      <point x="370" y="681" type="line"/>
      <point x="241" y="681"/>
      <point x="128" y="610"/>
      <point x="128" y="472" type="curve" smooth="yes"/>
      <point x="128" y="336"/>
      <point x="241" y="265"/>
      <point x="370" y="265" type="curve" smooth="yes"/>
      <point x="563" y="265" type="line"/>
      <point x="654" y="270" type="line"/>
      <point x="655" y="265" type="line"/>
      <point x="607" y="222" type="line"/>
      <point x="539" y="155" type="line"/>
      <point x="619" y="75" type="line"/>
    </contour>
  </outline>
</glyph>
<glyph name="uni21B1" format="2">
  <advance width="1000"/>
  <unicode hex="21B1"/>
  <outline>
    <contour>
      <point x="345" y="14" type="line"/>
      <point x="345" y="446" type="line"/>
      <point x="480" y="446" type="line"/>
      <point x="560" y="450" type="line"/>
      <point x="561" y="446" type="line"/>
      <point x="517" y="408" type="line"/>
      <point x="448" y="339" type="line"/>
      <point x="528" y="259" type="line"/>
      <point x="776" y="507" type="line"/>
      <point x="528" y="755" type="line"/>
      <point x="448" y="675" type="line"/>
      <point x="517" y="606" type="line"/>
      <point x="561" y="568" type="line"/>
      <point x="560" y="564" type="line"/>
      <point x="480" y="568" type="line"/>
      <point x="223" y="568" type="line"/>
      <point x="223" y="14" type="line"/>
    </contour>
  </outline>
</glyph>
<glyph name="uni21B2" format="2">
  <advance width="1000"/>
  <unicode hex="21B2"/>
  <outline>
    <contour>
      <point x="551" y="83" type="line"/>
      <point x="482" y="152" type="line"/>
      <point x="438" y="190" type="line"/>
      <point x="439" y="194" type="line"/>
      <point x="519" y="190" type="line"/>
      <point x="776" y="190" type="line"/>
      <point x="776" y="744" type="line"/>
      <point x="654" y="744" type="line"/>
      <point x="654" y="312" type="line"/>
      <point x="519" y="312" type="line"/>
      <point x="439" y="308" type="line"/>
      <point x="438" y="312" type="line"/>
      <point x="482" y="350" type="line"/>
      <point x="551" y="419" type="line"/>
      <point x="471" y="499" type="line"/>
      <point x="223" y="251" type="line"/>
      <point x="471" y="3" type="line"/>
    </contour>
  </outline>
</glyph>
<glyph name="uni21B3" format="2">
  <advance width="1000"/>
  <unicode hex="21B3"/>
  <outline>
    <contour>
      <point x="777" y="251" type="line"/>
      <point x="529" y="499" type="line"/>
      <point x="449" y="419" type="line"/>
      <point x="518" y="350" type="line"/>
      <point x="562" y="312" type="line"/>
      <point x="561" y="308" type="line"/>
      <point x="481" y="312" type="line"/>
      <point x="346" y="312" type="line"/>
      <point x="346" y="744" type="line"/>
      <point x="224" y="744" type="line"/>
      <point x="224" y="190" type="line"/>
      <point x="481" y="190" type="line"/>
      <point x="561" y="194" type="line"/>
      <point x="562" y="190" type="line"/>
      <point x="518" y="152" type="line"/>
      <point x="449" y="83" type="line"/>
      <point x="529" y="3" type="line"/>
    </contour>
  </outline>
</glyph>
<glyph name="uni21B7" format="2">
  <advance width="1000"/>
  <unicode hex="21B7"/>
  <outline>
    <contour>
      <point x="942" y="302" type="line"/>
      <point x="862" y="382" type="line"/>
      <point x="793" y="313" type="line"/>
      <point x="755" y="269" type="line"/>
      <point x="751" y="270" type="line"/>
      <point x="755" y="363" type="line"/>
      <point x="755" y="375" type="line" smooth="yes"/>
      <point x="755" y="565"/>
      <point x="639" y="727"/>
      <point x="407" y="727" type="curve" smooth="yes"/>
      <point x="174" y="727"/>
      <point x="58" y="565"/>
      <point x="58" y="375" type="curve"/>
      <point x="181" y="375" type="line"/>
      <point x="181" y="497"/>
      <point x="248" y="612"/>
      <point x="407" y="612" type="curve" smooth="yes"/>
      <point x="566" y="612"/>
      <point x="633" y="499"/>
      <point x="633" y="375" type="curve" smooth="yes"/>
      <point x="633" y="363" type="line"/>
      <point x="637" y="270" type="line"/>
      <point x="633" y="269" type="line"/>
      <point x="595" y="313" type="line"/>
      <point x="526" y="382" type="line"/>
      <point x="446" y="302" type="line"/>
      <point x="694" y="54" type="line"/>
    </contour>
  </outline>
</glyph>
<glyph name="uni21BA" format="2">
  <advance width="1000"/>
  <unicode hex="21BA"/>
  <outline>
    <contour>
      <point x="501" y="5" type="curve" smooth="yes"/>
      <point x="695" y="5"/>
      <point x="854" y="137"/>
      <point x="854" y="332" type="curve" smooth="yes"/>
      <point x="854" y="465"/>
      <point x="781" y="540"/>
      <point x="713" y="603" type="curve" smooth="yes"/>
      <point x="683" y="631" type="line"/>
      <point x="685" y="634" type="line"/>
      <point x="743" y="630" type="line"/>
      <point x="839" y="630" type="line"/>
      <point x="839" y="743" type="line"/>
      <point x="490" y="743" type="line"/>
      <point x="490" y="394" type="line"/>
      <point x="603" y="394" type="line"/>
      <point x="603" y="490" type="line"/>
      <point x="599" y="548" type="line"/>
      <point x="602" y="550" type="line"/>
      <point x="635" y="517" type="line" smooth="yes"/>
      <point x="694" y="458"/>
      <point x="731" y="405"/>
      <point x="731" y="332" type="curve" smooth="yes"/>
      <point x="731" y="205"/>
      <point x="637" y="120"/>
      <point x="501" y="120" type="curve" smooth="yes"/>
      <point x="372" y="120"/>
      <point x="269" y="218"/>
      <point x="269" y="341" type="curve" smooth="yes"/>
      <point x="269" y="433"/>
      <point x="299" y="500"/>
      <point x="376" y="562" type="curve"/>
      <point x="297" y="646" type="line"/>
      <point x="189" y="556"/>
      <point x="146" y="465"/>
      <point x="146" y="341" type="curve" smooth="yes"/>
      <point x="146" y="156"/>
      <point x="306" y="5"/>
    </contour>
  </outline>
</glyph>
<glyph name="uni21BB" format="2">
  <advance width="1000"/>
  <unicode hex="21BB"/>
  <outline>
    <contour>
      <point x="499" y="5" type="curve" smooth="yes"/>
      <point x="694" y="5"/>
      <point x="854" y="156"/>
      <point x="854" y="341" type="curve" smooth="yes"/>
      <point x="854" y="465"/>
      <point x="811" y="555"/>
      <point x="703" y="646" type="curve"/>
      <point x="624" y="562" type="line"/>
      <point x="701" y="499"/>
      <point x="731" y="433"/>
      <point x="731" y="341" type="curve" smooth="yes"/>
      <point x="731" y="218"/>
      <point x="628" y="120"/>
      <point x="499" y="120" type="curve" smooth="yes"/>
      <point x="363" y="120"/>
      <point x="269" y="205"/>
      <point x="269" y="332" type="curve" smooth="yes"/>
      <point x="269" y="405"/>
      <point x="306" y="459"/>
      <point x="365" y="518" type="curve" smooth="yes"/>
      <point x="398" y="551" type="line"/>
      <point x="401" y="549" type="line"/>
      <point x="397" y="490" type="line"/>
      <point x="397" y="394" type="line"/>
      <point x="510" y="394" type="line"/>
      <point x="510" y="743" type="line"/>
      <point x="161" y="743" type="line"/>
      <point x="161" y="630" type="line"/>
      <point x="257" y="630" type="line"/>
      <point x="315" y="634" type="line"/>
      <point x="317" y="631" type="line"/>
      <point x="287" y="603" type="line" smooth="yes"/>
      <point x="219" y="540"/>
      <point x="146" y="465"/>
      <point x="146" y="332" type="curve" smooth="yes"/>
      <point x="146" y="137"/>
      <point x="305" y="5"/>
    </contour>
  </outline>
</glyph>
<glyph name="uni21C4" format="2">
  <advance width="1000"/>
  <unicode hex="21C4"/>
  <outline>
    <contour>
      <point x="870" y="551" type="line"/>
      <point x="622" y="799" type="line"/>
      <point x="542" y="719" type="line"/>
      <point x="611" y="650" type="line"/>
      <point x="655" y="612" type="line"/>
      <point x="654" y="608" type="line"/>
      <point x="574" y="612" type="line"/>
      <point x="130" y="612" type="line"/>
      <point x="130" y="490" type="line"/>
      <point x="574" y="490" type="line"/>
      <point x="654" y="494" type="line"/>
      <point x="655" y="490" type="line"/>
      <point x="611" y="452" type="line"/>
      <point x="542" y="383" type="line"/>
      <point x="622" y="303" type="line"/>
    </contour>
    <contour>
      <point x="458" y="39" type="line"/>
      <point x="389" y="108" type="line"/>
      <point x="345" y="146" type="line"/>
      <point x="346" y="150" type="line"/>
      <point x="426" y="146" type="line"/>
      <point x="870" y="146" type="line"/>
      <point x="870" y="268" type="line"/>
      <point x="426" y="268" type="line"/>
      <point x="346" y="264" type="line"/>
      <point x="345" y="268" type="line"/>
      <point x="389" y="306" type="line"/>
      <point x="458" y="375" type="line"/>
      <point x="378" y="455" type="line"/>
      <point x="130" y="207" type="line"/>
      <point x="378" y="-41" type="line"/>
    </contour>
  </outline>
</glyph>
<glyph name="uni21C6" format="2">
  <advance width="1000"/>
  <unicode hex="21C6"/>
  <outline>
    <contour>
      <point x="458" y="383" type="line"/>
      <point x="389" y="452" type="line"/>
      <point x="345" y="490" type="line"/>
      <point x="346" y="494" type="line"/>
      <point x="426" y="490" type="line"/>
      <point x="870" y="490" type="line"/>
      <point x="870" y="612" type="line"/>
      <point x="426" y="612" type="line"/>
      <point x="346" y="608" type="line"/>
      <point x="345" y="612" type="line"/>
      <point x="389" y="650" type="line"/>
      <point x="458" y="719" type="line"/>
      <point x="378" y="799" type="line"/>
      <point x="130" y="551" type="line"/>
      <point x="378" y="303" type="line"/>
    </contour>
    <contour>
      <point x="870" y="207" type="line"/>
      <point x="622" y="455" type="line"/>
      <point x="542" y="375" type="line"/>
      <point x="611" y="306" type="line"/>
      <point x="655" y="268" type="line"/>
      <point x="654" y="264" type="line"/>
      <point x="574" y="268" type="line"/>
      <point x="130" y="268" type="line"/>
      <point x="130" y="146" type="line"/>
      <point x="574" y="146" type="line"/>
      <point x="654" y="150" type="line"/>
      <point x="655" y="146" type="line"/>
      <point x="611" y="108" type="line"/>
      <point x="542" y="39" type="line"/>
      <point x="622" y="-41" type="line"/>
    </contour>
  </outline>
</glyph>
<glyph name="uni2208" format="2">
  <advance width="1000"/>
  <unicode hex="2208"/>
  <outline>
    <contour>
      <point x="838" y="443" type="line"/>
      <point x="264" y="443" type="line"/>
      <point x="283" y="493"/>
      <point x="335" y="531"/>
      <point x="429" y="531" type="curve" smooth="yes"/>
      <point x="840" y="531" type="line"/>
      <point x="840" y="653" type="line"/>
      <point x="429" y="653" type="line" smooth="yes"/>
      <point x="218" y="653"/>
      <point x="130" y="530"/>
      <point x="130" y="385" type="curve" smooth="yes"/>
      <point x="130" y="232"/>
      <point x="223" y="107"/>
      <point x="432" y="107" type="curve" smooth="yes"/>
      <point x="840" y="107" type="line"/>
      <point x="840" y="227" type="line"/>
      <point x="429" y="227" type="line" smooth="yes"/>
      <point x="330" y="227"/>
      <point x="280" y="266"/>
      <point x="261" y="326" type="curve"/>
      <point x="838" y="326" type="line"/>
    </contour>
  </outline>
</glyph>
<glyph name="uni2211" format="2">
  <advance width="1000"/>
  <unicode hex="2211"/>
  <outline>
    <contour>
      <point x="736" y="-69" type="line"/>
      <point x="736" y="66" type="line"/>
      <point x="428" y="66" type="line"/>
      <point x="622" y="330" type="line"/>
      <point x="622" y="430" type="line"/>
      <point x="428" y="694" type="line"/>
      <point x="736" y="694" type="line"/>
      <point x="736" y="829" type="line"/>
      <point x="264" y="829" type="line"/>
      <point x="264" y="688" type="line"/>
      <point x="479" y="382" type="line"/>
      <point x="479" y="378" type="line"/>
      <point x="264" y="72" type="line"/>
      <point x="264" y="-69" type="line"/>
    </contour>
  </outline>
</glyph>
<glyph name="uni2215" format="2">
  <advance width="500"/>
  <unicode hex="2215"/>
  <outline>
    <contour>
      <point x="152" y="-88" type="line"/>
      <point x="470" y="848" type="line"/>
      <point x="348" y="848" type="line"/>
      <point x="30" y="-88" type="line"/>
    </contour>
  </outline>
</glyph>
<glyph name="uni221D" format="2">
  <advance width="1000"/>
  <unicode hex="221D"/>
  <outline>
    <contour>
      <point x="327" y="175" type="curve" smooth="yes"/>
      <point x="393" y="175"/>
      <point x="468" y="230"/>
      <point x="473" y="311" type="curve"/>
      <point x="479" y="311" type="line"/>
      <point x="513" y="211"/>
      <point x="584" y="175"/>
      <point x="673" y="175" type="curve" smooth="yes"/>
      <point x="775" y="175"/>
      <point x="844" y="226"/>
      <point x="876" y="304" type="curve"/>
      <point x="764" y="358" type="line"/>
      <point x="740" y="312"/>
      <point x="711" y="294"/>
      <point x="658" y="294" type="curve" smooth="yes"/>
      <point x="613" y="294"/>
      <point x="576" y="338"/>
      <point x="556" y="392" type="curve"/>
      <point x="571" y="433"/>
      <point x="616" y="472"/>
      <point x="656" y="472" type="curve" smooth="yes"/>
      <point x="715" y="472"/>
      <point x="742" y="446"/>
      <point x="765" y="398" type="curve"/>
      <point x="877" y="452" type="line"/>
      <point x="846" y="532"/>
      <point x="776" y="585"/>
      <point x="673" y="585" type="curve" smooth="yes"/>
      <point x="607" y="585"/>
      <point x="532" y="530"/>
      <point x="527" y="449" type="curve"/>
      <point x="521" y="449" type="line"/>
      <point x="488" y="549"/>
      <point x="416" y="585"/>
      <point x="327" y="585" type="curve" smooth="yes"/>
      <point x="202" y="585"/>
      <point x="126" y="508"/>
      <point x="126" y="380" type="curve" smooth="yes"/>
      <point x="126" y="252"/>
      <point x="202" y="175"/>
    </contour>
    <contour>
      <point x="327" y="288" type="curve" smooth="yes"/>
      <point x="282" y="288"/>
      <point x="255" y="317"/>
      <point x="255" y="371" type="curve" smooth="yes"/>
      <point x="255" y="389" type="line" smooth="yes"/>
      <point x="255" y="443"/>
      <point x="282" y="472"/>
      <point x="327" y="472" type="curve" smooth="yes"/>
      <point x="384" y="472"/>
      <point x="424" y="422"/>
      <point x="444" y="368" type="curve"/>
      <point x="429" y="327"/>
      <point x="384" y="288"/>
    </contour>
  </outline>
</glyph>
<glyph name="uni2220" format="2">
  <advance width="1000"/>
  <unicode hex="2220"/>
  <outline>
    <contour>
      <point x="816" y="30" type="line"/>
      <point x="816" y="154" type="line"/>
      <point x="378" y="154" type="line"/>
      <point x="378" y="158" type="line"/>
      <point x="749" y="610" type="line"/>
      <point x="644" y="691" type="line"/>
      <point x="183" y="123" type="line"/>
      <point x="183" y="30" type="line"/>
    </contour>
  </outline>
</glyph>
<glyph name="uni2223" format="2">
  <advance width="1000"/>
  <unicode hex="2223"/>
  <outline>
    <contour>
      <point x="523" y="-120" type="line"/>
      <point x="523" y="880" type="line"/>
      <point x="477" y="880" type="line"/>
      <point x="477" y="-120" type="line"/>
    </contour>
  </outline>
</glyph>
<glyph name="uni2228" format="2">
  <advance width="1000"/>
  <unicode hex="2228"/>
  <outline>
    <contour>
      <point x="584" y="30" type="line"/>
      <point x="865" y="728" type="line"/>
      <point x="716" y="728" type="line"/>
      <point x="506" y="174" type="line"/>
      <point x="501" y="174" type="line"/>
      <point x="289" y="728" type="line"/>
      <point x="135" y="728" type="line"/>
      <point x="414" y="30" type="line"/>
    </contour>
  </outline>
</glyph>
<glyph name="uni2229" format="2">
  <advance width="1000"/>
  <unicode hex="2229"/>
  <outline>
    <contour>
      <point x="374" y="458" type="line" smooth="yes"/>
      <point x="374" y="556"/>
      <point x="410" y="605"/>
      <point x="500" y="605" type="curve" smooth="yes"/>
      <point x="590" y="605"/>
      <point x="626" y="556"/>
      <point x="626" y="458" type="curve" smooth="yes"/>
      <point x="626" y="30" type="line"/>
      <point x="774" y="30" type="line"/>
      <point x="774" y="442" type="line" smooth="yes"/>
      <point x="774" y="648"/>
      <point x="700" y="740"/>
      <point x="500" y="740" type="curve" smooth="yes"/>
      <point x="300" y="740"/>
      <point x="226" y="648"/>
      <point x="226" y="442" type="curve" smooth="yes"/>
      <point x="226" y="30" type="line"/>
      <point x="374" y="30" type="line"/>
    </contour>
  </outline>
</glyph>
<glyph name="uni222A" format="2">
  <advance width="1000"/>
  <unicode hex="222A"/>
  <outline>
    <contour>
      <point x="226" y="736" type="line"/>
      <point x="226" y="324" type="line" smooth="yes"/>
      <point x="226" y="118"/>
      <point x="300" y="26"/>
      <point x="500" y="26" type="curve" smooth="yes"/>
      <point x="700" y="26"/>
      <point x="774" y="118"/>
      <point x="774" y="324" type="curve" smooth="yes"/>
      <point x="774" y="736" type="line"/>
      <point x="626" y="736" type="line"/>
      <point x="626" y="308" type="line" smooth="yes"/>
      <point x="626" y="210"/>
      <point x="590" y="161"/>
      <point x="500" y="161" type="curve" smooth="yes"/>
      <point x="410" y="161"/>
      <point x="374" y="210"/>
      <point x="374" y="308" type="curve" smooth="yes"/>
      <point x="374" y="736" type="line"/>
    </contour>
  </outline>
</glyph>
<glyph name="uni222E" format="2">
  <advance width="1000"/>
  <unicode hex="222E"/>
  <outline>
    <contour>
      <point x="313" y="-90" type="line"/>
      <point x="412" y="-90" type="line" smooth="yes"/>
      <point x="518" y="-90"/>
      <point x="562" y="-30"/>
      <point x="562" y="53" type="curve" smooth="yes"/>
      <point x="562" y="157" type="line"/>
      <point x="659" y="183"/>
      <point x="727" y="270"/>
      <point x="727" y="380" type="curve" smooth="yes"/>
      <point x="727" y="490"/>
      <point x="659" y="577"/>
      <point x="562" y="603" type="curve"/>
      <point x="562" y="740" type="line"/>
      <point x="691" y="740" type="line"/>
      <point x="691" y="850" type="line"/>
      <point x="592" y="850" type="line" smooth="yes"/>
      <point x="485" y="850"/>
      <point x="442" y="794"/>
      <point x="442" y="707" type="curve" smooth="yes"/>
      <point x="442" y="604" type="line"/>
      <point x="342" y="580"/>
      <point x="272" y="493"/>
      <point x="272" y="380" type="curve" smooth="yes"/>
      <point x="272" y="267"/>
      <point x="342" y="180"/>
      <point x="442" y="156" type="curve"/>
      <point x="442" y="20" type="line"/>
      <point x="313" y="20" type="line"/>
    </contour>
    <contour>
      <point x="393" y="380" type="curve" smooth="yes"/>
      <point x="393" y="423"/>
      <point x="411" y="459"/>
      <point x="442" y="478" type="curve"/>
      <point x="442" y="282" type="line"/>
      <point x="411" y="301"/>
      <point x="393" y="337"/>
    </contour>
    <contour>
      <point x="562" y="475" type="line"/>
      <point x="590" y="455"/>
      <point x="606" y="421"/>
      <point x="606" y="380" type="curve" smooth="yes"/>
      <point x="606" y="339"/>
      <point x="590" y="305"/>
      <point x="562" y="285" type="curve"/>
    </contour>
  </outline>
</glyph>
<glyph name="uni2236" format="2">
  <advance width="1000"/>
  <unicode hex="2236"/>
  <outline>
    <contour>
      <point x="410" y="490" type="curve" smooth="yes"/>
      <point x="410" y="430"/>
      <point x="444" y="402"/>
      <point x="490" y="402" type="curve" smooth="yes"/>
      <point x="510" y="402" type="line" smooth="yes"/>
      <point x="556" y="402"/>
      <point x="590" y="430"/>
      <point x="590" y="490" type="curve" smooth="yes"/>
      <point x="590" y="550"/>
      <point x="556" y="578"/>
      <point x="510" y="578" type="curve" smooth="yes"/>
      <point x="490" y="578" type="line" smooth="yes"/>
      <point x="444" y="578"/>
      <point x="410" y="550"/>
    </contour>
    <contour>
      <point x="410" y="180" type="curve" smooth="yes"/>
      <point x="410" y="120"/>
      <point x="444" y="92"/>
      <point x="490" y="92" type="curve" smooth="yes"/>
      <point x="510" y="92" type="line" smooth="yes"/>
      <point x="556" y="92"/>
      <point x="590" y="120"/>
      <point x="590" y="180" type="curve" smooth="yes"/>
      <point x="590" y="240"/>
      <point x="556" y="268"/>
      <point x="510" y="268" type="curve" smooth="yes"/>
      <point x="490" y="268" type="line" smooth="yes"/>
      <point x="444" y="268"/>
      <point x="410" y="240"/>
    </contour>
  </outline>
</glyph>
<glyph name="uni2237" format="2">
  <advance width="1000"/>
  <unicode hex="2237"/>
  <outline>
    <contour>
      <point x="702" y="501" type="curve" smooth="yes"/>
      <point x="762" y="501"/>
      <point x="790" y="535"/>
      <point x="790" y="581" type="curve" smooth="yes"/>
      <point x="790" y="601" type="line" smooth="yes"/>
      <point x="790" y="647"/>
      <point x="762" y="681"/>
      <point x="702" y="681" type="curve" smooth="yes"/>
      <point x="642" y="681"/>
      <point x="614" y="647"/>
      <point x="614" y="601" type="curve" smooth="yes"/>
      <point x="614" y="581" type="line" smooth="yes"/>
      <point x="614" y="535"/>
      <point x="642" y="501"/>
    </contour>
    <contour>
      <point x="298" y="79" type="curve" smooth="yes"/>
      <point x="358" y="79"/>
      <point x="386" y="113"/>
      <point x="386" y="159" type="curve" smooth="yes"/>
      <point x="386" y="179" type="line" smooth="yes"/>
      <point x="386" y="225"/>
      <point x="358" y="259"/>
      <point x="298" y="259" type="curve" smooth="yes"/>
      <point x="238" y="259"/>
      <point x="210" y="225"/>
      <point x="210" y="179" type="curve" smooth="yes"/>
      <point x="210" y="159" type="line" smooth="yes"/>
      <point x="210" y="113"/>
      <point x="238" y="79"/>
    </contour>
    <contour>
      <point x="702" y="79" type="curve" smooth="yes"/>
      <point x="762" y="79"/>
      <point x="790" y="113"/>
      <point x="790" y="159" type="curve" smooth="yes"/>
      <point x="790" y="179" type="line" smooth="yes"/>
      <point x="790" y="225"/>
      <point x="762" y="259"/>
      <point x="702" y="259" type="curve" smooth="yes"/>
      <point x="642" y="259"/>
      <point x="614" y="225"/>
      <point x="614" y="179" type="curve" smooth="yes"/>
      <point x="614" y="159" type="line" smooth="yes"/>
      <point x="614" y="113"/>
      <point x="642" y="79"/>
    </contour>
    <contour>
      <point x="298" y="501" type="curve" smooth="yes"/>
      <point x="358" y="501"/>
      <point x="386" y="535"/>
      <point x="386" y="581" type="curve" smooth="yes"/>
      <point x="386" y="601" type="line" smooth="yes"/>
      <point x="386" y="647"/>
      <point x="358" y="681"/>
      <point x="298" y="681" type="curve" smooth="yes"/>
      <point x="238" y="681"/>
      <point x="210" y="647"/>
      <point x="210" y="601" type="curve" smooth="yes"/>
      <point x="210" y="581" type="line" smooth="yes"/>
      <point x="210" y="535"/>
      <point x="238" y="501"/>
    </contour>
  </outline>
</glyph>
<glyph name="uni2248" format="2">
  <advance width="1000"/>
  <unicode hex="2248"/>
  <outline>
    <contour>
      <point x="197" y="407" type="line"/>
      <point x="228" y="459"/>
      <point x="294" y="518"/>
      <point x="353" y="518" type="curve" smooth="yes"/>
      <point x="398" y="518"/>
      <point x="443" y="493"/>
      <point x="481" y="467" type="curve" smooth="yes"/>
      <point x="526" y="436"/>
      <point x="583" y="407"/>
      <point x="645" y="407" type="curve" smooth="yes"/>
      <point x="745" y="407"/>
      <point x="831" y="475"/>
      <point x="885" y="559" type="curve"/>
      <point x="803" y="643" type="line"/>
      <point x="767" y="587"/>
      <point x="705" y="532"/>
      <point x="647" y="532" type="curve" smooth="yes"/>
      <point x="602" y="532"/>
      <point x="559" y="558"/>
      <point x="522" y="582" type="curve" smooth="yes"/>
      <point x="475" y="612"/>
      <point x="417" y="643"/>
      <point x="354" y="643" type="curve" smooth="yes"/>
      <point x="254" y="643"/>
      <point x="166" y="570"/>
      <point x="115" y="491" type="curve"/>
    </contour>
    <contour>
      <point x="197" y="117" type="line"/>
      <point x="228" y="169"/>
      <point x="294" y="228"/>
      <point x="353" y="228" type="curve" smooth="yes"/>
      <point x="398" y="228"/>
      <point x="443" y="203"/>
      <point x="481" y="177" type="curve" smooth="yes"/>
      <point x="526" y="146"/>
      <point x="583" y="117"/>
      <point x="645" y="117" type="curve" smooth="yes"/>
      <point x="745" y="117"/>
      <point x="831" y="185"/>
      <point x="885" y="269" type="curve"/>
      <point x="803" y="353" type="line"/>
      <point x="767" y="297"/>
      <point x="705" y="242"/>
      <point x="647" y="242" type="curve" smooth="yes"/>
      <point x="602" y="242"/>
      <point x="559" y="268"/>
      <point x="522" y="292" type="curve" smooth="yes"/>
      <point x="475" y="322"/>
      <point x="417" y="353"/>
      <point x="354" y="353" type="curve" smooth="yes"/>
      <point x="255" y="353"/>
      <point x="169" y="283"/>
      <point x="115" y="201" type="curve"/>
    </contour>
  </outline>
</glyph>
<glyph name="uni224C" format="2">
  <advance width="1000"/>
  <unicode hex="224C"/>
  <outline>
    <contour>
      <point x="327" y="360" type="curve" smooth="yes"/>
      <point x="416" y="360"/>
      <point x="497" y="391"/>
      <point x="556" y="543" type="curve" smooth="yes"/>
      <point x="575" y="592"/>
      <point x="616" y="637"/>
      <point x="673" y="637" type="curve" smooth="yes"/>
      <point x="718" y="637"/>
      <point x="745" y="611"/>
      <point x="745" y="564" type="curve" smooth="yes"/>
      <point x="745" y="546" type="line" smooth="yes"/>
      <point x="745" y="499"/>
      <point x="718" y="473"/>
      <point x="673" y="473" type="curve" smooth="yes"/>
      <point x="643" y="473"/>
      <point x="616" y="484"/>
      <point x="596" y="500" type="curve"/>
      <point x="542" y="441" type="line"/>
      <point x="568" y="391"/>
      <point x="623" y="360"/>
      <point x="673" y="360" type="curve" smooth="yes"/>
      <point x="798" y="360"/>
      <point x="874" y="433"/>
      <point x="874" y="555" type="curve" smooth="yes"/>
      <point x="874" y="677"/>
      <point x="798" y="750"/>
      <point x="673" y="750" type="curve" smooth="yes"/>
      <point x="584" y="750"/>
      <point x="509" y="717"/>
      <point x="444" y="567" type="curve" smooth="yes"/>
      <point x="423" y="518"/>
      <point x="384" y="473"/>
      <point x="327" y="473" type="curve" smooth="yes"/>
      <point x="282" y="473"/>
      <point x="255" y="499"/>
      <point x="255" y="546" type="curve" smooth="yes"/>
      <point x="255" y="564" type="line" smooth="yes"/>
      <point x="255" y="611"/>
      <point x="282" y="637"/>
      <point x="327" y="637" type="curve" smooth="yes"/>
      <point x="355" y="637"/>
      <point x="380" y="628"/>
      <point x="400" y="613" type="curve"/>
      <point x="455" y="674" type="line"/>
      <point x="427" y="721"/>
      <point x="375" y="750"/>
      <point x="327" y="750" type="curve" smooth="yes"/>
      <point x="202" y="750"/>
      <point x="126" y="677"/>
      <point x="126" y="555" type="curve" smooth="yes"/>
      <point x="126" y="433"/>
      <point x="202" y="360"/>
    </contour>
    <contour>
      <point x="860" y="20" type="line"/>
      <point x="860" y="133" type="line"/>
      <point x="140" y="133" type="line"/>
      <point x="140" y="20" type="line"/>
    </contour>
    <contour>
      <point x="860" y="193" type="line"/>
      <point x="860" y="306" type="line"/>
      <point x="140" y="306" type="line"/>
      <point x="140" y="193" type="line"/>
    </contour>
  </outline>
</glyph>
<glyph name="uni2252" format="2">
  <advance width="1000"/>
  <unicode hex="2252"/>
  <outline>
    <contour>
      <point x="870" y="432" type="line"/>
      <point x="870" y="556" type="line"/>
      <point x="130" y="556" type="line"/>
      <point x="130" y="432" type="line"/>
    </contour>
    <contour>
      <point x="870" y="204" type="line"/>
      <point x="870" y="328" type="line"/>
      <point x="130" y="328" type="line"/>
      <point x="130" y="204" type="line"/>
    </contour>
    <contour>
      <point x="386" y="612" type="curve" smooth="yes"/>
      <point x="443" y="612"/>
      <point x="470" y="645"/>
      <point x="470" y="688" type="curve" smooth="yes"/>
      <point x="470" y="706" type="line" smooth="yes"/>
      <point x="470" y="749"/>
      <point x="443" y="782"/>
      <point x="386" y="782" type="curve" smooth="yes"/>
      <point x="329" y="782"/>
      <point x="302" y="749"/>
      <point x="302" y="706" type="curve" smooth="yes"/>
      <point x="302" y="688" type="line" smooth="yes"/>
      <point x="302" y="645"/>
      <point x="329" y="612"/>
    </contour>
    <contour>
      <point x="614" y="-21" type="curve" smooth="yes"/>
      <point x="671" y="-21"/>
      <point x="698" y="12"/>
      <point x="698" y="55" type="curve" smooth="yes"/>
      <point x="698" y="73" type="line" smooth="yes"/>
      <point x="698" y="116"/>
      <point x="671" y="149"/>
      <point x="614" y="149" type="curve" smooth="yes"/>
      <point x="557" y="149"/>
      <point x="530" y="116"/>
      <point x="530" y="73" type="curve" smooth="yes"/>
      <point x="530" y="55" type="line" smooth="yes"/>
      <point x="530" y="12"/>
      <point x="557" y="-21"/>
    </contour>
  </outline>
</glyph>
<glyph name="uni226E" format="2">
  <advance width="1000"/>
  <unicode hex="226E"/>
  <outline>
    <contour>
      <point x="862" y="126" type="line"/>
      <point x="274" y="357" type="line"/>
      <point x="274" y="364" type="line"/>
      <point x="862" y="594" type="line"/>
      <point x="862" y="719" type="line"/>
      <point x="128" y="427" type="line"/>
      <point x="128" y="294" type="line"/>
      <point x="862" y="1" type="line"/>
    </contour>
    <contour>
      <point x="469" y="-20" type="line"/>
      <point x="699" y="750" type="line"/>
      <point x="579" y="750" type="line"/>
      <point x="349" y="-20" type="line"/>
    </contour>
  </outline>
</glyph>
<glyph name="uni2312" format="2">
  <advance width="1000"/>
  <unicode hex="2312"/>
  <outline>
    <contour>
      <point x="900" y="190" type="line"/>
      <point x="900" y="440"/>
      <point x="729" y="620"/>
      <point x="500" y="620" type="curve" smooth="yes"/>
      <point x="273" y="620"/>
      <point x="100" y="440"/>
      <point x="100" y="190" type="curve"/>
      <point x="238" y="190" type="line"/>
      <point x="238" y="363"/>
      <point x="355" y="496"/>
      <point x="500" y="496" type="curve" smooth="yes"/>
      <point x="643" y="496"/>
      <point x="762" y="363"/>
      <point x="762" y="190" type="curve"/>
    </contour>
  </outline>
</glyph>
<glyph name="uni2460" format="2">
  <advance width="1000"/>
  <unicode hex="2460"/>
  <outline>
    <contour>
      <point x="500" y="-90" type="curve" smooth="yes"/>
      <point x="760" y="-90"/>
      <point x="970" y="120"/>
      <point x="970" y="380" type="curve" smooth="yes"/>
      <point x="970" y="640"/>
      <point x="760" y="850"/>
      <point x="500" y="850" type="curve" smooth="yes"/>
      <point x="240" y="850"/>
      <point x="30" y="640"/>
      <point x="30" y="380" type="curve" smooth="yes"/>
      <point x="30" y="120"/>
      <point x="240" y="-90"/>
    </contour>
    <contour>
      <point x="500" y="-40" type="curve" smooth="yes"/>
      <point x="268" y="-40"/>
      <point x="80" y="148"/>
      <point x="80" y="380" type="curve" smooth="yes"/>
      <point x="80" y="612"/>
      <point x="268" y="800"/>
      <point x="500" y="800" type="curve" smooth="yes"/>
      <point x="732" y="800"/>
      <point x="920" y="612"/>
      <point x="920" y="380" type="curve" smooth="yes"/>
      <point x="920" y="148"/>
      <point x="732" y="-40"/>
    </contour>
    <contour>
      <point x="670" y="171" type="line"/>
      <point x="670" y="247" type="line"/>
      <point x="583" y="247" type="line"/>
      <point x="583" y="590" type="line"/>
      <point x="439" y="590" type="line"/>
      <point x="340" y="456" type="line"/>
      <point x="400" y="410" type="line"/>
      <point x="483" y="521" type="line"/>
      <point x="489" y="521" type="line"/>
      <point x="489" y="247" type="line"/>
      <point x="377" y="247" type="line"/>
      <point x="377" y="171" type="line"/>
    </contour>
  </outline>
</glyph>
<glyph name="uni2463" format="2">
  <advance width="1000"/>
  <unicode hex="2463"/>
  <outline>
    <contour>
      <point x="500" y="-90" type="curve" smooth="yes"/>
      <point x="760" y="-90"/>
      <point x="970" y="120"/>
      <point x="970" y="380" type="curve" smooth="yes"/>
      <point x="970" y="640"/>
      <point x="760" y="850"/>
      <point x="500" y="850" type="curve" smooth="yes"/>
      <point x="240" y="850"/>
      <point x="30" y="640"/>
      <point x="30" y="380" type="curve" smooth="yes"/>
      <point x="30" y="120"/>
      <point x="240" y="-90"/>
    </contour>
    <contour>
      <point x="500" y="-40" type="curve" smooth="yes"/>
      <point x="268" y="-40"/>
      <point x="80" y="148"/>
      <point x="80" y="380" type="curve" smooth="yes"/>
      <point x="80" y="612"/>
      <point x="268" y="800"/>
      <point x="500" y="800" type="curve" smooth="yes"/>
      <point x="732" y="800"/>
      <point x="920" y="612"/>
      <point x="920" y="380" type="curve" smooth="yes"/>
      <point x="920" y="148"/>
      <point x="732" y="-40"/>
    </contour>
    <contour>
      <point x="609" y="165" type="line"/>
      <point x="609" y="245" type="line"/>
      <point x="661" y="245" type="line"/>
      <point x="661" y="317" type="line"/>
      <point x="609" y="317" type="line"/>
      <point x="609" y="584" type="line"/>
      <point x="497" y="584" type="line"/>
      <point x="337" y="325" type="line"/>
      <point x="337" y="245" type="line"/>
      <point x="519" y="245" type="line"/>
      <point x="519" y="165" type="line"/>
    </contour>
    <contour>
      <point x="527" y="511" type="line"/>
      <point x="485" y="487" type="line"/>
      <point x="547" y="487" type="line"/>
      <point x="519" y="515" type="line"/>
      <point x="519" y="317" type="line"/>
      <point x="384" y="317" type="line"/>
      <point x="398" y="293" type="line"/>
    </contour>
  </outline>
</glyph>
<glyph name="uni2465" format="2">
  <advance width="1000"/>
  <unicode hex="2465"/>
  <outline>
    <contour>
      <point x="500" y="-90" type="curve" smooth="yes"/>
      <point x="760" y="-90"/>
      <point x="970" y="120"/>
      <point x="970" y="380" type="curve" smooth="yes"/>
      <point x="970" y="640"/>
      <point x="760" y="850"/>
      <point x="500" y="850" type="curve" smooth="yes"/>
      <point x="240" y="850"/>
      <point x="30" y="640"/>
      <point x="30" y="380" type="curve" smooth="yes"/>
      <point x="30" y="120"/>
      <point x="240" y="-90"/>
    </contour>
    <contour>
      <point x="501" y="231" type="curve" smooth="yes"/>
      <point x="463" y="231"/>
      <point x="440" y="253"/>
      <point x="440" y="292" type="curve" smooth="yes"/>
      <point x="440" y="303" type="line" smooth="yes"/>
      <point x="440" y="342"/>
      <point x="463" y="364"/>
      <point x="501" y="364" type="curve" smooth="yes"/>
      <point x="539" y="364"/>
      <point x="562" y="342"/>
      <point x="562" y="303" type="curve" smooth="yes"/>
      <point x="562" y="292" type="line" smooth="yes"/>
      <point x="562" y="253"/>
      <point x="539" y="231"/>
    </contour>
    <contour>
      <point x="501" y="158" type="curve" smooth="yes"/>
      <point x="597" y="158"/>
      <point x="660" y="220"/>
      <point x="660" y="306" type="curve" smooth="yes"/>
      <point x="660" y="385"/>
      <point x="606" y="436"/>
      <point x="538" y="436" type="curve" smooth="yes"/>
      <point x="484" y="436"/>
      <point x="460" y="404"/>
      <point x="447" y="374" type="curve"/>
      <point x="441" y="376" type="line"/>
      <point x="458" y="454"/>
      <point x="520" y="509"/>
      <point x="621" y="584" type="curve"/>
      <point x="491" y="584" type="line"/>
      <point x="421" y="536"/>
      <point x="342" y="441"/>
      <point x="342" y="325" type="curve" smooth="yes"/>
      <point x="342" y="224"/>
      <point x="401" y="158"/>
    </contour>
    <contour>
      <point x="500" y="-40" type="curve" smooth="yes"/>
      <point x="268" y="-40"/>
      <point x="80" y="148"/>
      <point x="80" y="380" type="curve" smooth="yes"/>
      <point x="80" y="612"/>
      <point x="268" y="800"/>
      <point x="500" y="800" type="curve" smooth="yes"/>
      <point x="732" y="800"/>
      <point x="920" y="612"/>
      <point x="920" y="380" type="curve" smooth="yes"/>
      <point x="920" y="148"/>
      <point x="732" y="-40"/>
    </contour>
  </outline>
</glyph>
<glyph name="uni2466" format="2">
  <advance width="1000"/>
  <unicode hex="2466"/>
  <outline>
    <contour>
      <point x="500" y="-90" type="curve" smooth="yes"/>
      <point x="760" y="-90"/>
      <point x="970" y="120"/>
      <point x="970" y="380" type="curve" smooth="yes"/>
      <point x="970" y="640"/>
      <point x="760" y="850"/>
      <point x="500" y="850" type="curve" smooth="yes"/>
      <point x="240" y="850"/>
      <point x="30" y="640"/>
      <point x="30" y="380" type="curve" smooth="yes"/>
      <point x="30" y="120"/>
      <point x="240" y="-90"/>
    </contour>
    <contour>
      <point x="500" y="-40" type="curve" smooth="yes"/>
      <point x="268" y="-40"/>
      <point x="80" y="148"/>
      <point x="80" y="380" type="curve" smooth="yes"/>
      <point x="80" y="612"/>
      <point x="268" y="800"/>
      <point x="500" y="800" type="curve" smooth="yes"/>
      <point x="732" y="800"/>
      <point x="920" y="612"/>
      <point x="920" y="380" type="curve" smooth="yes"/>
      <point x="920" y="148"/>
      <point x="732" y="-40"/>
    </contour>
    <contour>
      <point x="518" y="165" type="line"/>
      <point x="650" y="502" type="line"/>
      <point x="650" y="584" type="line"/>
      <point x="352" y="584" type="line"/>
      <point x="352" y="432" type="line"/>
      <point x="432" y="432" type="line"/>
      <point x="432" y="507" type="line"/>
      <point x="557" y="507" type="line"/>
      <point x="419" y="165" type="line"/>
    </contour>
  </outline>
</glyph>
<glyph name="uni2474" format="2">
  <advance width="1000"/>
  <unicode hex="2474"/>
  <outline>
    <contour>
      <point x="824" y="-67" type="line"/>
      <point x="915" y="17"/>
      <point x="990" y="187"/>
      <point x="990" y="383" type="curve" smooth="yes"/>
      <point x="990" y="577"/>
      <point x="917" y="744"/>
      <point x="823" y="831" type="curve"/>
      <point x="728" y="831" type="line"/>
      <point x="828" y="732"/>
      <point x="894" y="584"/>
      <point x="894" y="414" type="curve" smooth="yes"/>
      <point x="894" y="350" type="line" smooth="yes"/>
      <point x="894" y="170"/>
      <point x="824" y="27"/>
      <point x="728" y="-67" type="curve"/>
    </contour>
    <contour>
      <point x="272" y="-67" type="line"/>
      <point x="174" y="28"/>
      <point x="105" y="173"/>
      <point x="105" y="350" type="curve" smooth="yes"/>
      <point x="105" y="414" type="line" smooth="yes"/>
      <point x="105" y="586"/>
      <point x="173" y="733"/>
      <point x="272" y="831" type="curve"/>
      <point x="177" y="831" type="line"/>
      <point x="83" y="744"/>
      <point x="10" y="579"/>
      <point x="10" y="383" type="curve" smooth="yes"/>
      <point x="10" y="188"/>
      <point x="83" y="19"/>
      <point x="176" y="-67" type="curve"/>
    </contour>
    <contour>
      <point x="670" y="197" type="line"/>
      <point x="670" y="273" type="line"/>
      <point x="583" y="273" type="line"/>
      <point x="583" y="616" type="line"/>
      <point x="439" y="616" type="line"/>
      <point x="340" y="482" type="line"/>
      <point x="400" y="436" type="line"/>
      <point x="483" y="547" type="line"/>
      <point x="489" y="547" type="line"/>
      <point x="489" y="273" type="line"/>
      <point x="377" y="273" type="line"/>
      <point x="377" y="197" type="line"/>
    </contour>
  </outline>
</glyph>
<glyph name="uni2475" format="2">
  <advance width="1000"/>
  <unicode hex="2475"/>
  <outline>
    <contour>
      <point x="272" y="-67" type="line"/>
      <point x="174" y="28"/>
      <point x="105" y="173"/>
      <point x="105" y="350" type="curve" smooth="yes"/>
      <point x="105" y="414" type="line" smooth="yes"/>
      <point x="105" y="586"/>
      <point x="173" y="733"/>
      <point x="272" y="831" type="curve"/>
      <point x="177" y="831" type="line"/>
      <point x="83" y="744"/>
      <point x="10" y="579"/>
      <point x="10" y="383" type="curve" smooth="yes"/>
      <point x="10" y="188"/>
      <point x="83" y="19"/>
      <point x="176" y="-67" type="curve"/>
    </contour>
    <contour>
      <point x="824" y="-67" type="line"/>
      <point x="915" y="17"/>
      <point x="990" y="187"/>
      <point x="990" y="383" type="curve" smooth="yes"/>
      <point x="990" y="577"/>
      <point x="917" y="744"/>
      <point x="823" y="831" type="curve"/>
      <point x="728" y="831" type="line"/>
      <point x="828" y="732"/>
      <point x="894" y="584"/>
      <point x="894" y="414" type="curve" smooth="yes"/>
      <point x="894" y="350" type="line" smooth="yes"/>
      <point x="894" y="170"/>
      <point x="824" y="27"/>
      <point x="728" y="-67" type="curve"/>
    </contour>
    <contour>
      <point x="652" y="272" type="line"/>
      <point x="428" y="272" type="line"/>
      <point x="435" y="255" type="line"/>
      <point x="530" y="328" type="line" smooth="yes"/>
      <point x="586" y="371"/>
      <point x="644" y="417"/>
      <point x="644" y="492" type="curve" smooth="yes"/>
      <point x="644" y="565"/>
      <point x="591" y="619"/>
      <point x="500" y="619" type="curve" smooth="yes"/>
      <point x="412" y="619"/>
      <point x="363" y="570"/>
      <point x="344" y="511" type="curve"/>
      <point x="426" y="480" type="line"/>
      <point x="435" y="513"/>
      <point x="455" y="537"/>
      <point x="491" y="537" type="curve" smooth="yes"/>
      <point x="516" y="537"/>
      <point x="544" y="522"/>
      <point x="544" y="492" type="curve" smooth="yes"/>
      <point x="544" y="484" type="line" smooth="yes"/>
      <point x="544" y="449"/>
      <point x="527" y="426"/>
      <point x="481" y="387" type="curve" smooth="yes"/>
      <point x="354" y="279" type="line"/>
      <point x="354" y="193" type="line"/>
      <point x="652" y="193" type="line"/>
    </contour>
  </outline>
</glyph>
<glyph name="uni2476" format="2">
  <advance width="1000"/>
  <unicode hex="2476"/>
  <outline>
    <contour>
      <point x="824" y="-67" type="line"/>
      <point x="915" y="17"/>
      <point x="990" y="187"/>
      <point x="990" y="383" type="curve" smooth="yes"/>
      <point x="990" y="577"/>
      <point x="917" y="744"/>
      <point x="823" y="831" type="curve"/>
      <point x="728" y="831" type="line"/>
      <point x="828" y="732"/>
      <point x="894" y="584"/>
      <point x="894" y="414" type="curve" smooth="yes"/>
      <point x="894" y="350" type="line" smooth="yes"/>
      <point x="894" y="170"/>
      <point x="824" y="27"/>
      <point x="728" y="-67" type="curve"/>
    </contour>
    <contour>
      <point x="272" y="-67" type="line"/>
      <point x="174" y="28"/>
      <point x="105" y="173"/>
      <point x="105" y="350" type="curve" smooth="yes"/>
      <point x="105" y="414" type="line" smooth="yes"/>
      <point x="105" y="586"/>
      <point x="173" y="733"/>
      <point x="272" y="831" type="curve"/>
      <point x="177" y="831" type="line"/>
      <point x="83" y="744"/>
      <point x="10" y="579"/>
      <point x="10" y="383" type="curve" smooth="yes"/>
      <point x="10" y="188"/>
      <point x="83" y="19"/>
      <point x="176" y="-67" type="curve"/>
    </contour>
    <contour>
      <point x="439" y="446" type="line"/>
      <point x="439" y="367" type="line"/>
      <point x="475" y="367" type="line" smooth="yes"/>
      <point x="519" y="367"/>
      <point x="547" y="351"/>
      <point x="547" y="318" type="curve" smooth="yes"/>
      <point x="547" y="315" type="line" smooth="yes"/>
      <point x="547" y="282"/>
      <point x="524" y="260"/>
      <point x="484" y="260" type="curve" smooth="yes"/>
      <point x="441" y="260"/>
      <point x="416" y="284"/>
      <point x="398" y="319" type="curve"/>
      <point x="328" y="265" type="line"/>
      <point x="355" y="223"/>
      <point x="397" y="184"/>
      <point x="484" y="184" type="curve" smooth="yes"/>
      <point x="580" y="184"/>
      <point x="645" y="233"/>
      <point x="645" y="308" type="curve" smooth="yes"/>
      <point x="645" y="364"/>
      <point x="609" y="397"/>
      <point x="561" y="407" type="curve"/>
      <point x="561" y="413" type="line"/>
      <point x="603" y="422"/>
      <point x="638" y="454"/>
      <point x="638" y="506" type="curve" smooth="yes"/>
      <point x="638" y="573"/>
      <point x="579" y="617"/>
      <point x="488" y="617" type="curve" smooth="yes"/>
      <point x="415" y="617"/>
      <point x="374" y="588"/>
      <point x="342" y="547" type="curve"/>
      <point x="401" y="491" type="line"/>
      <point x="422" y="523"/>
      <point x="453" y="540"/>
      <point x="485" y="540" type="curve" smooth="yes"/>
      <point x="519" y="540"/>
      <point x="539" y="520"/>
      <point x="539" y="492" type="curve" smooth="yes"/>
      <point x="539" y="488" type="line" smooth="yes"/>
      <point x="539" y="464"/>
      <point x="520" y="446"/>
      <point x="477" y="446" type="curve" smooth="yes"/>
    </contour>
  </outline>
</glyph>
<glyph name="uni2478" format="2">
  <advance width="1000"/>
  <unicode hex="2478"/>
  <outline>
    <contour>
      <point x="177" y="831" type="line"/>
      <point x="83" y="744"/>
      <point x="10" y="579"/>
      <point x="10" y="383" type="curve" smooth="yes"/>
      <point x="10" y="188"/>
      <point x="83" y="19"/>
      <point x="176" y="-67" type="curve"/>
      <point x="272" y="-67" type="line"/>
      <point x="174" y="28"/>
      <point x="105" y="173"/>
      <point x="105" y="350" type="curve" smooth="yes"/>
      <point x="105" y="414" type="line" smooth="yes"/>
      <point x="105" y="586"/>
      <point x="173" y="733"/>
      <point x="272" y="831" type="curve"/>
    </contour>
    <contour>
      <point x="728" y="831" type="line"/>
      <point x="828" y="732"/>
      <point x="894" y="584"/>
      <point x="894" y="414" type="curve" smooth="yes"/>
      <point x="894" y="350" type="line" smooth="yes"/>
      <point x="894" y="170"/>
      <point x="824" y="27"/>
      <point x="728" y="-67" type="curve"/>
      <point x="824" y="-67" type="line"/>
      <point x="915" y="17"/>
      <point x="990" y="187"/>
      <point x="990" y="383" type="curve" smooth="yes"/>
      <point x="990" y="577"/>
      <point x="917" y="744"/>
      <point x="823" y="831" type="curve"/>
    </contour>
    <contour>
      <point x="530" y="467" type="curve" smooth="yes"/>
      <point x="478" y="467"/>
      <point x="458" y="440"/>
      <point x="442" y="401" type="curve"/>
      <point x="436" y="401" type="line"/>
      <point x="444" y="528" type="line"/>
      <point x="634" y="528" type="line"/>
      <point x="634" y="610" type="line"/>
      <point x="375" y="610" type="line"/>
      <point x="360" y="372" type="line"/>
      <point x="437" y="361" type="line"/>
      <point x="447" y="373"/>
      <point x="468" y="390"/>
      <point x="500" y="390" type="curve" smooth="yes"/>
      <point x="537" y="390"/>
      <point x="560" y="367"/>
      <point x="560" y="330" type="curve" smooth="yes"/>
      <point x="560" y="326" type="line" smooth="yes"/>
      <point x="560" y="287"/>
      <point x="539" y="260"/>
      <point x="497" y="260" type="curve" smooth="yes"/>
      <point x="456" y="260"/>
      <point x="432" y="287"/>
      <point x="414" y="319" type="curve"/>
      <point x="346" y="265" type="line"/>
      <point x="371" y="223"/>
      <point x="414" y="184"/>
      <point x="497" y="184" type="curve" smooth="yes"/>
      <point x="601" y="184"/>
      <point x="659" y="248"/>
      <point x="659" y="333" type="curve" smooth="yes"/>
      <point x="659" y="417"/>
      <point x="601" y="467"/>
    </contour>
  </outline>
</glyph>
<glyph name="uni247E" format="2">
  <advance width="1000"/>
  <unicode hex="247E"/>
  <outline>
    <contour>
      <point x="272" y="-67" type="line"/>
      <point x="174" y="28"/>
      <point x="105" y="173"/>
      <point x="105" y="350" type="curve" smooth="yes"/>
      <point x="105" y="414" type="line" smooth="yes"/>
      <point x="105" y="586"/>
      <point x="173" y="733"/>
      <point x="272" y="831" type="curve"/>
      <point x="177" y="831" type="line"/>
      <point x="83" y="744"/>
      <point x="10" y="579"/>
      <point x="10" y="383" type="curve" smooth="yes"/>
      <point x="10" y="188"/>
      <point x="83" y="19"/>
      <point x="176" y="-67" type="curve"/>
    </contour>
    <contour>
      <point x="824" y="-67" type="line"/>
      <point x="915" y="17"/>
      <point x="990" y="187"/>
      <point x="990" y="383" type="curve" smooth="yes"/>
      <point x="990" y="577"/>
      <point x="917" y="744"/>
      <point x="823" y="831" type="curve"/>
      <point x="728" y="831" type="line"/>
      <point x="828" y="732"/>
      <point x="894" y="584"/>
      <point x="894" y="414" type="curve" smooth="yes"/>
      <point x="894" y="350" type="line" smooth="yes"/>
      <point x="894" y="170"/>
      <point x="824" y="27"/>
      <point x="728" y="-67" type="curve"/>
    </contour>
    <contour>
      <point x="490" y="267" type="line"/>
      <point x="403" y="267" type="line"/>
      <point x="403" y="610" type="line"/>
      <point x="259" y="610" type="line"/>
      <point x="160" y="476" type="line"/>
      <point x="220" y="430" type="line"/>
      <point x="303" y="541" type="line"/>
      <point x="309" y="541" type="line"/>
      <point x="309" y="267" type="line"/>
      <point x="197" y="267" type="line"/>
      <point x="197" y="191" type="line"/>
      <point x="490" y="191" type="line"/>
    </contour>
    <contour>
      <point x="850" y="267" type="line"/>
      <point x="763" y="267" type="line"/>
      <point x="763" y="610" type="line"/>
      <point x="619" y="610" type="line"/>
      <point x="520" y="476" type="line"/>
      <point x="580" y="430" type="line"/>
      <point x="663" y="541" type="line"/>
      <point x="669" y="541" type="line"/>
      <point x="669" y="267" type="line"/>
      <point x="557" y="267" type="line"/>
      <point x="557" y="191" type="line"/>
      <point x="850" y="191" type="line"/>
    </contour>
  </outline>
</glyph>
